<?xml version="1.0" encoding="utf-8"?>
<!-- Generator: Adobe Illustrator 16.0.0, SVG Export Plug-In . SVG Version: 6.00 Build 0)  -->
<!DOCTYPE svg PUBLIC "-//W3C//DTD SVG 1.1//EN" "http://www.w3.org/Graphics/SVG/1.1/DTD/svg11.dtd">
<svg version="1.1" id="Layer_1" xmlns="http://www.w3.org/2000/svg" xmlns:xlink="http://www.w3.org/1999/xlink" x="0px" y="0px"
	 width="357.859px" height="357.862px" viewBox="0 0 357.859 357.862" enable-background="new 0 0 357.859 357.862"
	 xml:space="preserve">
<g>
	<defs>
		<rect id="SVGID_1_" width="357.859" height="357.862"/>
	</defs>
	<clipPath id="SVGID_2_">
		<use xlink:href="#SVGID_1_"  overflow="visible"/>
	</clipPath>
	<path clip-path="url(#SVGID_2_)" fill="#0069A6" d="M90.786,202.789c0-8.636-5.706-13.686-13.493-13.686h-9.791v27.333h9.753
		C85.042,216.436,90.786,211.424,90.786,202.789 M72.821,211.501v-17.464H77.1c4.472,0,8.173,2.814,8.173,8.751
		s-3.739,8.713-8.211,8.713H72.821z"/>
	<rect x="106.988" y="189.103" clip-path="url(#SVGID_2_)" fill="#0069A6" width="5.397" height="27.333"/>
	<path clip-path="url(#SVGID_2_)" fill="#0069A6" d="M140.482,193.498c4.434,0,6.708,2.813,7.402,5.243l5.088-1.813
		c-1.348-4.202-5.319-8.403-12.49-8.403c-7.401,0-13.993,5.435-13.993,14.264c0,8.828,6.283,14.225,13.646,14.225
		c4.125,0,6.824-1.85,8.058-3.7l0.347,3.122h4.317v-14.226h-13.646v4.627h8.634c-0.308,1.927-2.274,5.32-7.324,5.32
		c-4.588,0-8.636-3.2-8.636-9.368C131.885,196.311,136.357,193.498,140.482,193.498"/>
	<rect x="170.491" y="189.103" clip-path="url(#SVGID_2_)" fill="#0069A6" width="5.397" height="27.333"/>
	<polygon clip-path="url(#SVGID_2_)" fill="#0069A6" points="191.902,194.153 200.538,194.153 200.538,216.436 205.896,216.436 
		205.896,194.153 214.532,194.153 214.532,189.103 191.902,189.103 	"/>
	<path clip-path="url(#SVGID_2_)" fill="#0069A6" d="M238.587,189.104L228.1,216.435h5.629l2.275-6.244h11.102l2.275,6.244h5.783
		l-10.409-27.331H238.587z M237.777,205.333L241.554,195l3.779,10.332H237.777z"/>
	<polygon clip-path="url(#SVGID_2_)" fill="#0069A6" points="273.744,189.103 273.744,216.436 291.246,216.436 291.246,211.347 
		279.063,211.347 279.063,189.103 	"/>
	<polygon clip-path="url(#SVGID_2_)" fill="#0069A6" points="95.913,254.256 89.821,235.367 84.309,235.367 78.255,254.18 
		73.245,235.367 67.616,235.367 75.21,262.7 80.763,262.7 87.008,243.232 93.252,262.7 98.727,262.7 106.283,235.367 
		100.848,235.367 	"/>
	<polygon clip-path="url(#SVGID_2_)" fill="#0069A6" points="110.255,262.7 127.373,262.7 127.373,257.688 115.575,257.688 
		115.575,251.366 126.254,251.366 126.254,246.624 115.575,246.624 115.575,240.378 127.373,240.378 127.373,235.367 
		110.255,235.367 	"/>
	<polygon clip-path="url(#SVGID_2_)" fill="#0069A6" points="138.398,235.368 133.079,235.368 133.079,262.701 150.581,262.701 
		150.581,257.611 138.398,257.611 	"/>
	<polygon clip-path="url(#SVGID_2_)" fill="#0069A6" points="160.374,235.368 155.054,235.368 155.054,262.701 172.556,262.701 
		172.556,257.611 160.374,257.611 	"/>
	<path clip-path="url(#SVGID_2_)" fill="#0069A6" d="M191.216,248.589c2.273-0.771,3.971-3.045,3.971-5.858
		c0-4.241-3.007-7.363-8.327-7.363h-9.831V262.7h10.563c5.127,0,8.441-3.2,8.441-7.633
		C196.033,251.673,193.875,249.246,191.216,248.589 M182.271,239.838h3.74c2.582,0,3.932,1.312,3.932,3.394
		c0,2.081-1.465,3.431-3.894,3.431h-3.778V239.838z M186.59,258.267h-4.318v-7.21h4.395c2.659,0,4.049,1.504,4.049,3.662
		C190.715,256.917,189.173,258.267,186.59,258.267"/>
	<polygon clip-path="url(#SVGID_2_)" fill="#0069A6" points="200.932,262.7 218.047,262.7 218.047,257.688 206.25,257.688 
		206.25,251.366 216.929,251.366 216.929,246.624 206.25,246.624 206.25,240.378 218.047,240.378 218.047,235.367 200.932,235.367 	
		"/>
	<rect x="223.753" y="235.367" clip-path="url(#SVGID_2_)" fill="#0069A6" width="5.397" height="27.333"/>
	<polygon clip-path="url(#SVGID_2_)" fill="#0069A6" points="253.785,253.447 242.413,235.368 235.781,235.368 235.781,262.7 
		241.102,262.7 241.102,243.308 253.515,262.7 259.104,262.7 259.104,235.368 253.785,235.368 	"/>
	<path clip-path="url(#SVGID_2_)" fill="#0069A6" d="M278.112,239.762c4.434,0,6.708,2.813,7.401,5.242l5.088-1.812
		c-1.348-4.202-5.318-8.404-12.489-8.404c-7.401,0-13.994,5.437-13.994,14.264c0,8.828,6.284,14.227,13.646,14.227
		c4.125,0,6.824-1.852,8.059-3.702l0.346,3.123h4.318v-14.225H276.84v4.626h8.635c-0.308,1.927-2.273,5.319-7.324,5.319
		c-4.588,0-8.636-3.199-8.636-9.368C269.515,242.576,273.987,239.762,278.112,239.762"/>
	<path clip-path="url(#SVGID_2_)" fill="#0069A6" d="M77.086,122.817c3.062,0,5.538-0.922,7.384-2.768
		c1.846-1.846,2.769-4.279,2.769-7.342c0-3.147-0.966-5.58-2.853-7.342c-1.888-1.804-4.405-2.685-7.51-2.685
		c-3.062,0-5.496,0.923-7.3,2.727c-1.804,1.804-2.726,4.279-2.726,7.342c0,3.062,0.922,5.538,2.768,7.341
		C71.506,121.896,73.981,122.817,77.086,122.817 M76.918,107.127c3.146,0,4.699,1.93,4.699,5.79c0,1.552-0.378,2.853-1.133,3.817
		c-0.838,1.091-2.013,1.595-3.566,1.595c-1.468,0-2.643-0.504-3.439-1.595c-0.756-0.964-1.133-2.265-1.133-3.817
		C72.347,109.058,73.855,107.127,76.918,107.127"/>
	<rect x="78.303" y="94.584" clip-path="url(#SVGID_2_)" fill="#0069A6" width="5.202" height="4.824"/>
	<rect x="70.375" y="94.584" clip-path="url(#SVGID_2_)" fill="#0069A6" width="5.202" height="4.824"/>
	<path clip-path="url(#SVGID_2_)" fill="#0069A6" d="M98.649,122.818h4.781h0.757h17.114h1.008h31.378h1.849h3.688
		c2.476,0,4.405-0.839,5.79-2.559c1.217-1.468,1.846-3.315,1.846-5.538V95.8h-5.873v17.285c0,2.727-1.007,4.111-2.979,4.111h-2.472
		h-1.849h-2.599c-0.713-6.209-3.356-10.362-7.845-12.502c-1.888-0.881-4.07-1.342-6.544-1.342c-4.071,0-7.51,1.468-10.363,4.446
		c1.384,1.889,2.349,3.189,2.936,3.986c1.637-1.72,4.489-3.02,7.007-3.02c2.642,0,4.824,0.923,6.461,2.726
		c1.469,1.595,2.264,3.483,2.39,5.706h-22.821h-1.008h-5.83c0.461-1.3,0.671-2.685,0.671-4.237v-9.146h-5.915v9.356
		c0,2.685-0.965,4.027-2.936,4.027h-3.104h-0.757h-0.963c-4.321,0-5.035-1.51-5.035-4.363V95.758h-5.873v20.138
		C91.559,120.217,94.161,122.818,98.649,122.818"/>
	<rect x="110.353" y="124.916" clip-path="url(#SVGID_2_)" fill="#0069A6" width="5.202" height="4.867"/>
	<rect x="102.465" y="124.915" clip-path="url(#SVGID_2_)" fill="#0069A6" width="5.202" height="4.867"/>
	<rect x="171.139" y="95.758" clip-path="url(#SVGID_2_)" fill="#0069A6" width="5.873" height="27.06"/>
	<path clip-path="url(#SVGID_2_)" fill="#0069A6" d="M199.12,122.817c3.062,0,5.537-0.922,7.384-2.768
		c1.845-1.846,2.768-4.279,2.768-7.342c0-3.147-0.965-5.58-2.852-7.342c-1.889-1.804-4.405-2.685-7.51-2.685
		c-3.063,0-5.496,0.923-7.301,2.727c-1.804,1.804-2.726,4.279-2.726,7.342c0,3.062,0.922,5.538,2.768,7.341
		C193.54,121.896,196.015,122.817,199.12,122.817 M198.952,107.127c3.146,0,4.698,1.93,4.698,5.79c0,1.552-0.378,2.853-1.133,3.817
		c-0.838,1.091-2.013,1.595-3.565,1.595c-1.47,0-2.644-0.504-3.44-1.595c-0.755-0.964-1.133-2.265-1.133-3.817
		C194.379,109.058,195.889,107.127,198.952,107.127"/>
	<rect x="200.337" y="94.584" clip-path="url(#SVGID_2_)" fill="#0069A6" width="5.202" height="4.824"/>
	<rect x="192.407" y="94.584" clip-path="url(#SVGID_2_)" fill="#0069A6" width="5.202" height="4.824"/>
	<path clip-path="url(#SVGID_2_)" fill="#0069A6" d="M234.359,117.154c0-6.335-2.979-10.53-8.686-12.544
		c-1.551-0.546-4.153-0.797-7.844-0.797v4.908c7.466,0,10.656,2.601,10.656,8.475h-15.23v5.622h21.104V117.154z"/>
	<path clip-path="url(#SVGID_2_)" fill="#0069A6" d="M276.435,103.352c-4.07,0-7.553,1.469-10.405,4.447
		c1.384,1.888,2.349,3.189,2.937,3.986c1.679-1.72,4.53-3.021,7.049-3.021c4.907,0,8.517,3.692,8.769,8.433h-22.192h-1.555h-3.899
		v-3.818c0-5.58-3.942-9.607-9.313-9.607c-5.581,0-9.524,3.818-9.524,9.481c0,5.58,4.027,9.566,9.524,9.566
		c1.971,0,3.146-0.084,3.607-0.252c-0.462,1.636-1.805,2.475-4.068,2.475h-0.504v4.699h0.629c5.706,0,8.894-2.307,9.564-6.922h3.983
		h1.555h28.443v-1.93C291.034,109.938,286.041,103.394,276.435,103.352 M251.265,117.196h-3.398c-2.182,0-3.609-1.804-3.609-4.195
		c0-2.224,1.176-3.944,3.399-3.944c2.139,0,3.608,1.594,3.608,4.069V117.196z"/>
	<rect x="274.421" y="124.916" clip-path="url(#SVGID_2_)" fill="#0069A6" width="5.244" height="4.867"/>
	<rect x="71.312" y="141.275" clip-path="url(#SVGID_2_)" fill="#0069A6" width="5.202" height="4.867"/>
	<rect x="79.2" y="141.274" clip-path="url(#SVGID_2_)" fill="#0069A6" width="5.202" height="4.867"/>
	<rect x="91.784" y="175.257" clip-path="url(#SVGID_2_)" fill="#0069A6" width="5.202" height="4.867"/>
	<rect x="99.671" y="175.257" clip-path="url(#SVGID_2_)" fill="#0069A6" width="5.202" height="4.867"/>
	<rect x="201.98" y="146.141" clip-path="url(#SVGID_2_)" fill="#0069A6" width="5.201" height="4.825"/>
	<rect x="194.051" y="146.141" clip-path="url(#SVGID_2_)" fill="#0069A6" width="5.202" height="4.825"/>
	<path clip-path="url(#SVGID_2_)" fill="#0069A6" d="M210.581,163.594c0-2.979-0.924-5.328-2.728-6.964
		c-1.804-1.679-4.195-2.518-7.132-2.518c-5.832,0-9.482,3.692-9.482,9.524c0,1.384,0.21,2.685,0.673,3.901h-4.739h-1.261h-14.871
		c0-6.167-3.693-9.816-9.818-9.816c-6.083,0-9.523,3.775-9.523,9.816h-3.564h-1.135h-42.213c0.462-1.3,0.672-2.685,0.672-4.237
		v-9.145h-5.916v9.355c0,2.685-0.965,4.027-2.937,4.027H93.8h-1.051h-1.97c-2.852,0-4.279-1.51-4.279-4.279v-13.215
		c-7.468,0-11.202,0-11.202,0.042c-5.537,0-8.684,4.027-8.684,10.279c0,5.789,3.231,10.152,8.265,10.152
		c2.894,0,4.908-0.881,5.957-2.517c1.343,3.44,3.692,5.16,7.049,5.16h4.864H93.8h53.202h1.135h5.284
		c1.762,2.392,4.405,3.608,7.971,3.608c3.483,0,6.125-1.216,7.846-3.608h16.674h1.261h13.8c2.896,0,5.245-0.881,6.965-2.643
		C209.699,168.754,210.581,166.447,210.581,163.594 M80.458,159.902c0,3.44-1.51,5.748-3.985,5.748c-2.349,0-4.028-2.434-4.028-5.37
		c0-3.273,1.762-5.916,4.153-5.916h3.86V159.902z M161.392,171.985c-2.475,0-3.901-2.014-3.901-4.825
		c0-2.727,1.426-4.741,3.565-4.741h0.42c2.475,0,3.734,1.678,3.734,4.993C165.209,170.222,163.783,171.985,161.392,171.985
		 M203.827,166.992c-0.715,0.965-1.68,1.427-2.896,1.427c-1.3,0-2.307-0.504-3.02-1.51c-0.63-0.882-0.924-1.973-0.924-3.357
		c0-1.217,0.294-2.308,0.84-3.188c0.671-1.049,1.595-1.553,2.769-1.553h0.419c2.476,0,3.734,1.637,3.734,4.951
		C204.749,165.062,204.456,166.111,203.827,166.992"/>
	<path clip-path="url(#SVGID_2_)" fill="#0069A6" d="M268.799,173.159h3.899c2.477,0,4.406-0.839,5.79-2.559
		c1.217-1.469,1.846-3.315,1.846-5.538v-18.921h-5.873v17.285c0,2.727-1.007,4.111-2.978,4.111h-2.685h-1.638h-6.081h-1.261h-34.054
		v-13.383h-5.915v15.649c0,3.691-1.931,5.538-5.789,5.538v4.74c6.67,0,10.445-2.307,11.411-6.922h34.347h1.261h6.081H268.799z"/>
	<rect x="284.613" y="146.099" clip-path="url(#SVGID_2_)" fill="#0069A6" width="5.873" height="27.06"/>
	<path clip-path="url(#SVGID_2_)" fill="#00BFD6" d="M281.562,39.879c1.513-0.539,2.61-1.972,2.61-3.671
		c0-2.162-1.751-3.91-3.913-3.91c-2.156,0-3.907,1.748-3.907,3.91c0,1.699,1.094,3.132,2.606,3.671v56.209l2.604-0.792V39.879z"/>
	<path clip-path="url(#SVGID_2_)" fill="#00BFD6" d="M131.955,288.548c-0.244,0.242-0.381,0.575-0.381,0.919v54.686
		c-1.515,0.54-2.608,1.971-2.608,3.672c0,2.16,1.751,3.911,3.908,3.911c2.159,0,3.908-1.751,3.908-3.911
		c0-1.701-1.09-3.132-2.609-3.672v-54.147l15.985-15.984l-3.672-0.003L131.955,288.548z"/>
	<path clip-path="url(#SVGID_2_)" fill="#00BFD6" d="M150.378,288.548c-0.244,0.246-0.38,0.575-0.38,0.922v58.636
		c-1.519,0.538-2.611,1.972-2.611,3.671c0,2.159,1.749,3.91,3.91,3.91c2.157,0,3.908-1.751,3.908-3.91
		c0-1.699-1.094-3.133-2.608-3.671v-58.098l15.825-15.826v75.858c-1.52,0.536-2.611,1.972-2.611,3.671
		c0,2.161,1.751,3.91,3.911,3.91c2.157,0,3.908-1.749,3.908-3.91c0-1.699-1.094-3.135-2.609-3.671v-76.117l-6.071,0.054
		L150.378,288.548z"/>
	<path clip-path="url(#SVGID_2_)" fill="#00BFD6" d="M274,321.891c-0.696,1.453-0.454,3.238,0.748,4.44
		c1.524,1.527,4.003,1.527,5.528,0c1.527-1.526,1.527-4.002,0-5.527c-1.206-1.205-2.992-1.445-4.439-0.753l-46.641-46.638
		l-3.646,0.031L274,321.891z"/>
	<path clip-path="url(#SVGID_2_)" fill="#00BFD6" d="M262.686,329.002c-0.692,1.453-0.454,3.236,0.747,4.44
		c1.53,1.526,4.004,1.526,5.529,0c1.527-1.526,1.527-4.001,0-5.529c-1.202-1.206-2.987-1.444-4.439-0.751l-53.589-53.59
		l-3.644,0.033L262.686,329.002z"/>
	<path clip-path="url(#SVGID_2_)" fill="#00BFD6" d="M252.711,333.772l-51.564-52.157c0.691-1.455,0.45-3.24-0.752-4.442
		c-1.527-1.525-3.999-1.525-5.531,0c-1.524,1.526-1.524,4.003,0,5.529c1.202,1.202,2.993,1.445,4.446,0.75l51.559,52.157
		c-0.69,1.452-0.448,3.24,0.753,4.444c1.53,1.526,4.003,1.526,5.529,0c1.522-1.525,1.522-4.003,0-5.529
		C255.944,333.318,254.163,333.081,252.711,333.772"/>
	<path clip-path="url(#SVGID_2_)" fill="#00BFD6" d="M192.054,289.469c0-2.159-1.751-3.907-3.908-3.907
		c-2.162,0-3.913,1.748-3.913,3.907c0,1.701,1.093,3.135,2.611,3.671v57.139c-1.519,0.54-2.611,1.971-2.611,3.675
		c0,2.157,1.751,3.908,3.913,3.908c2.157,0,3.908-1.751,3.908-3.908c0-1.704-1.091-3.135-2.611-3.675V293.14
		C190.963,292.604,192.054,291.17,192.054,289.469"/>
	<path clip-path="url(#SVGID_2_)" fill="#00BFD6" d="M239.537,339.025l-32.054-32.055c-0.368-0.371-0.925-0.481-1.414-0.28
		c-0.483,0.203-0.803,0.677-0.803,1.201v40.216c-1.514,0.537-2.612,1.973-2.612,3.674c0,2.157,1.755,3.908,3.912,3.908
		c2.162,0,3.909-1.751,3.909-3.908c0-1.701-1.089-3.137-2.607-3.674v-37.076l29.831,29.834c-0.69,1.449-0.448,3.235,0.752,4.441
		c1.526,1.527,4,1.527,5.53,0c1.527-1.525,1.527-4.003,0-5.529C242.775,338.573,240.989,338.333,239.537,339.025"/>
	<path clip-path="url(#SVGID_2_)" fill="#00BFD6" d="M228.902,338.908c0-2.157-1.751-3.908-3.908-3.908
		c-2.162,0-3.913,1.751-3.913,3.908c0,1.704,1.093,3.137,2.61,3.673v1.576c-1.518,0.536-2.61,1.971-2.61,3.67
		c0,2.158,1.751,3.911,3.913,3.911c2.157,0,3.908-1.753,3.908-3.911c0-1.699-1.095-3.134-2.611-3.67v-1.576
		C227.808,342.044,228.902,340.612,228.902,338.908"/>
	<path clip-path="url(#SVGID_2_)" fill="#00BFD6" d="M30.701,93.342c0.691-1.455,0.454-3.24-0.75-4.442
		c-1.528-1.528-4.004-1.528-5.53,0c-1.529,1.526-1.529,4.001,0,5.529c1.204,1.203,2.988,1.442,4.44,0.748l38.31,38.311l3.786,0.109
		L30.701,93.342z"/>
	<path clip-path="url(#SVGID_2_)" fill="#00BFD6" d="M63.387,52.333c0.689-1.451,0.452-3.238-0.752-4.44
		c-1.526-1.529-4.001-1.529-5.529,0c-1.527,1.526-1.527,4.003,0,5.529c1.201,1.202,2.989,1.442,4.444,0.75l41.576,41.577h3.676
		L63.387,52.333z"/>
	<path clip-path="url(#SVGID_2_)" fill="#00BFD6" d="M45.642,71.438c0.694-1.455,0.452-3.24-0.75-4.442
		c-1.526-1.529-4.004-1.529-5.529,0c-1.527,1.526-1.527,4.001,0,5.529c1.203,1.202,2.989,1.442,4.441,0.748L65.115,95.12v-3.673
		L45.642,71.438z"/>
	<path clip-path="url(#SVGID_2_)" fill="#00BFD6" d="M37.81,82.028c0.692-1.453,0.454-3.238-0.752-4.442
		c-1.524-1.527-3.999-1.527-5.527,0c-1.529,1.525-1.529,4.001,0,5.529c1.202,1.202,2.989,1.444,4.44,0.75l25.96,25.758l0.03-3.646
		L37.81,82.028z"/>
	<path clip-path="url(#SVGID_2_)" fill="#00BFD6" d="M54.174,61.543c0.691-1.451,0.454-3.238-0.75-4.44
		c-1.528-1.529-4.006-1.529-5.529,0c-1.529,1.526-1.529,4.001,0,5.529c1.204,1.203,2.987,1.442,4.439,0.751L74.21,85.258h3.679
		L54.174,61.543z"/>
	<path clip-path="url(#SVGID_2_)" fill="#00BFD6" d="M71.44,45.64l23.671,23.668c0.253,0.255,0.583,0.381,0.916,0.381
		s0.666-0.126,0.921-0.381l18.042-18.041h36.307c0.718,0,1.3-0.582,1.3-1.299V9.752c1.515-0.536,2.609-1.969,2.609-3.67
		c0-2.16-1.751-3.911-3.909-3.911c-2.161,0-3.91,1.751-3.91,3.911c0,1.701,1.092,3.134,2.612,3.67v38.915h-35.547
		c-0.344,0-0.675,0.137-0.919,0.381L96.027,66.553l-22.749-22.75c0.691-1.453,0.454-3.237-0.748-4.44
		c-1.528-1.529-4.006-1.529-5.53,0c-1.531,1.526-1.531,4.001,0,5.527C68.202,46.094,69.988,46.333,71.44,45.64"/>
	<path clip-path="url(#SVGID_2_)" fill="#00BFD6" d="M113.152,338.019c-1.52,0.536-2.609,1.97-2.609,3.674
		c0,2.156,1.749,3.907,3.909,3.907c2.159,0,3.908-1.751,3.908-3.907c0-1.704-1.092-3.138-2.609-3.674v-64.028l-2.599-0.002V338.019z
		"/>
	<path clip-path="url(#SVGID_2_)" fill="#00BFD6" d="M171.021,7.818c1.516-0.536,2.609-1.969,2.609-3.67
		c0-2.16-1.751-3.909-3.908-3.909c-2.16,0-3.911,1.749-3.911,3.909c0,1.701,1.092,3.134,2.611,3.67v78.976
		c0.862-0.015,1.734-0.03,2.599-0.044V7.818z"/>
	<path clip-path="url(#SVGID_2_)" fill="#00BFD6" d="M263.14,28.426c1.513-0.539,2.605-1.972,2.605-3.671
		c0-2.16-1.751-3.91-3.908-3.91s-3.913,1.75-3.913,3.91c0,1.699,1.1,3.132,2.611,3.671v68.766l2.604,2.455V28.426z"/>
	<path clip-path="url(#SVGID_2_)" fill="#00BFD6" d="M299.983,54.965c1.518-0.536,2.61-1.972,2.61-3.673
		c0-2.159-1.751-3.908-3.913-3.908c-2.156,0-3.907,1.749-3.907,3.908c0,1.701,1.094,3.137,2.606,3.673l-0.043,54.208l2.604,2.603
		L299.983,54.965z"/>
	<path clip-path="url(#SVGID_2_)" fill="#00BFD6" d="M7.582,196.053c-0.534-1.518-1.97-2.611-3.671-2.611
		c-2.157,0-3.91,1.751-3.91,3.909c0,2.161,1.753,3.912,3.91,3.912c1.701,0,3.137-1.094,3.671-2.611h52.227l0.062-2.599H7.582z"/>
	<path clip-path="url(#SVGID_2_)" fill="#00BFD6" d="M43.67,284.718c-1.452-0.694-3.238-0.454-4.442,0.748
		c-1.529,1.53-1.529,4.003,0,5.532c1.526,1.525,4.002,1.525,5.527,0c1.205-1.204,1.444-2.99,0.751-4.443l21.201-20.362l-0.871-2.805
		L43.67,284.718z"/>
	<path clip-path="url(#SVGID_2_)" fill="#00BFD6" d="M52.334,294.476c-1.452-0.692-3.235-0.454-4.439,0.75
		c-1.529,1.526-1.529,4.001,0,5.527c1.523,1.53,4.001,1.53,5.529,0c1.204-1.201,1.441-2.987,0.75-4.44l22.357-22.355l-3.674-0.003
		L52.334,294.476z"/>
	<path clip-path="url(#SVGID_2_)" fill="#00BFD6" d="M61.545,303.689c-1.452-0.693-3.238-0.453-4.442,0.753
		c-1.526,1.525-1.526,4.001,0,5.527c1.526,1.528,4.004,1.528,5.53,0c1.202-1.202,1.439-2.99,0.752-4.442l31.343-31.346v14.748
		l-23.288,23.29c-1.456-0.693-3.241-0.454-4.445,0.748c-1.526,1.53-1.526,4.003,0,5.532c1.529,1.522,4.006,1.526,5.529,0
		c1.205-1.205,1.443-2.99,0.753-4.443l23.67-23.666c0.243-0.246,0.381-0.575,0.381-0.921v-15.495l-6.061-0.005L61.545,303.689z"/>
	<path clip-path="url(#SVGID_2_)" fill="#00BFD6" d="M97.329,329.438v-21.547c0-0.524-0.317-0.998-0.805-1.201
		c-0.486-0.201-1.046-0.091-1.413,0.28l-13.083,13.081c-1.45-0.691-3.236-0.454-4.439,0.75c-1.53,1.528-1.53,4.003,0,5.53
		c1.527,1.528,4.001,1.528,5.529,0c1.204-1.202,1.441-2.988,0.748-4.44l10.862-10.86v18.407c-1.519,0.535-2.609,1.969-2.609,3.672
		c0,2.157,1.747,3.908,3.908,3.908c2.157,0,3.911-1.751,3.911-3.908C99.938,331.407,98.845,329.973,97.329,329.438"/>
	<path clip-path="url(#SVGID_2_)" fill="#00BFD6" d="M262.455,297.973c0.158,0.065,0.327,0.098,0.497,0.098
		c0.337,0,0.67-0.132,0.916-0.378l14.608-13.813c1.453,0.695,3.239,0.452,4.445-0.749c1.525-1.526,1.525-4.004,0-5.53
		c-1.53-1.525-4.003-1.525-5.529,0c-1.207,1.202-1.449,2.992-0.753,4.442l-12.387,11.589v-15.285c0-0.718-0.584-1.302-1.301-1.302
		h-14.753c-0.535-1.515-1.972-2.608-3.671-2.608c-2.16,0-3.911,1.751-3.911,3.91s1.751,3.91,3.911,3.91
		c1.699,0,3.136-1.094,3.671-2.61h13.45v17.125C261.649,297.296,261.971,297.771,262.455,297.973"/>
	<path clip-path="url(#SVGID_2_)" fill="#00BFD6" d="M296.296,303.664l-15.115-15.115c-0.372-0.372-0.935-0.481-1.418-0.28
		c-0.488,0.2-0.804,0.677-0.804,1.201v18.423c0,0.346,0.138,0.674,0.385,0.921l5.113,5.114c-0.69,1.452-0.453,3.238,0.752,4.44
		c1.526,1.53,4,1.53,5.53,0c1.526-1.526,1.526-4.001,0-5.528c-1.202-1.204-2.992-1.441-4.444-0.75l-4.733-4.735v-14.745
		l12.892,12.892c-0.691,1.453-0.449,3.239,0.752,4.443c1.527,1.525,4.004,1.523,5.529,0c1.527-1.529,1.527-4.002,0-5.532
		C299.528,303.209,297.743,302.969,296.296,303.664"/>
	<path clip-path="url(#SVGID_2_)" fill="#00BFD6" d="M350.321,158.613c-1.207,1.202-1.444,2.989-0.753,4.44l-33.382,33.381
		c-0.366,0.372-0.479,0.929-0.28,1.418c0.198,0.484,0.675,0.8,1.197,0.8h18.427c0.346,0,0.675-0.136,0.921-0.38l15.823-15.828
		c1.452,0.693,3.238,0.454,4.44-0.748c1.526-1.529,1.526-4.004,0-5.53c-1.526-1.526-3.999-1.526-5.526,0
		c-1.2,1.204-1.442,2.988-0.752,4.44l-15.446,15.448h-14.747l31.163-31.165c1.451,0.697,3.237,0.454,4.438-0.747
		c1.532-1.527,1.532-4.004,0-5.53C354.32,157.087,351.846,157.087,350.321,158.613"/>
	<path clip-path="url(#SVGID_2_)" fill="#00BFD6" d="M152.597,63.66c0-0.718-0.582-1.299-1.3-1.299h-36.846
		c-0.717,0-1.299,0.581-1.299,1.299v14.751c-1.52,0.539-2.61,1.972-2.61,3.673c0,2.159,1.749,3.909,3.909,3.909
		s3.909-1.75,3.909-3.909c0-1.701-1.092-3.134-2.61-3.673V64.959h34.248v38.29l2.599,3.359V63.66z"/>
	<path clip-path="url(#SVGID_2_)" fill="#00BFD6" d="M244.713,31.543c0-0.344-0.14-0.675-0.382-0.919l-19.985-19.989
		c0.686-1.453,0.448-3.238-0.753-4.443c-1.526-1.526-4.003-1.526-5.529,0c-1.527,1.529-1.527,4.004,0,5.53
		c1.202,1.204,2.987,1.444,4.439,0.752l19.61,19.607V98.29c0.816-0.789,1.752-1.703,2.6-2.545V31.543z"/>
	<path clip-path="url(#SVGID_2_)" fill="#00BFD6" d="M189.441,86.273V7.581c1.521-0.538,2.611-1.972,2.611-3.673
		c0-2.157-1.751-3.908-3.908-3.908c-2.162,0-3.913,1.751-3.913,3.908c0,1.701,1.095,3.135,2.611,3.673v79.233
		c0,0.344,0.139,0.675,0.381,0.919l3.911,3.911v-3.677L189.441,86.273z"/>
	<path clip-path="url(#SVGID_2_)" fill="#00BFD6" d="M209.334,28.778c-1.53-1.526-4.004-1.526-5.529,0
		c-1.527,1.528-1.527,4.003,0,5.53c1.202,1.201,2.986,1.444,4.439,0.752l15.828,15.826c0.25,0.248,0.579,0.38,0.921,0.38
		c0.164,0,0.333-0.032,0.497-0.099c0.485-0.201,0.8-0.675,0.8-1.2V31.543c0-0.344-0.139-0.675-0.381-0.919l-15.822-15.828
		c0.687-1.45,0.448-3.238-0.753-4.44c-1.53-1.529-4.004-1.529-5.529,0c-1.527,1.526-1.527,4.001,0,5.529
		c1.202,1.203,2.986,1.442,4.439,0.751l15.447,15.445v14.747L210.087,33.22C210.773,31.769,210.535,29.982,209.334,28.778"/>
	<path clip-path="url(#SVGID_2_)" fill="#00BFD6" d="M208.245,53.48l13.229,13.232c-0.691,1.453-0.449,3.238,0.752,4.442
		c1.527,1.529,3.999,1.529,5.531,0c1.525-1.526,1.525-4.001,0-5.529c-1.206-1.202-2.992-1.442-4.445-0.75l-13.225-13.232
		c0.687-1.453,0.449-3.239-0.753-4.44c-1.53-1.529-4.003-1.529-5.529,0c-1.527,1.526-1.527,4.001,0,5.529
		C205.007,53.934,206.792,54.174,208.245,53.48"/>
	<path clip-path="url(#SVGID_2_)" fill="#00BFD6" d="M208.245,71.904l13.229,13.232c-0.691,1.453-0.449,3.24,0.752,4.44
		c1.527,1.529,3.999,1.529,5.531,0c1.525-1.524,1.525-4.001,0-5.529c-1.206-1.2-2.992-1.442-4.445-0.748l-13.225-13.232
		c0.687-1.453,0.449-3.241-0.753-4.443c-1.53-1.526-4.003-1.526-5.529,0c-1.527,1.529-1.527,4.004,0,5.53
		C205.007,72.356,206.792,72.598,208.245,71.904"/>
	<path clip-path="url(#SVGID_2_)" fill="#00BFD6" d="M315.431,237.714c1.452,0.691,3.237,0.453,4.439-0.75
		c1.527-1.526,1.527-4.001,0-5.527c-1.526-1.527-3.999-1.531-5.529,0c-1.201,1.201-1.443,2.987-0.748,4.439l-17.418,17.414
		l1.737,1.941L315.431,237.714z"/>
	<path clip-path="url(#SVGID_2_)" fill="#00BFD6" d="M345.046,230.291c-1.703,0-3.135,1.094-3.671,2.609h-5.846
		c-0.345,0-0.673,0.139-0.917,0.381l-15.827,15.825c-1.453-0.691-3.237-0.451-4.443,0.753c-1.526,1.525-1.526,4.001,0,5.529
		c1.529,1.526,4.003,1.526,5.528,0c1.202-1.204,1.445-2.989,0.752-4.44l15.444-15.447h5.309c0.536,1.515,1.968,2.607,3.671,2.607
		c2.156,0,3.908-1.749,3.908-3.909C348.954,232.042,347.202,230.291,345.046,230.291"/>
	<path clip-path="url(#SVGID_2_)" fill="#00BFD6" d="M324.104,272.344c0.535,1.519,1.968,2.611,3.671,2.611
		c2.156,0,3.907-1.751,3.907-3.91c0-2.16-1.751-3.911-3.907-3.911c-1.703,0-3.136,1.095-3.671,2.609H291.38l-2.202,2.601H324.104z"
		/>
	<path clip-path="url(#SVGID_2_)" fill="#00BFD6" d="M297.381,289.469c0,0.347,0.138,0.675,0.385,0.922l5.923,5.923
		c-0.688,1.455-0.45,3.24,0.752,4.444c1.526,1.525,4.003,1.525,5.53,0c1.525-1.528,1.525-4.004,0-5.529
		c-1.206-1.207-2.987-1.445-4.441-0.753l-5.546-5.547v-17.396l-2.603,0.104V289.469z"/>
	<path clip-path="url(#SVGID_2_)" fill="#00BFD6" d="M318.025,143.001c0.245-0.242,0.38-0.573,0.38-0.917V75.167
		c1.517-0.539,2.61-1.972,2.61-3.673c0-2.158-1.751-3.911-3.912-3.911c-2.157,0-3.908,1.753-3.908,3.911
		c0,1.701,1.094,3.134,2.61,3.673v66.377l-18.479,17.916l0.113,3.562L318.025,143.001z"/>
	<path clip-path="url(#SVGID_2_)" fill="#00BFD6" d="M7.655,145.993c1.699,0,3.134-1.094,3.67-2.611h29.432
		c0.525,0,1.003-0.316,1.202-0.8c0.201-0.487,0.089-1.047-0.282-1.419l-22.839-22.84c0.691-1.451,0.451-3.236-0.75-4.44
		c-1.527-1.526-4.002-1.526-5.531,0c-1.526,1.526-1.526,4.004,0,5.529c1.204,1.203,2.993,1.445,4.443,0.748l20.621,20.623H11.325
		c-0.536-1.517-1.971-2.609-3.67-2.609c-2.162,0-3.913,1.749-3.913,3.911C3.742,144.242,5.493,145.993,7.655,145.993"/>
	<path clip-path="url(#SVGID_2_)" fill="#00BFD6" d="M82.028,37.806l13.083,13.081c0.246,0.248,0.579,0.38,0.916,0.38
		c0.169,0,0.335-0.032,0.497-0.1c0.487-0.2,0.805-0.674,0.805-1.199V28.427c1.515-0.539,2.609-1.972,2.609-3.671
		c0-2.16-1.754-3.91-3.911-3.91c-2.161,0-3.908,1.75-3.908,3.91c0,1.699,1.09,3.132,2.609,3.671v18.402L83.866,35.971
		c0.693-1.455,0.456-3.238-0.748-4.443c-1.528-1.528-4.002-1.528-5.529,0c-1.53,1.527-1.53,4.002,0,5.53
		C78.792,38.26,80.578,38.5,82.028,37.806"/>
	<path clip-path="url(#SVGID_2_)" fill="#00BFD6" d="M113.152,19.842v11.702c0,0.717,0.582,1.298,1.3,1.298h18.422
		c0.717,0,1.299-0.581,1.299-1.298V13.709c1.519-0.538,2.609-1.971,2.609-3.673c0-2.159-1.749-3.908-3.908-3.908
		c-2.158,0-3.909,1.749-3.909,3.908c0,1.702,1.094,3.135,2.609,3.673v16.535h-15.823V19.842c1.517-0.538,2.609-1.969,2.609-3.67
		c0-2.16-1.749-3.911-3.908-3.911c-2.16,0-3.909,1.751-3.909,3.911C110.543,17.873,111.632,19.304,113.152,19.842"/>
	<path clip-path="url(#SVGID_2_)" fill="#00BFD6" d="M11.764,214.476c-0.536-1.519-1.97-2.611-3.669-2.611
		c-2.161,0-3.912,1.751-3.912,3.912c0,2.158,1.751,3.908,3.912,3.908c1.699,0,3.133-1.094,3.669-2.611h48.044l0.062-2.598H11.764z"
		/>
	<path clip-path="url(#SVGID_2_)" fill="#00BFD6" d="M42.058,251.322v-17.123c0-0.717-0.581-1.299-1.302-1.299H22.332
		c-0.717,0-1.296,0.582-1.296,1.299V253.5c-1.518,0.536-2.612,1.97-2.612,3.671c0,2.159,1.751,3.91,3.908,3.91
		c2.163,0,3.911-1.751,3.911-3.91c0-1.701-1.091-3.135-2.609-3.671v-18h15.823v17.12c0,0.718,0.582,1.302,1.299,1.302l25.772,0.255
		l-0.83-2.601L42.058,251.322z"/>
	<path clip-path="url(#SVGID_2_)" fill="#00BFD6" d="M48.558,274.956c2.157,0,3.908-1.751,3.908-3.91s-1.751-3.91-3.908-3.91
		c-1.703,0-3.134,1.093-3.67,2.608H33.761c-0.538-1.516-1.972-2.608-3.67-2.608c-2.162,0-3.911,1.751-3.911,3.91
		s1.749,3.91,3.911,3.91c1.698,0,3.132-1.094,3.67-2.61h11.127C45.424,273.862,46.855,274.956,48.558,274.956"/>
	<path clip-path="url(#SVGID_2_)" fill="#00BFD6" d="M247.181,93.065c-0.004-0.001-0.003-0.007-0.008-0.007
		C247.155,93.059,247.161,93.062,247.181,93.065"/>
	<polygon clip-path="url(#SVGID_2_)" fill="#00BFD6" points="299.983,273.079 300.604,272.344 299.983,272.344 	"/>
	<path clip-path="url(#SVGID_2_)" fill="#00BFD6" d="M24.358,105.421c0.694-1.452,0.452-3.238-0.75-4.442
		c-1.528-1.526-4.004-1.526-5.532,0c-1.524,1.528-1.524,4.004,0,5.53c1.204,1.202,2.992,1.444,4.445,0.752l40.354,40.33v-3.676
		L24.358,105.421z"/>
	<path clip-path="url(#SVGID_2_)" fill="#00BFD6" d="M8.541,159.205c-0.536-1.517-1.972-2.609-3.67-2.609
		c-2.157,0-3.911,1.749-3.911,3.91c0,2.158,1.754,3.911,3.911,3.911c1.698,0,3.134-1.096,3.67-2.609h51.032v-2.603H8.541z"/>
	<path clip-path="url(#SVGID_2_)" fill="#00BFD6" d="M7.582,177.627c-0.534-1.518-1.97-2.607-3.671-2.607
		c-2.157,0-3.911,1.751-3.911,3.908c0,2.161,1.754,3.91,3.911,3.91c1.701,0,3.137-1.095,3.671-2.608H58.66v-2.603H7.582z"/>
	<path clip-path="url(#SVGID_2_)" fill="#00BFD6" d="M292.335,201.863v3.676l56.711-56.71c1.451,0.692,3.237,0.454,4.443-0.748
		c1.522-1.531,1.522-4.004,0-5.532c-1.525-1.526-4.004-1.526-5.534,0c-1.196,1.205-1.438,2.988-0.748,4.443"/>
	<path clip-path="url(#SVGID_2_)" fill="#00BFD6" d="M336.451,143.001c0.241-0.242,0.381-0.573,0.381-0.917v-37.722
		c1.513-0.538,2.605-1.968,2.605-3.67c0-2.158-1.751-3.909-3.908-3.909c-2.16,0-3.907,1.751-3.907,3.909
		c0,1.702,1.09,3.132,2.606,3.67v37.182l-38.427,38.879l-0.201,3.877L336.451,143.001z"/>
	<path clip-path="url(#SVGID_2_)" fill="#00BFD6" d="M355.643,195.66c-1.525-1.525-3.999-1.525-5.529,0
		c-1.202,1.207-1.444,2.991-0.748,4.444l-14.375,14.372h-34.563v2.598h35.104c0.345,0,0.675-0.134,0.921-0.381l14.752-14.751
		c1.452,0.692,3.238,0.454,4.439-0.752C357.168,199.664,357.168,197.188,355.643,195.66"/>
</g>
</svg>
