<svg xmlns="http://www.w3.org/2000/svg" width="451.17" height="324.216" viewBox="0 0 451.17 324.216">
  <path id="Path_11" data-name="Path 11" d="M308.478,168.915c-21.654,3.051-43.245,11.594-58.047,27.692-17.231,18.735-23.208,44.991-27.292,70.116a777.084,777.084,0,0,0-9.249,89.114c-1.527,33.391.3,70.134,22.641,94.994,19.079,21.231,49.516,28.93,78.049,28.048s56.237-9.138,84.194-14.89a485.158,485.158,0,0,1,132.834-8.654c19.573,1.425,39.222,4.041,58.745,2.055s39.394-9.208,52.094-24.168c11.982-14.113,16.13-33.16,18.609-51.507a403.107,403.107,0,0,0-6.546-143.59c-3.711-16.2-8.513-32.369-16.989-46.669s-20.974-26.711-36.565-32.48c-16.536-6.122-34.81-4.35-52.348-2.5-43.157,0-88.364,9.348-131.316,13.891C380.5,174.264,345.279,163.727,308.478,168.915Z" transform="translate(-213.484 -154.732)" fill="#fa0" opacity="0.89"/>
</svg>
