<?xml version="1.0" encoding="utf-8"?>
<!-- Generator: Adobe Illustrator 16.0.0, SVG Export Plug-In . SVG Version: 6.00 Build 0)  -->
<!DOCTYPE svg PUBLIC "-//W3C//DTD SVG 1.1 Tiny//EN" "http://www.w3.org/Graphics/SVG/1.1/DTD/svg11-tiny.dtd">
<svg version="1.1" baseProfile="tiny" id="Layer_1" xmlns="http://www.w3.org/2000/svg" xmlns:xlink="http://www.w3.org/1999/xlink"
	 x="0px" y="0px" width="409.6px" height="387.591px" viewBox="0 0 409.6 387.591" xml:space="preserve" fill="#0069a7">
<g>
	<path fill="none" d="M220.767,33.885c-1.384-0.04-4.789,0.324-6.935,3.835c-0.41,0.672-0.676,0.931-2.742,3.586l98.431,170.484
		c2.792-0.522,3.296-0.718,4.386-0.746c6.078-0.146,9.762-6.746,6.731-11.991L227.586,37.881
		C225.535,34.322,222.133,33.901,220.767,33.885z"/>
	<polygon fill="none" points="279.906,96.497 298.961,129.51 308.82,114.575 297.767,95.428 	"/>
	<path fill="none" d="M90.93,294.298l40,69.289c4.371,7.574,14.164,10.306,21.855,5.86c7.664-4.43,10.281-14.211,5.863-21.856
		c-0.746-1.284,6.29,10.902-40.003-69.293L90.93,294.298z"/>
	
		<rect x="135.428" y="265.227" transform="matrix(-0.5 -0.866 0.866 -0.5 -21.479 534.0512)" fill="none" width="16" height="15.999"/>
	<polygon fill="none" points="110.914,168.915 153.353,242.419 292.922,215.044 200.445,54.868 	"/>
	<path fill="none" d="M98.355,179.161l-62.351,36c-12.34,7.125-20.012,20.411-20.012,34.68c0,6.981,1.86,13.884,5.371,19.962
		c11.028,19.099,35.535,25.668,54.641,14.645l62.351-36.003L98.355,179.161z M81.859,262.588l-13.855,8
		c-11.512,6.641-26.199,2.621-32.785-8.784c-2.211-3.825-0.899-8.72,2.929-10.932c3.825-2.207,8.719-0.894,10.926,2.932
		c2.207,3.814,7.11,5.132,10.93,2.925l13.855-8c3.825-2.207,8.719-0.895,10.93,2.929C86.996,255.485,85.684,260.377,81.859,262.588z
		 M109.57,246.587c-3.824,2.207-8.718,0.896-10.925-2.93c-2.211-3.82-0.899-8.717,2.925-10.928c3.828-2.204,8.719-0.893,10.93,2.928
		C114.708,239.483,113.398,244.38,109.57,246.587z"/>
	<path d="M112.5,235.657c-2.211-3.82-7.102-5.132-10.93-2.928c-3.824,2.211-5.136,7.107-2.925,10.928
		c2.207,3.826,7.101,5.137,10.925,2.93C113.398,244.38,114.708,239.483,112.5,235.657z"/>
	<path d="M270.961,81.01l-29.516-51.125c-4.273-7.407-11.933-11.892-20.484-12h-0.305c-8.261,0-15.761,4.108-20.207,11.062
		L95.945,162.079l-67.941,39.228C1.281,216.729-7.977,251.009,7.508,277.803c14.14,24.5,43.961,34.138,69.281,24l40.285,69.784
		c8.696,15.074,28.25,20.656,43.715,11.716c15.305-8.845,20.563-28.398,11.711-43.716l-24-41.573l20.785-12
		c3.824-2.211,5.137-7.103,2.926-10.927l-10.402-18.018c1.242-0.244,9.398-1.84,153.23-30.061
		c17.781-0.965,28.438-20.409,19.453-35.956l-26.586-46.051l16.992-25.735c1.668-2.531,1.766-5.784,0.25-8.409l-16-27.711
		c-1.516-2.625-4.391-4.164-7.406-3.986L270.961,81.01z M76.004,284.447c-19.106,11.023-43.613,4.454-54.641-14.645
		c-3.511-6.078-5.371-12.98-5.371-19.962c0-14.269,7.672-27.555,20.012-34.68l62.351-36l40,69.283L76.004,284.447z M158.648,347.591
		c4.418,7.646,1.801,17.427-5.863,21.856c-7.691,4.445-17.484,1.714-21.855-5.86l-40-69.289l27.715-16
		C164.938,358.493,157.902,346.307,158.648,347.591z M140.5,284.154l-8-13.856l13.855-8l8,13.856L140.5,284.154z M153.353,242.419
		l-42.438-73.504l89.531-114.047l92.477,160.176L153.353,242.419z M320.638,199.053c3.03,5.245-0.653,11.845-6.731,11.991
		c-1.09,0.028-1.594,0.224-4.386,0.746L211.09,41.306c2.066-2.655,2.332-2.914,2.742-3.586c2.146-3.511,5.551-3.875,6.935-3.835
		c1.366,0.016,4.769,0.437,6.819,3.996L320.638,199.053z M308.82,114.575l-9.859,14.935l-19.055-33.013l17.86-1.069L308.82,114.575z
		"/>
	<path d="M73.859,248.729l-13.855,8c-3.82,2.207-8.723,0.89-10.93-2.925c-2.207-3.825-7.101-5.139-10.926-2.932
		c-3.828,2.212-5.14,7.106-2.929,10.932c6.586,11.405,21.273,15.425,32.785,8.784l13.855-8c3.825-2.211,5.137-7.103,2.93-10.931
		C82.578,247.834,77.684,246.521,73.859,248.729z"/>
	<path d="M397.711,34.993l-44.578,24.809c-3.86,2.148-5.25,7.019-3.102,10.879c2.145,3.859,7.012,5.254,10.883,3.101l44.574-24.804
		c3.864-2.153,5.25-7.024,3.098-10.883C406.44,34.232,401.57,32.845,397.711,34.993z"/>
	<path d="M388.898,133.306c4.293,1.152,8.658-1.422,9.797-5.656c1.141-4.27-1.389-8.657-5.66-9.797l-30.91-8.282
		c-4.27-1.144-8.655,1.387-9.801,5.657c-1.143,4.265,1.391,8.652,5.66,9.797L388.898,133.306z"/>
	<path d="M312.728,46.643c4.265,1.14,8.651-1.383,9.796-5.657l8.289-30.914c1.145-4.265-1.387-8.656-5.656-9.796
		c-4.265-1.145-8.652,1.386-9.797,5.656l-8.289,30.91C305.926,41.11,308.457,45.494,312.728,46.643z"/>
</g>
</svg>
