<svg xmlns="http://www.w3.org/2000/svg" width="67.19" height="63.821" viewBox="0 0 67.19 63.821">
  <g id="Group_108" data-name="Group 108" transform="translate(481.384 -199.63)">
    <path id="Path_480" data-name="Path 480" d="M-400.661,238.309v-.919q0-16.964-.005-33.928a3.875,3.875,0,0,1,.691-2.522,3.37,3.37,0,0,1,3.592-1.177,3.3,3.3,0,0,1,2.4,2.988c.02.34.016.682.016,1.023q0,16.807,0,33.613v1.138c.335-.311.537-.487.727-.677q5.087-5.1,10.171-10.2a3.314,3.314,0,0,1,3.8-.9,3.346,3.346,0,0,1,1.424,5.165,7.3,7.3,0,0,1-.641.692q-8.043,8.045-16.089,16.087c-1.818,1.816-3.659,1.816-5.471,0q-8.157-8.153-16.309-16.311a3.361,3.361,0,0,1,.425-5.354,3.359,3.359,0,0,1,4.363.616q4.152,4.142,8.282,8.307c.811.816,1.6,1.649,2.407,2.475Z" transform="translate(-50.461)" fill="#fff"/>
    <path id="Path_481" data-name="Path 481" d="M-447.776,477.8q-15,0-30,0a3.354,3.354,0,0,1-3.381-4.512,3.294,3.294,0,0,1,2.988-2.2c.26-.025.525-.013.787-.013q29.607,0,59.214.008a5.9,5.9,0,0,1,1.707.2,3.3,3.3,0,0,1,2.232,3.71,3.368,3.368,0,0,1-3.072,2.8c-.287.02-.577.011-.866.011Z" transform="translate(0 -214.35)" fill="#fff"/>
  </g>
</svg>
