<?xml version="1.0" encoding="utf-8"?>
<!-- Generator: Adobe Illustrator 22.0.1, SVG Export Plug-In . SVG Version: 6.00 Build 0)  -->
<svg version="1.0" id="Layer_1" xmlns="http://www.w3.org/2000/svg" xmlns:xlink="http://www.w3.org/1999/xlink" x="0px" y="0px"
	 viewBox="0 0 676 675" enable-background="new 0 0 676 675" xml:space="preserve">
	 
	 <style>	
		.path_ {
		
			stroke-dasharray: 712;
			stroke-dashoffset: 712;
			-webkit-animation: loader_path 1s linear infinite alternate;
			        animation: loader_path 1s linear infinite alternate
			
		}
		
		@-webkit-keyframes loader_path {		  
		  75%,to {
			stroke-dashoffset:0
		  
		  }
		}
		
		@keyframes loader_path {		  
		  95%,to {
			stroke-dashoffset:0
		  
		  }
		} 
		
		.path_:nth-child(1) {
			-webkit-animation-delay:.2s;
			        animation-delay:.2s;
		}
		.path_:nth-child(1) {
			-webkit-animation-delay:.2s;
			        animation-delay:.2s;
		}
		
	 </style>
<g>
	<g>
		<path class="path_" fill="none" stroke="#0069A7" stroke-width="2.3593" stroke-miterlimit="10" d="M173.219,382.448
			c0-16.108-10.643-25.528-25.169-25.528h-18.265v50.984h18.193C162.505,407.904,173.219,398.556,173.219,382.448z M139.709,398.699
			v-32.575h7.982c8.342,0,15.245,5.25,15.245,16.324c0,11.074-6.975,16.252-15.317,16.252H139.709z"/>
		
		<rect class="path_"  x="203.442" y="356.919" fill="none" stroke="#0069A7" stroke-width="2.3593" stroke-miterlimit="10" width="10.068" height="50.984"/>
		<path  class="path_" fill="none" stroke="#0069A7" stroke-width="2.3593" stroke-miterlimit="10" d="M265.92,365.117
			c8.27,0,12.512,5.249,13.807,9.78l9.492-3.38c-2.517-7.838-9.923-15.676-23.299-15.676c-13.807,0-26.103,10.139-26.103,26.607
			c0,16.467,11.721,26.535,25.456,26.535c7.694,0,12.728-3.452,15.03-6.903l0.647,5.825h8.054v-26.535h-25.456v8.629h16.108
			c-0.576,3.595-4.243,9.923-13.663,9.923c-8.557,0-16.108-5.968-16.108-17.474C249.884,370.366,258.226,365.117,265.92,365.117z"/>
		
			<rect class="path_"  x="321.897" y="356.919" fill="none" stroke="#0069A7" stroke-width="2.3593" stroke-miterlimit="10" width="10.068" height="50.984"/>
		<polygon  class="path_" fill="none" stroke="#0069A7" stroke-width="2.3593" stroke-miterlimit="10" points="361.836,366.34 377.944,366.34 
			377.944,407.904 387.939,407.904 387.939,366.34 404.047,366.34 404.047,356.919 361.836,356.919 		"/>
		<path  class="path_"  fill="none" stroke="#0069A7" stroke-width="2.3593" stroke-miterlimit="10" d="M448.918,356.919l-19.56,50.984h10.499
			l4.243-11.649h20.71l4.242,11.649h10.787l-19.416-50.984H448.918z M447.408,387.194l7.047-19.272l7.047,19.272H447.408z"/>
		<polygon class="path_"  fill="none" stroke="#0069A7" stroke-width="2.3593" stroke-miterlimit="10" points="514.499,356.919 514.499,407.904 
			547.146,407.904 547.146,398.412 524.422,398.412 524.422,356.919 		"/>
		<polygon class="path_"  fill="none" stroke="#0069A7" stroke-width="2.3593" stroke-miterlimit="10" points="182.782,478.454 171.42,443.218 
			161.137,443.218 149.847,478.31 140.499,443.218 130,443.218 144.166,494.203 154.521,494.203 166.171,457.888 177.82,494.203 
			188.032,494.203 202.126,443.218 191.987,443.218 		"/>
		<polygon class="path_"  fill="none" stroke="#0069A7" stroke-width="2.3593" stroke-miterlimit="10" points="209.538,494.203 241.465,494.203 
			241.465,484.854 219.461,484.854 219.461,473.061 239.38,473.061 239.38,464.216 219.461,464.216 219.461,452.566 
			241.465,452.566 241.465,443.218 209.538,443.218 		"/>
		<polygon  class="path_" fill="none" stroke="#0069A7" stroke-width="2.3593" stroke-miterlimit="10" points="262.033,443.218 252.11,443.218 
			252.11,494.203 284.757,494.203 284.757,484.711 262.033,484.711 		"/>
		<polygon class="path_"  fill="none" stroke="#0069A7" stroke-width="2.3593" stroke-miterlimit="10" points="303.024,443.218 293.101,443.218 
			293.101,494.203 325.748,494.203 325.748,484.711 303.024,484.711 		"/>
		<path  class="path_" fill="none" stroke="#0069A7" stroke-width="2.3593" stroke-miterlimit="10" d="M360.554,467.883
			c4.243-1.438,7.407-5.681,7.407-10.931c0-7.91-5.609-13.735-15.533-13.735h-18.337v50.985h19.703
			c9.564,0,15.749-5.968,15.749-14.239C369.543,473.636,365.516,469.106,360.554,467.883z M343.871,451.56h6.975
			c4.818,0,7.335,2.445,7.335,6.328c0,3.883-2.732,6.4-7.263,6.4h-7.047V451.56z M351.925,485.933h-8.054v-13.447h8.198
			c4.961,0,7.55,2.804,7.55,6.831C359.62,483.416,356.743,485.933,351.925,485.933z"/>
		<polygon class="path_"  fill="none" stroke="#0069A7" stroke-width="2.3593" stroke-miterlimit="10" points="378.678,494.203 410.606,494.203 
			410.606,484.854 388.602,484.854 388.602,473.061 408.521,473.061 408.521,464.216 388.602,464.216 388.602,452.566 
			410.606,452.566 410.606,443.218 378.678,443.218 		"/>
		
			<rect x="421.25" y="443.218" fill="none" stroke="#0069A7" stroke-width="2.3593" stroke-miterlimit="10" width="10.068" height="50.985"/>
		<polygon class="path_"  fill="none" stroke="#0069A7" stroke-width="2.3593" stroke-miterlimit="10" points="477.269,476.944 456.055,443.218 
			443.687,443.218 443.687,494.203 453.61,494.203 453.61,458.032 476.766,494.203 487.192,494.203 487.192,443.218 
			477.269,443.218 		"/>
		<path class="path_"  fill="none" stroke="#0069A7" stroke-width="2.3593" stroke-miterlimit="10" d="M522.647,451.416
			c8.27,0,12.512,5.249,13.807,9.78l9.492-3.38c-2.517-7.838-9.923-15.676-23.299-15.676c-13.807,0-26.103,10.139-26.103,26.607
			c0,16.468,11.721,26.535,25.456,26.535c7.694,0,12.728-3.452,15.03-6.904l0.647,5.825h8.054v-26.535h-25.456v8.629h16.108
			c-0.576,3.595-4.243,9.924-13.663,9.924c-8.557,0-16.108-5.969-16.108-17.475C506.611,456.665,514.953,451.416,522.647,451.416z"
			/>
		<path class="path_"  fill="none" stroke="#0069A7" stroke-width="2.3593" stroke-miterlimit="10" d="M147.666,233.276
			c5.712,0,10.33-1.722,13.773-5.165c3.443-3.444,5.165-7.982,5.165-13.695c0-5.869-1.8-10.409-5.322-13.695
			c-3.522-3.365-8.217-5.008-14.008-5.008c-5.712,0-10.252,1.722-13.616,5.087c-3.365,3.365-5.087,7.982-5.087,13.695
			c0,5.713,1.722,10.33,5.165,13.695C137.257,231.554,141.875,233.276,147.666,233.276z M147.353,204.007
			c5.869,0,8.765,3.6,8.765,10.8c0,2.895-0.705,5.322-2.113,7.122c-1.565,2.035-3.756,2.974-6.652,2.974
			c-2.739,0-4.93-0.939-6.417-2.974c-1.409-1.8-2.113-4.226-2.113-7.122C138.823,207.607,141.64,204.007,147.353,204.007z"/>
		
			<rect class="path_"  x="149.935" y="180.608" fill="none" stroke="#0069A7" stroke-width="2.3593" stroke-miterlimit="10" width="9.704" height="8.999"/>
		
			<rect class="path_"  x="135.145" y="180.608" fill="none" stroke="#0069A7" stroke-width="2.3593" stroke-miterlimit="10" width="9.704" height="8.999"/>
		<path class="path_"  fill="none" stroke="#0069A7" stroke-width="2.3593" stroke-miterlimit="10" d="M187.887,233.276h8.919h1.411h31.924h1.881
			h58.53h3.448h6.882c4.617,0,8.217-1.565,10.8-4.774c2.269-2.739,3.443-6.182,3.443-10.33v-35.294h-10.956v32.242
			c0,5.087-1.878,7.669-5.557,7.669h-4.612h-3.448h-4.847c-1.331-11.582-6.261-19.329-14.634-23.321
			c-3.522-1.643-7.591-2.504-12.208-2.504c-7.591,0-14.008,2.739-19.33,8.295c2.583,3.522,4.382,5.948,5.478,7.435
			c3.052-3.208,8.374-5.635,13.069-5.635c4.931,0,9,1.722,12.052,5.087c2.739,2.974,4.225,6.495,4.46,10.643h-42.569h-1.881h-10.875
			c0.861-2.426,1.252-5.008,1.252-7.904v-17.06h-11.034v17.451c0,5.008-1.8,7.513-5.478,7.513h-5.788h-1.411h-1.798
			c-8.06,0-9.391-2.817-9.391-8.139v-31.851h-10.956v37.564C174.662,228.423,179.514,233.276,187.887,233.276z"/>
		
			<rect class="path_"  x="209.719" y="237.188" fill="none" stroke="#0069A7" stroke-width="2.3593" stroke-miterlimit="10" width="9.704" height="9.078"/>
		
			<rect class="path_"  x="195.006" y="237.188" fill="none" stroke="#0069A7" stroke-width="2.3593" stroke-miterlimit="10" width="9.704" height="9.078"/>
		
			<rect class="path_"  x="323.105" y="182.799" fill="none" stroke="#0069A7" stroke-width="2.3593" stroke-miterlimit="10" width="10.956" height="50.476"/>
		<path class="path_"  fill="none" stroke="#0069A7" stroke-width="2.3593" stroke-miterlimit="10" d="M375.299,233.276
			c5.713,0,10.33-1.722,13.773-5.165c3.444-3.444,5.165-7.982,5.165-13.695c0-5.869-1.8-10.409-5.322-13.695
			c-3.522-3.365-8.217-5.008-14.008-5.008c-5.712,0-10.251,1.722-13.616,5.087c-3.365,3.365-5.087,7.982-5.087,13.695
			c0,5.713,1.722,10.33,5.165,13.695C364.89,231.554,369.508,233.276,375.299,233.276z M374.986,204.007
			c5.869,0,8.765,3.6,8.765,10.8c0,2.895-0.705,5.322-2.113,7.122c-1.565,2.035-3.756,2.974-6.652,2.974
			c-2.739,0-4.93-0.939-6.417-2.974c-1.408-1.8-2.113-4.226-2.113-7.122C366.456,207.607,369.273,204.007,374.986,204.007z"/>
		
			<rect class="path_"  x="377.569" y="180.608" fill="none" stroke="#0069A7" stroke-width="2.3593" stroke-miterlimit="10" width="9.704" height="8.999"/>
		
			<rect class="path_"  x="362.777" y="180.608" fill="none" stroke="#0069A7" stroke-width="2.3593" stroke-miterlimit="10" width="9.704" height="8.999"/>
		<path class="path_"  fill="none" stroke="#0069A7" stroke-width="2.3593" stroke-miterlimit="10" d="M441.032,222.711
			c0-11.817-5.556-19.642-16.199-23.399c-2.895-1.018-7.748-1.487-14.634-1.487v9.156c13.93,0,19.878,4.852,19.878,15.808h-28.408
			v10.487h39.363V222.711z"/>
		<path class="path_"  fill="none" stroke="#0069A7" stroke-width="2.3593" stroke-miterlimit="10" d="M519.517,196.964
			c-7.591,0-14.087,2.739-19.409,8.295c2.583,3.522,4.383,5.948,5.478,7.435c3.13-3.208,8.452-5.635,13.147-5.635
			c9.156,0,15.886,6.887,16.356,15.73h-41.394h-2.9h-7.274v-7.121c0-10.409-7.356-17.921-17.373-17.921
			c-10.409,0-17.765,7.122-17.765,17.686c0,10.408,7.513,17.843,17.765,17.843c3.678,0,5.869-0.156,6.73-0.47
			c-0.861,3.052-3.365,4.617-7.591,4.617h-0.939v8.765h1.174c10.643,0,16.59-4.304,17.842-12.912h7.43h2.9h53.054v-3.6
			C546.75,209.25,537.438,197.042,519.517,196.964z M472.566,222.789h-6.339c-4.069,0-6.73-3.365-6.73-7.825
			c0-4.148,2.192-7.356,6.339-7.356c3.991,0,6.73,2.974,6.73,7.591V222.789z"/>
		
			<rect class="path_"  x="515.76" y="237.188" fill="none" stroke="#0069A7" stroke-width="2.3593" stroke-miterlimit="10" width="9.782" height="9.078"/>
		
			<rect class="path_"  x="136.894" y="267.703" fill="none" stroke="#0069A7" stroke-width="2.3593" stroke-miterlimit="10" width="9.704" height="9.078"/>
		
			<rect class="path_"  x="151.607" y="267.703" fill="none" stroke="#0069A7" stroke-width="2.3593" stroke-miterlimit="10" width="9.704" height="9.078"/>
		
			<rect class="path_"  x="175.08" y="331.091" fill="none" stroke="#0069A7" stroke-width="2.3593" stroke-miterlimit="10" width="9.704" height="9.078"/>
		
			<rect class="path_"  x="189.793" y="331.091" fill="none" stroke="#0069A7" stroke-width="2.3593" stroke-miterlimit="10" width="9.704" height="9.078"/>
		
			<rect class="path_"  x="380.635" y="276.781" fill="none" stroke="#0069A7" stroke-width="2.3593" stroke-miterlimit="10" width="9.704" height="9"/>
		
			<rect class="path_"  x="365.844" y="276.781" fill="none" stroke="#0069A7" stroke-width="2.3593" stroke-miterlimit="10" width="9.704" height="9"/>
		<path class="path_"  fill="none" stroke="#0069A7" stroke-width="2.3593" stroke-miterlimit="10" d="M396.678,309.336
			c0-5.556-1.721-9.939-5.086-12.991c-3.365-3.13-7.826-4.696-13.304-4.696c-10.877,0-17.686,6.887-17.686,17.765
			c0,2.583,0.391,5.008,1.252,7.278h-8.839h-2.351h-27.74c0-11.504-6.886-18.312-18.312-18.312
			c-11.347,0-17.765,7.043-17.765,18.312h-6.649h-2.116H199.34c0.861-2.426,1.252-5.009,1.252-7.904v-17.06h-11.034v17.451
			c0,5.009-1.8,7.513-5.478,7.513h-5.239h-1.96h-3.674c-5.321,0-7.982-2.817-7.982-7.982v-24.651c-13.93,0-20.895,0-20.895,0.078
			c-10.33,0-16.199,7.513-16.199,19.173c0,10.799,6.026,18.938,15.417,18.938c5.4,0,9.156-1.643,11.113-4.695
			c2.504,6.417,6.887,9.626,13.147,9.626h9.074h1.96h99.241h2.116h9.858c3.287,4.461,8.217,6.73,14.869,6.73
			c6.495,0,11.425-2.27,14.634-6.73h31.104h2.351h25.743c5.4,0,9.782-1.643,12.991-4.93
			C395.034,318.962,396.678,314.658,396.678,309.336z M153.954,302.449c0,6.417-2.817,10.721-7.434,10.721
			c-4.382,0-7.513-4.539-7.513-10.017c0-6.104,3.287-11.034,7.748-11.034h7.199V302.449z M304.924,324.988
			c-4.617,0-7.278-3.756-7.278-9c0-5.087,2.661-8.843,6.652-8.843h0.782c4.617,0,6.965,3.13,6.965,9.313
			C312.046,321.701,309.384,324.988,304.924,324.988z M384.079,315.675c-1.331,1.8-3.13,2.661-5.4,2.661
			c-2.426,0-4.305-0.939-5.635-2.817c-1.174-1.643-1.721-3.678-1.721-6.261c0-2.269,0.548-4.304,1.565-5.948
			c1.252-1.956,2.974-2.896,5.165-2.896h0.783c4.617,0,6.965,3.052,6.965,9.235C385.8,312.075,385.252,314.031,384.079,315.675z"/>
		<path class="path_"  fill="none" stroke="#0069A7" stroke-width="2.3593" stroke-miterlimit="10" d="M505.274,327.179h7.276
			c4.617,0,8.217-1.565,10.8-4.774c2.269-2.739,3.443-6.182,3.443-10.33v-35.294h-10.956v32.242c0,5.087-1.878,7.669-5.557,7.669
			h-5.007h-3.053h-11.343h-2.351h-63.523v-24.964h-11.034v29.19c0,6.887-3.6,10.33-10.799,10.33v8.843
			c12.443,0,19.486-4.304,21.286-12.912h64.071h2.351h11.343H505.274z"/>
		
			<rect class="path_"  x="534.774" y="276.703" fill="none" stroke="#0069A7" stroke-width="2.3593" stroke-miterlimit="10" width="10.956" height="50.476"/>
	
		<path class="path_"  fill="none" stroke="#00BED6" stroke-width="2.3593" stroke-miterlimit="10" d="M524.226,78.566v104.85l4.855-1.479V78.566
			c2.822-1.004,4.871-3.677,4.871-6.847c0-4.033-3.266-7.294-7.298-7.294c-4.024,0-7.291,3.262-7.291,7.294
			C519.362,74.888,521.403,77.561,524.226,78.566z"/>
		<path class="path_"  fill="none" stroke="#00BED6" stroke-width="2.3593" stroke-miterlimit="10" d="M254.151,646.139V545.138l29.818-29.818
			l-6.85-0.006l-27.106,27.106c-0.456,0.452-0.71,1.072-0.71,1.714v102.006c-2.826,1.008-4.867,3.677-4.867,6.851
			c0,4.029,3.266,7.294,7.29,7.294c4.028,0,7.291-3.266,7.291-7.294C259.018,649.817,256.985,647.148,254.151,646.139z"/>
		<path class="path_"  fill="none" stroke="#00BED6" stroke-width="2.3593" stroke-miterlimit="10" d="M322.885,657.123V515.139l-11.323,0.099
			l-27.182,27.182c-0.456,0.46-0.71,1.072-0.71,1.718v109.377c-2.835,1.004-4.871,3.677-4.871,6.847
			c0,4.028,3.262,7.294,7.294,7.294c4.024,0,7.29-3.267,7.29-7.294c0-3.17-2.04-5.843-4.867-6.847V545.142l29.521-29.521v141.503
			c-2.835,1-4.871,3.677-4.871,6.847c0,4.032,3.266,7.294,7.294,7.294c4.024,0,7.29-3.262,7.29-7.294
			C327.752,660.801,325.712,658.123,322.885,657.123z"/>
		<path class="path_"  fill="none" stroke="#00BED6" stroke-width="2.3593" stroke-miterlimit="10" d="M518.403,601.183l-86.999-86.996l-6.802,0.06
			l90.374,90.368c-1.298,2.71-0.847,6.04,1.395,8.282c2.847,2.851,7.468,2.851,10.315,0c2.847-2.847,2.847-7.464,0-10.31
			C524.435,600.34,521.104,599.892,518.403,601.183z"/>
		<path class="path_"  fill="none" stroke="#00BED6" stroke-width="2.3593" stroke-miterlimit="10" d="M497.297,614.449l-99.96-99.964l-6.797,0.06
			L493.87,617.881c-1.29,2.709-0.847,6.036,1.395,8.282c2.855,2.847,7.468,2.847,10.314,0c2.847-2.847,2.847-7.464,0-10.315
			C503.338,613.599,500.007,613.155,497.297,614.449z"/>
		<path class="path_"  fill="none" stroke="#00BED6" stroke-width="2.3593" stroke-miterlimit="10" d="M475.265,626.776l-96.185-97.291
			c1.29-2.714,0.839-6.045-1.404-8.287c-2.847-2.847-7.46-2.847-10.314,0c-2.847,2.847-2.847,7.468,0,10.315
			c2.242,2.242,5.581,2.693,8.29,1.399l96.177,97.291c-1.291,2.71-0.839,6.045,1.403,8.291c2.855,2.847,7.468,2.847,10.314,0
			c2.839-2.847,2.839-7.468,0-10.315C481.297,625.929,477.975,625.486,475.265,626.776z"/>
		<path class="path_"  fill="none" stroke="#00BED6" stroke-width="2.3593" stroke-miterlimit="10" d="M362.118,544.138
			c0-4.029-3.266-7.29-7.29-7.29c-4.032,0-7.299,3.262-7.299,7.29c0,3.173,2.04,5.847,4.871,6.847v106.583
			c-2.831,1.008-4.871,3.677-4.871,6.855c0,4.024,3.266,7.29,7.299,7.29c4.024,0,7.29-3.266,7.29-7.29
			c0-3.178-2.032-5.847-4.871-6.855V550.984C360.086,549.984,362.118,547.311,362.118,544.138z"/>
		<path class="path_"  fill="none" stroke="#00BED6" stroke-width="2.3593" stroke-miterlimit="10" d="M450.692,636.575l-59.791-59.791
			c-0.685-0.693-1.726-0.899-2.637-0.524c-0.903,0.379-1.5,1.262-1.5,2.242v75.017c-2.823,1-4.871,3.678-4.871,6.851
			c0,4.024,3.274,7.29,7.298,7.29c4.033,0,7.291-3.266,7.291-7.29c0-3.173-2.032-5.851-4.863-6.851v-69.162l55.646,55.65
			c-1.291,2.706-0.839,6.036,1.403,8.286c2.847,2.847,7.46,2.847,10.315,0c2.847-2.847,2.847-7.468,0-10.315
			C456.733,635.732,453.402,635.284,450.692,636.575z"/>
		<path class="path_"  fill="none" stroke="#00BED6" stroke-width="2.3593" stroke-miterlimit="10" d="M430.853,636.357
			c0-4.024-3.266-7.29-7.29-7.29c-4.033,0-7.298,3.266-7.298,7.29c0,3.177,2.04,5.851,4.871,6.851v2.94
			c-2.831,1-4.871,3.677-4.871,6.847c0,4.024,3.266,7.295,7.298,7.295c4.024,0,7.29-3.27,7.29-7.295c0-3.169-2.04-5.847-4.871-6.847
			v-2.94C428.812,642.208,430.853,639.534,430.853,636.357z"/>
		<path class="path_"  fill="none" stroke="#00BED6" stroke-width="2.3593" stroke-miterlimit="10" d="M57.708,181.716l71.46,71.463l7.063,0.203
			l-75.092-75.09c1.29-2.714,0.847-6.044-1.399-8.286c-2.851-2.851-7.467-2.851-10.314,0c-2.851,2.847-2.851,7.464,0,10.315
			C51.672,182.563,54.998,183.011,57.708,181.716z"/>
		<path class="path_"  fill="none" stroke="#00BED6" stroke-width="2.3593" stroke-miterlimit="10" d="M120.709,93.513
			c-2.847-2.851-7.464-2.851-10.315,0c-2.847,2.847-2.847,7.468,0,10.315c2.242,2.242,5.577,2.689,8.291,1.399l77.555,77.555h6.855
			l-80.983-80.986C123.398,99.09,122.955,95.755,120.709,93.513z"/>
		<path class="path_"  fill="none" stroke="#00BED6" stroke-width="2.3593" stroke-miterlimit="10" d="M85.584,140.857l39.75,40.751v-6.851
			l-36.323-37.323c1.294-2.714,0.843-6.044-1.399-8.286c-2.847-2.851-7.467-2.851-10.314,0c-2.847,2.847-2.847,7.464,0,10.314
			C79.543,141.704,82.874,142.151,85.584,140.857z"/>
		<path class="path_"  fill="none" stroke="#00BED6" stroke-width="2.3593" stroke-miterlimit="10" d="M70.971,160.615l48.424,48.047l0.057-6.802
			l-45.049-44.672c1.29-2.71,0.847-6.04-1.403-8.286c-2.843-2.847-7.46-2.847-10.311,0c-2.851,2.847-2.851,7.464,0,10.315
			C64.93,161.458,68.265,161.91,70.971,160.615z"/>
		<path class="path_"  fill="none" stroke="#00BED6" stroke-width="2.3593" stroke-miterlimit="10" d="M101.495,122.409l40.805,40.804h6.863
			l-44.236-44.236c1.29-2.706,0.847-6.041-1.399-8.283c-2.851-2.851-7.471-2.851-10.314,0c-2.851,2.847-2.851,7.464,0,10.315
			C95.459,123.252,98.785,123.699,101.495,122.409z"/>
		<path class="path_"  fill="none" stroke="#00BED6" stroke-width="2.3593" stroke-miterlimit="10" d="M137.133,89.312l44.154,44.15
			c0.472,0.476,1.089,0.71,1.709,0.71c0.621,0,1.242-0.234,1.718-0.71l33.654-33.654h67.727c1.339,0,2.423-1.085,2.423-2.423V22.371
			c2.827-1,4.867-3.673,4.867-6.847c0-4.028-3.266-7.295-7.29-7.295c-4.033,0-7.294,3.266-7.294,7.295
			c0,3.174,2.036,5.847,4.871,6.847v72.59h-66.307c-0.641,0-1.258,0.254-1.714,0.71l-32.654,32.65L140.56,85.884
			c1.29-2.71,0.847-6.036-1.395-8.282c-2.851-2.851-7.472-2.851-10.315,0c-2.855,2.847-2.855,7.464,0,10.311
			C131.092,90.158,134.423,90.606,137.133,89.312z"/>
		<path class="path_"  fill="none" stroke="#00BED6" stroke-width="2.3593" stroke-miterlimit="10" d="M219.787,634.7V515.264l-4.847-0.004V634.7
			c-2.835,1-4.867,3.674-4.867,6.851c0,4.024,3.263,7.29,7.291,7.29c4.028,0,7.29-3.266,7.29-7.29
			C224.654,638.373,222.618,635.7,219.787,634.7z"/>
		<path class="path_"  fill="none" stroke="#00BED6" stroke-width="2.3593" stroke-miterlimit="10" d="M320.462,4.625
			c-4.028,0-7.294,3.262-7.294,7.29c0,3.173,2.036,5.847,4.871,6.847v147.317c1.606-0.027,3.233-0.055,4.847-0.082V18.762
			c2.827-1,4.867-3.674,4.867-6.847C327.752,7.887,324.486,4.625,320.462,4.625z"/>
		<path class="path_"  fill="none" stroke="#00BED6" stroke-width="2.3593" stroke-miterlimit="10" d="M489.862,57.202v128.272l4.855,4.579V57.202
			c2.823-1.004,4.863-3.678,4.863-6.847c0-4.028-3.266-7.295-7.29-7.295s-7.298,3.266-7.298,7.295
			C484.991,53.525,487.039,56.198,489.862,57.202z"/>
		<path class="path_"  fill="none" stroke="#00BED6" stroke-width="2.3593" stroke-miterlimit="10" d="M558.589,106.707l-0.079,101.117l4.855,4.855
			l0.079-105.971c2.831-1,4.871-3.677,4.871-6.851c0-4.028-3.266-7.29-7.299-7.29c-4.024,0-7.29,3.263-7.29,7.29
			C553.726,103.03,555.766,105.707,558.589,106.707z"/>
		<path class="path_"  fill="none" stroke="#00BED6" stroke-width="2.3593" stroke-miterlimit="10" d="M18.014,374.731h97.421l0.115-4.847H18.014
			c-0.996-2.831-3.674-4.871-6.847-4.871c-4.024,0-7.295,3.266-7.295,7.291c0,4.032,3.27,7.298,7.295,7.298
			C14.34,379.602,17.018,377.562,18.014,374.731z"/>
		<path class="path_"  fill="none" stroke="#00BED6" stroke-width="2.3593" stroke-miterlimit="10" d="M128.304,500.719l-1.624-5.232
			l-41.347,39.787c-2.71-1.294-6.04-0.847-8.286,1.395c-2.851,2.855-2.851,7.468,0,10.319c2.847,2.847,7.464,2.847,10.31,0
			c2.246-2.246,2.694-5.577,1.399-8.286L128.304,500.719z"/>
		<path class="path_"  fill="none" stroke="#00BED6" stroke-width="2.3593" stroke-miterlimit="10" d="M146.632,515.201l-6.853-0.006
			l-38.283,38.281c-2.71-1.29-6.037-0.847-8.283,1.399c-2.851,2.846-2.851,7.464,0,10.31c2.843,2.855,7.464,2.855,10.314,0
			c2.246-2.242,2.69-5.573,1.399-8.282L146.632,515.201z"/>
		<path class="path_"  fill="none" stroke="#00BED6" stroke-width="2.3593" stroke-miterlimit="10" d="M184.714,545.855
			c0.452-0.46,0.71-1.073,0.71-1.718v-28.903l-11.306-0.01l-55.441,55.437c-2.71-1.294-6.041-0.847-8.287,1.404
			c-2.847,2.847-2.847,7.464,0,10.31c2.847,2.851,7.468,2.851,10.315,0c2.242-2.242,2.686-5.577,1.403-8.286l57.632-57.123
			l0.832,26.164l-43.44,43.444c-2.714-1.294-6.044-0.847-8.29,1.395c-2.847,2.855-2.847,7.468,0,10.319
			c2.851,2.843,7.472,2.847,10.314,0c2.246-2.246,2.69-5.577,1.403-8.287L184.714,545.855z"/>
		<path class="path_"  fill="none" stroke="#00BED6" stroke-width="2.3593" stroke-miterlimit="10" d="M185.424,618.691v-40.19
			c0-0.98-0.592-1.863-1.5-2.242c-0.907-0.375-1.951-0.169-2.637,0.524l-24.404,24.4c-2.706-1.29-6.036-0.847-8.282,1.399
			c-2.851,2.851-2.851,7.468,0,10.314c2.851,2.851,7.464,2.851,10.315,0c2.246-2.242,2.69-5.572,1.395-8.282l20.263-20.259v34.336
			c-2.835,1-4.867,3.673-4.867,6.851c0,4.024,3.258,7.291,7.29,7.291c4.024,0,7.295-3.267,7.295-7.291
			C190.291,622.365,188.25,619.691,185.424,618.691z"/>
		<path class="path_"  fill="none" stroke="#00BED6" stroke-width="2.3593" stroke-miterlimit="10" d="M452.705,523.391
			c0,4.028,3.266,7.295,7.298,7.295c3.169,0,5.847-2.041,6.847-4.871h25.089v31.944c0,0.98,0.597,1.863,1.5,2.242
			c0.298,0.121,0.613,0.181,0.927,0.181c0.629,0,1.25-0.246,1.71-0.706l27.251-25.763c2.71,1.295,6.041,0.843,8.291-1.399
			c2.846-2.847,2.846-7.468,0-10.315c-2.855-2.847-7.468-2.847-10.315,0c-2.25,2.242-2.702,5.581-1.403,8.287l-23.106,21.617
			v-28.512c0-1.339-1.089-2.427-2.428-2.427H466.85c-1-2.827-3.677-4.867-6.847-4.867
			C455.972,516.096,452.705,519.363,452.705,523.391z"/>
		<path class="path_"  fill="none" stroke="#00BED6" stroke-width="2.3593" stroke-miterlimit="10" d="M556.565,570.614l-28.194-28.194
			c-0.694-0.694-1.742-0.899-2.645-0.524c-0.912,0.375-1.5,1.262-1.5,2.242v34.364c0,0.645,0.258,1.258,0.718,1.718l9.54,9.54
			c-1.29,2.71-0.847,6.041,1.404,8.283c2.846,2.855,7.459,2.855,10.314,0c2.847-2.847,2.847-7.464,0-10.311
			c-2.242-2.246-5.581-2.69-8.291-1.399l-8.831-8.835v-27.504l24.049,24.049c-1.29,2.709-0.839,6.04,1.403,8.286
			c2.847,2.847,7.468,2.843,10.315,0c2.847-2.851,2.847-7.464,0-10.319C562.597,569.767,559.266,569.319,556.565,570.614z"/>
		<path class="path_"  fill="none" stroke="#00BED6" stroke-width="2.3593" stroke-miterlimit="10" d="M657.34,300.045
			c-2.25,2.242-2.694,5.576-1.403,8.282l-62.267,62.267c-0.685,0.694-0.895,1.734-0.524,2.645c0.371,0.904,1.258,1.492,2.234,1.492
			h34.371c0.645,0,1.258-0.254,1.718-0.709l29.517-29.525c2.71,1.294,6.041,0.847,8.282-1.395c2.847-2.851,2.847-7.468,0-10.315
			c-2.847-2.847-7.46-2.847-10.307,0c-2.242,2.246-2.693,5.573-1.403,8.283l-28.815,28.815h-27.509l58.13-58.13
			c2.71,1.298,6.041,0.847,8.282-1.395c2.855-2.847,2.855-7.468,0-10.315C664.8,297.198,660.187,297.198,657.34,300.045z"/>
		<path class="path_"  fill="none" stroke="#00BED6" stroke-width="2.3593" stroke-miterlimit="10" d="M219.787,150.442v-25.093h63.884v71.424
			l4.847,6.265v-80.112c0-1.339-1.085-2.423-2.423-2.423h-68.731c-1.339,0-2.423,1.085-2.423,2.423v27.516
			c-2.835,1.004-4.867,3.678-4.867,6.851c0,4.028,3.263,7.29,7.291,7.29c4.028,0,7.29-3.262,7.29-7.29
			C224.654,154.12,222.618,151.446,219.787,150.442z"/>
		<path class="path_"  fill="none" stroke="#00BED6" stroke-width="2.3593" stroke-miterlimit="10" d="M418.917,27.448l36.581,36.573v123.5
			c1.52-1.472,3.268-3.176,4.847-4.747V63.017c0-0.641-0.258-1.258-0.71-1.714l-37.283-37.287c1.282-2.71,0.839-6.04-1.403-8.286
			c-2.847-2.847-7.468-2.847-10.315,0c-2.846,2.851-2.846,7.468,0,10.315C412.877,28.29,416.207,28.738,418.917,27.448z"/>
		<path class="path_"  fill="none" stroke="#00BED6" stroke-width="2.3593" stroke-miterlimit="10" d="M354.828,4.177
			c-4.032,0-7.299,3.266-7.299,7.291c0,3.173,2.04,5.847,4.871,6.851v147.797c0,0.641,0.258,1.258,0.71,1.714l7.295,7.295v-6.859
			l-3.158-3.158V18.319c2.839-1.004,4.871-3.678,4.871-6.851C362.118,7.443,358.852,4.177,354.828,4.177z"/>
		<path class="path_"  fill="none" stroke="#00BED6" stroke-width="2.3593" stroke-miterlimit="10" d="M394.352,57.859
			c-2.855-2.847-7.467-2.847-10.314,0c-2.847,2.851-2.847,7.468,0,10.315c2.242,2.242,5.573,2.693,8.283,1.403l29.524,29.52
			c0.468,0.464,1.081,0.71,1.718,0.71c0.306,0,0.621-0.06,0.927-0.185c0.903-0.375,1.492-1.258,1.492-2.238V63.017
			c0-0.641-0.258-1.258-0.71-1.714l-29.517-29.525c1.282-2.705,0.839-6.04-1.404-8.282c-2.855-2.851-7.467-2.851-10.314,0
			c-2.847,2.847-2.847,7.464,0,10.314c2.242,2.242,5.573,2.69,8.283,1.399l28.815,28.811v27.509l-25.38-25.383
			C397.038,63.436,396.594,60.106,394.352,57.859z"/>
		<path class="path_"  fill="none" stroke="#00BED6" stroke-width="2.3593" stroke-miterlimit="10" d="M392.32,103.937l24.677,24.682
			c-1.29,2.71-0.839,6.04,1.403,8.286c2.847,2.851,7.46,2.851,10.314,0c2.847-2.847,2.847-7.464,0-10.315
			c-2.25-2.242-5.581-2.689-8.29-1.399l-24.67-24.682c1.282-2.709,0.839-6.04-1.404-8.282c-2.855-2.851-7.467-2.851-10.314,0
			c-2.847,2.847-2.847,7.464,0,10.314C386.28,104.784,389.61,105.231,392.32,103.937z"/>
		<path  class="path_"  fill="none" stroke="#00BED6" stroke-width="2.3593" stroke-miterlimit="10" d="M392.32,138.304l24.677,24.682
			c-1.29,2.71-0.839,6.045,1.403,8.283c2.847,2.851,7.46,2.851,10.314,0c2.847-2.843,2.847-7.464,0-10.315
			c-2.25-2.238-5.581-2.69-8.29-1.395l-24.67-24.682c1.282-2.71,0.839-6.045-1.404-8.287c-2.855-2.847-7.467-2.847-10.314,0
			c-2.847,2.851-2.847,7.468,0,10.315C386.28,139.147,389.61,139.599,392.32,138.304z"/>
		<path  class="path_" fill="none" stroke="#00BED6" stroke-width="2.3593" stroke-miterlimit="10" d="M559.581,480.273l32.677-32.677
			c2.71,1.29,6.041,0.847,8.283-1.399c2.847-2.847,2.847-7.464,0-10.311c-2.847-2.847-7.46-2.855-10.315,0
			c-2.242,2.242-2.694,5.573-1.395,8.283l-32.49,32.483L559.581,480.273z"/>
		<path  class="path_" fill="none" stroke="#00BED6" stroke-width="2.3593" stroke-miterlimit="10" d="M647.501,433.749
			c-3.177,0-5.847,2.04-6.847,4.867h-10.903c-0.645,0-1.258,0.258-1.71,0.71l-29.524,29.521c-2.71-1.29-6.04-0.843-8.291,1.403
			c-2.847,2.847-2.847,7.464,0,10.314c2.855,2.847,7.468,2.847,10.315,0c2.242-2.246,2.693-5.577,1.403-8.283l28.807-28.815h9.903
			c1,2.827,3.669,4.863,6.847,4.863c4.024,0,7.291-3.262,7.291-7.291C654.792,437.015,651.526,433.749,647.501,433.749z"/>
		<path  class="path_" fill="none" stroke="#00BED6" stroke-width="2.3593" stroke-miterlimit="10" d="M615.283,502.475
			c-3.178,0-5.847,2.041-6.847,4.867h-61.039l-4.108,4.851h15.299v31.944c0,0.645,0.258,1.258,0.718,1.718l11.048,11.049
			c-1.282,2.714-0.839,6.045,1.403,8.29c2.847,2.847,7.468,2.847,10.315,0c2.847-2.851,2.847-7.468,0-10.314
			c-2.25-2.25-5.573-2.694-8.282-1.404l-10.347-10.347v-29.567l1.159-1.369h43.833c1,2.831,3.669,4.871,6.847,4.871
			c4.024,0,7.29-3.267,7.29-7.295C622.573,505.742,619.307,502.475,615.283,502.475z"/>
		<path  class="path_" fill="none" stroke="#00BED6" stroke-width="2.3593" stroke-miterlimit="10" d="M592.96,144.389v123.816l-34.471,33.42
			l0.21,6.645l38.398-37.347c0.46-0.452,0.71-1.068,0.71-1.709V144.389c2.83-1.004,4.871-3.677,4.871-6.851
			c0-4.024-3.266-7.295-7.299-7.295c-4.024,0-7.29,3.27-7.29,7.295C588.089,140.712,590.129,143.385,592.96,144.389z"/>
		<path  class="path_" fill="none" stroke="#00BED6" stroke-width="2.3593" stroke-miterlimit="10" d="M18.151,276.504
			c3.169,0,5.847-2.041,6.847-4.871h54.9c0.98,0,1.871-0.589,2.242-1.492c0.375-0.908,0.165-1.952-0.524-2.646L39.01,224.891
			c1.29-2.706,0.843-6.036-1.399-8.283c-2.847-2.847-7.464-2.847-10.315,0c-2.847,2.847-2.847,7.468,0,10.315
			c2.246,2.242,5.581,2.693,8.287,1.395l38.464,38.468H24.998c-1-2.831-3.677-4.867-6.847-4.867c-4.032,0-7.299,3.262-7.299,7.294
			C10.853,273.238,14.119,276.504,18.151,276.504z"/>
		<path  class="path_" fill="none" stroke="#00BED6" stroke-width="2.3593" stroke-miterlimit="10" d="M156.883,74.699l24.404,24.399
			c0.46,0.464,1.081,0.71,1.709,0.71c0.315,0,0.625-0.06,0.927-0.185c0.908-0.375,1.5-1.258,1.5-2.238V57.202
			c2.827-1.004,4.867-3.678,4.867-6.847c0-4.028-3.27-7.295-7.295-7.295c-4.032,0-7.29,3.266-7.29,7.295
			c0,3.169,2.032,5.843,4.867,6.847v34.327L160.31,71.275c1.295-2.714,0.851-6.04-1.395-8.287c-2.851-2.851-7.464-2.851-10.315,0
			c-2.851,2.847-2.851,7.464,0,10.315C150.847,75.545,154.177,75.993,156.883,74.699z"/>
		<path  class="path_" fill="none" stroke="#00BED6" stroke-width="2.3593" stroke-miterlimit="10" d="M214.941,41.19v21.827
			c0,1.339,1.085,2.423,2.423,2.423h34.363c1.339,0,2.424-1.085,2.424-2.423V29.75c2.835-1.004,4.867-3.678,4.867-6.851
			c0-4.028-3.262-7.29-7.291-7.29c-4.024,0-7.29,3.262-7.29,7.29c0,3.174,2.041,5.847,4.867,6.851v30.843h-29.516V41.19
			c2.83-1.004,4.867-3.673,4.867-6.847c0-4.028-3.262-7.295-7.29-7.295c-4.028,0-7.291,3.266-7.291,7.295
			C210.073,37.517,212.106,40.186,214.941,41.19z"/>
		<path  class="path_" fill="none" stroke="#00BED6" stroke-width="2.3593" stroke-miterlimit="10" d="M115.551,404.248H25.816
			c-1-2.831-3.673-4.871-6.843-4.871c-4.033,0-7.299,3.266-7.299,7.299c0,4.024,3.266,7.29,7.299,7.29
			c3.169,0,5.843-2.04,6.843-4.871h89.619L115.551,404.248z"/>
		<path  class="path_" fill="none" stroke="#00BED6" stroke-width="2.3593" stroke-miterlimit="10" d="M47.958,477.044v-33.577h29.517v31.936
			c0,1.339,1.085,2.427,2.423,2.427l48.072,0.475l-1.548-4.851l-44.096-0.475v-31.94c0-1.339-1.085-2.423-2.427-2.423H45.53
			c-1.339,0-2.419,1.085-2.419,2.423v36.005c-2.83,1-4.871,3.673-4.871,6.847c0,4.028,3.266,7.295,7.29,7.295
			c4.033,0,7.294-3.266,7.294-7.295C52.825,480.717,50.789,478.044,47.958,477.044z"/>
		<path  class="path_" fill="none" stroke="#00BED6" stroke-width="2.3593" stroke-miterlimit="10" d="M94.451,517.065
			c4.024,0,7.29-3.267,7.29-7.295c0-4.028-3.266-7.295-7.29-7.295c-3.177,0-5.847,2.041-6.847,4.867H66.849
			c-1.004-2.827-3.677-4.867-6.847-4.867c-4.032,0-7.294,3.267-7.294,7.295c0,4.028,3.262,7.295,7.294,7.295
			c3.17,0,5.843-2.041,6.847-4.871h20.754C88.604,515.024,91.273,517.065,94.451,517.065z"/>
		<path  class="path_" fill="none" stroke="#00BED6" stroke-width="2.3593" stroke-miterlimit="10" d="M45.881,204.257l75.273,75.231v-6.859
			l-71.846-71.803c1.295-2.709,0.843-6.04-1.399-8.286c-2.85-2.847-7.468-2.847-10.319,0c-2.843,2.851-2.843,7.468,0,10.315
			C39.837,205.095,43.172,205.548,45.881,204.257z"/>
		<path  class="path_" fill="none" stroke="#00BED6" stroke-width="2.3593" stroke-miterlimit="10" d="M12.958,310.872
			c3.169,0,5.847-2.044,6.847-4.867h95.191v-4.855H19.805c-1-2.83-3.678-4.866-6.847-4.866c-4.024,0-7.294,3.262-7.294,7.294
			C5.663,307.601,8.933,310.872,12.958,310.872z"/>
		<path  class="path_" fill="none" stroke="#00BED6" stroke-width="2.3593" stroke-miterlimit="10" d="M11.167,345.235
			c3.173,0,5.851-2.044,6.847-4.867h95.279v-4.855H18.014c-0.996-2.831-3.674-4.863-6.847-4.863c-4.024,0-7.294,3.266-7.294,7.29
			C3.873,341.973,7.143,345.235,11.167,345.235z"/>
		<path  class="path_" fill="none" stroke="#00BED6" stroke-width="2.3593" stroke-miterlimit="10" d="M663.251,280.399
			c2.839-2.854,2.839-7.467,0-10.318c-2.847-2.847-7.468-2.847-10.322,0c-2.234,2.246-2.686,5.573-1.395,8.287L549.178,380.721
			v6.858l105.784-105.785C657.671,283.085,661.002,282.641,663.251,280.399z"/>
		<path class="path_"  fill="none" stroke="#00BED6" stroke-width="2.3593" stroke-miterlimit="10" d="M627.324,198.85v69.356l-71.681,72.522
			l-0.373,7.232l76.199-77.037c0.452-0.452,0.71-1.069,0.71-1.71V198.85c2.823-1.004,4.863-3.673,4.863-6.847
			c0-4.024-3.266-7.29-7.29-7.29c-4.032,0-7.29,3.266-7.29,7.29C622.461,195.177,624.493,197.846,627.324,198.85z"/>
		<path  class="path_" fill="none" stroke="#00BED6" stroke-width="2.3593" stroke-miterlimit="10" d="M656.953,369.151
			c-2.242,2.25-2.693,5.58-1.395,8.29l-26.815,26.808h-64.471v4.846h65.479c0.646,0,1.258-0.25,1.718-0.71l27.517-27.516
			c2.709,1.29,6.04,0.847,8.282-1.404c2.847-2.847,2.847-7.464,0-10.315C664.421,366.304,659.808,366.304,656.953,369.151z"/>
	</g>
</g>
</svg>
