<?xml version="1.0" encoding="utf-8"?>
<!-- Generator: Adobe Illustrator 22.0.0, SVG Export Plug-In . SVG Version: 6.00 Build 0)  -->
<svg version="1.1" id="Layer_1" xmlns="http://www.w3.org/2000/svg" xmlns:xlink="http://www.w3.org/1999/xlink" x="0px" y="0px"
	 viewBox="0 0 180 180" style="enable-background:new 0 0 180 180;" xml:space="preserve">
<style type="text/css">
	.st0{fill:#13C0D7;}
	.st1{fill:#A0A0A0;}
</style>
<g>
	<path class="st0" d="M45.17,28.187c0.908,0.063,1.627,0.489,2.156,1.278c0.283,0.422,0.432,0.885,0.443,1.389
		c0.012,0.504-0.104,0.991-0.348,1.461c0.684-0.152,1.326-0.117,1.928,0.104c0.602,0.222,1.087,0.608,1.457,1.159
		c0.381,0.569,0.558,1.169,0.529,1.801c-0.029,0.631-0.253,1.254-0.672,1.869c-0.42,0.614-1.016,1.18-1.786,1.698
		c-0.762,0.511-1.505,0.847-2.229,1.007c-0.725,0.16-1.383,0.136-1.975-0.072s-1.076-0.592-1.451-1.152
		c-0.37-0.551-0.539-1.159-0.508-1.826c0.031-0.667,0.262-1.296,0.688-1.89c-0.576,0.054-1.108-0.021-1.599-0.225
		c-0.489-0.204-0.879-0.521-1.168-0.953c-0.512-0.762-0.62-1.567-0.325-2.417s0.946-1.614,1.956-2.292
		C43.295,28.438,44.263,28.124,45.17,28.187z M42.389,31.672c-0.123,0.382-0.059,0.761,0.193,1.137
		c0.247,0.367,0.57,0.566,0.971,0.597c0.4,0.031,0.838-0.113,1.315-0.434c0.478-0.32,0.778-0.669,0.905-1.046
		c0.125-0.377,0.063-0.754-0.189-1.13c-0.254-0.376-0.58-0.58-0.979-0.611c-0.4-0.031-0.839,0.114-1.315,0.434
		C42.811,30.938,42.512,31.29,42.389,31.672z M44.898,35.827c-0.154,0.436-0.086,0.869,0.203,1.3
		c0.29,0.432,0.668,0.664,1.137,0.695c0.467,0.033,0.98-0.139,1.54-0.515c0.56-0.375,0.917-0.785,1.072-1.229
		s0.088-0.881-0.202-1.312c-0.289-0.431-0.668-0.659-1.138-0.684c-0.469-0.024-0.983,0.151-1.543,0.527
		C45.408,34.986,45.051,35.392,44.898,35.827z"/>
	<path class="st0" d="M58.389,22.375c1.209,0.579,2.197,1.738,2.963,3.478c0.762,1.729,0.948,3.238,0.561,4.525
		c-0.387,1.288-1.324,2.259-2.811,2.913c-1.497,0.659-2.854,0.698-4.069,0.116s-2.205-1.737-2.966-3.467
		c-0.767-1.74-0.952-3.252-0.558-4.537s1.34-2.256,2.837-2.916C55.833,21.834,57.181,21.797,58.389,22.375z M53.859,25.91
		c-0.105,0.722,0.117,1.706,0.664,2.95c0.543,1.234,1.117,2.059,1.724,2.474c0.605,0.416,1.288,0.457,2.046,0.123
		c0.738-0.325,1.159-0.851,1.262-1.579c0.103-0.727-0.118-1.708-0.661-2.942c-0.548-1.244-1.124-2.071-1.727-2.482
		c-0.604-0.411-1.274-0.454-2.013-0.128C54.396,24.659,53.964,25.188,53.859,25.91z"/>
	<path class="st0" d="M71.824,18.626c1.082,0.792,1.839,2.113,2.271,3.963c0.43,1.84,0.336,3.358-0.281,4.552
		c-0.617,1.194-1.717,1.976-3.299,2.346c-1.594,0.372-2.934,0.161-4.021-0.635s-1.848-2.113-2.277-3.954
		c-0.434-1.851-0.337-3.372,0.287-4.562s1.732-1.971,3.325-2.344C69.411,17.624,70.742,17.835,71.824,18.626z M66.721,21.266
		c-0.235,0.691-0.199,1.698,0.111,3.021c0.307,1.313,0.719,2.229,1.238,2.75c0.519,0.52,1.182,0.686,1.988,0.497
		c0.785-0.184,1.296-0.624,1.53-1.32c0.235-0.696,0.198-1.7-0.108-3.013c-0.309-1.324-0.723-2.243-1.24-2.757
		s-1.17-0.68-1.955-0.497C67.479,20.136,66.957,20.576,66.721,21.266z"/>
	<path class="st0" d="M77.537,22.159l4.264-0.343l0.136,1.686l-4.263,0.343L77.537,22.159z"/>
	<path class="st0" d="M87.311,25.528c0.418,0.152,0.847,0.241,1.288,0.267c0.96,0.057,1.7-0.207,2.223-0.791
		c0.521-0.584,0.803-1.422,0.846-2.516c-0.662,0.902-1.649,1.314-2.963,1.236c-1.125-0.066-1.999-0.461-2.62-1.184
		s-0.898-1.653-0.832-2.789c0.047-0.794,0.26-1.479,0.637-2.055c0.377-0.575,0.889-1.004,1.537-1.288
		c0.647-0.283,1.391-0.399,2.229-0.35c0.993,0.059,1.841,0.338,2.542,0.839c0.701,0.501,1.219,1.19,1.555,2.068
		c0.336,0.878,0.469,1.902,0.4,3.071c-0.072,1.224-0.346,2.288-0.819,3.189c-0.475,0.902-1.117,1.581-1.931,2.037
		c-0.813,0.456-1.737,0.653-2.774,0.592c-0.607-0.036-1.23-0.158-1.871-0.368c-0.642-0.209-1.191-0.471-1.648-0.787l1.086-1.795
		C86.521,25.169,86.894,25.376,87.311,25.528z M88.211,18.582c-0.361,0.3-0.559,0.742-0.594,1.327
		c-0.032,0.552,0.107,0.997,0.42,1.336c0.313,0.34,0.755,0.526,1.328,0.56c0.629,0.037,1.133-0.107,1.513-0.434
		c0.379-0.327,0.584-0.754,0.615-1.284c0.029-0.497-0.111-0.928-0.422-1.295c-0.311-0.367-0.786-0.569-1.426-0.607
		C89.05,18.15,88.571,18.282,88.211,18.582z"/>
	<path class="st0" d="M97.813,16.968l4.856,0.996l-2.331,11.368l-2.566-0.526l1.885-9.192l-2.289-0.469L97.813,16.968z"/>
	<path class="st0" d="M120.247,27.594l0.39-0.767c0.06-0.119,0.149-0.148,0.269-0.088l1.641,0.833
		c0.119,0.06,0.148,0.15,0.088,0.268l-2.924,5.764c-0.181,0.356-0.237,0.637-0.17,0.842s0.25,0.384,0.547,0.535l0.678,0.344
		c0.476,0.241,0.562,0.662,0.257,1.263c-0.183,0.36-0.36,0.569-0.53,0.625c-0.172,0.057-0.382,0.022-0.631-0.105l-1.445-0.733
		c-0.582-0.296-0.985-0.628-1.209-0.999s-0.258-0.84-0.103-1.412c-0.36,0.092-0.741,0.105-1.142,0.04
		c-0.4-0.066-0.79-0.195-1.171-0.388c-0.464-0.235-0.867-0.522-1.211-0.861s-0.599-0.722-0.763-1.149s-0.229-0.897-0.192-1.41
		c0.035-0.512,0.204-1.066,0.506-1.661c0.35-0.689,0.74-1.216,1.172-1.581s0.882-0.603,1.351-0.717
		c0.469-0.113,0.941-0.124,1.418-0.032s0.94,0.253,1.393,0.482L120.247,27.594z M115.928,31.951c0.571,0.29,1.075,0.341,1.515,0.155
		c0.438-0.187,0.816-0.593,1.135-1.22l0.765-1.508l-1.587-0.806c-0.512-0.259-0.987-0.337-1.429-0.234s-0.839,0.504-1.193,1.202
		c-0.275,0.544-0.337,1.019-0.184,1.424C115.103,31.369,115.429,31.698,115.928,31.951z M117.944,23.689
		c-0.118-0.061-0.147-0.15-0.087-0.271l0.786-1.548c0.061-0.12,0.15-0.15,0.27-0.089l1.498,0.76c0.119,0.06,0.147,0.15,0.087,0.271
		l-0.785,1.548c-0.062,0.12-0.151,0.149-0.27,0.089L117.944,23.689z M120.264,24.866c-0.119-0.061-0.148-0.151-0.087-0.271
		l0.785-1.548c0.061-0.12,0.15-0.15,0.27-0.089l1.498,0.76c0.119,0.06,0.148,0.151,0.087,0.271l-0.785,1.548
		c-0.061,0.12-0.151,0.15-0.27,0.089L120.264,24.866z"/>
	<path class="st0" d="M117.64,40.454c-0.111-0.073-0.13-0.166-0.057-0.278l0.952-1.452c0.073-0.113,0.166-0.132,0.277-0.059
		l1.405,0.921c0.111,0.073,0.131,0.166,0.057,0.278l-0.952,1.452c-0.073,0.112-0.166,0.132-0.277,0.059L117.64,40.454z
		 M122.904,38.082c-0.369,0.225-0.751,0.296-1.147,0.214c-0.396-0.083-0.86-0.299-1.393-0.647l-1.556-1.02
		c-0.224-0.146-0.355-0.309-0.396-0.489c-0.042-0.18,0.041-0.428,0.247-0.743c0.215-0.327,0.417-0.52,0.607-0.58
		c0.191-0.06,0.404-0.014,0.638,0.14l1.088,0.712c0.2,0.132,0.374,0.202,0.52,0.21c0.146,0.008,0.286-0.035,0.42-0.13
		c0.134-0.095,0.274-0.242,0.42-0.44c0.146-0.198,0.317-0.448,0.515-0.748l2.273-3.468c0.043-0.066,0.103-0.091,0.179-0.073
		c0.075,0.017,0.146,0.048,0.212,0.091l1.426,0.935c0.11,0.072,0.13,0.165,0.057,0.275l-2.667,4.068
		c-0.219,0.333-0.261,0.671-0.126,1.014c0.134,0.342,0.413,0.652,0.837,0.93l0.284,0.187c0.223,0.146,0.35,0.317,0.38,0.515
		c0.03,0.197-0.051,0.442-0.242,0.735c-0.215,0.327-0.415,0.517-0.603,0.572c-0.187,0.054-0.397,0.005-0.632-0.149
		c-0.435-0.285-0.779-0.587-1.032-0.906C122.959,38.966,122.856,38.565,122.904,38.082z M119.814,41.879
		c-0.112-0.073-0.131-0.166-0.057-0.278l0.951-1.452c0.074-0.113,0.167-0.132,0.278-0.059l1.405,0.921
		c0.111,0.073,0.13,0.166,0.057,0.278l-0.952,1.452c-0.073,0.112-0.167,0.132-0.278,0.059L119.814,41.879z"/>
	<path class="st0" d="M127.494,37.069c0.506-0.582,1.011-1.013,1.516-1.292s1.007-0.431,1.506-0.454
		c0.5-0.023,0.988,0.065,1.466,0.265c0.477,0.201,0.94,0.49,1.392,0.868c0.45,0.378,0.818,0.791,1.105,1.24
		c0.287,0.448,0.46,0.923,0.52,1.424c0.06,0.5-0.015,1.037-0.224,1.608s-0.573,1.167-1.094,1.789
		c-0.077,0.092-0.152,0.181-0.225,0.268c-0.072,0.087-0.148,0.167-0.227,0.239c-0.349,0.437-0.504,0.823-0.464,1.16
		c0.04,0.337,0.183,0.608,0.428,0.813l0.444,0.373c0.204,0.171,0.31,0.356,0.316,0.556c0.007,0.199-0.102,0.433-0.327,0.701
		c-0.251,0.299-0.473,0.465-0.664,0.497c-0.192,0.032-0.396-0.042-0.61-0.222c-0.174-0.146-0.352-0.303-0.531-0.472
		c-0.181-0.169-0.342-0.361-0.482-0.576c-0.142-0.215-0.252-0.449-0.331-0.7s-0.104-0.531-0.072-0.84
		c-0.554,0.099-1.098,0.047-1.633-0.156s-1.063-0.522-1.584-0.96c-0.512-0.428-0.913-0.884-1.205-1.366
		c-0.292-0.482-0.441-0.999-0.449-1.55c-0.242,0.079-0.479,0.109-0.71,0.092c-0.23-0.018-0.446-0.063-0.648-0.135
		c-0.201-0.072-0.393-0.166-0.572-0.283c-0.182-0.116-0.343-0.234-0.486-0.354l-0.536-0.45c-0.204-0.171-0.308-0.359-0.311-0.563
		c-0.002-0.204,0.112-0.446,0.347-0.725c0.251-0.299,0.468-0.459,0.651-0.481c0.184-0.021,0.383,0.057,0.598,0.237l0.598,0.501
		c0.245,0.206,0.548,0.291,0.909,0.255c0.36-0.036,0.768-0.315,1.223-0.836c0.058-0.09,0.116-0.17,0.176-0.242
		C127.362,37.227,127.426,37.15,127.494,37.069z M132.088,37.988c-0.488-0.409-0.981-0.554-1.479-0.434s-0.999,0.479-1.502,1.079
		c-0.546,0.651-0.821,1.217-0.827,1.698c-0.005,0.481,0.236,0.926,0.725,1.335c0.498,0.417,0.985,0.58,1.462,0.485
		c0.477-0.094,0.984-0.461,1.521-1.103C133.02,39.818,133.054,38.797,132.088,37.988z"/>
	<path class="st0" d="M131.056,45.719c-0.187-0.209-0.271-0.405-0.257-0.588c0.016-0.183,0.178-0.413,0.485-0.688
		c0.259-0.23,0.487-0.345,0.686-0.343c0.198,0.002,0.387,0.103,0.563,0.301l1.265,1.418c0.224-0.61,0.674-1.217,1.351-1.821
		c0.607-0.542,1.198-0.921,1.772-1.138c0.575-0.217,1.118-0.299,1.631-0.245c0.512,0.053,0.995,0.214,1.448,0.481
		c0.452,0.268,0.861,0.606,1.227,1.015c0.392,0.439,0.696,0.901,0.915,1.387c0.219,0.485,0.321,0.981,0.307,1.486
		c-0.014,0.505-0.166,1.026-0.456,1.562s-0.738,1.075-1.345,1.616c-0.588,0.524-1.146,0.889-1.678,1.094
		c-0.532,0.205-1.042,0.284-1.531,0.237s-0.955-0.214-1.397-0.5c-0.442-0.286-0.868-0.658-1.277-1.117L131.056,45.719z
		 M139.728,45.435c-0.409-0.458-0.871-0.671-1.388-0.639c-0.517,0.032-1.049,0.292-1.596,0.78c-0.656,0.586-1.015,1.111-1.074,1.575
		c-0.06,0.464,0.124,0.935,0.55,1.413c0.435,0.487,0.881,0.732,1.339,0.735c0.458,0.003,1.001-0.275,1.627-0.835
		C140.39,47.389,140.57,46.379,139.728,45.435z M141.046,41.444c-0.089-0.1-0.083-0.194,0.018-0.284l1.295-1.156
		c0.101-0.089,0.195-0.085,0.284,0.015l1.118,1.254c0.089,0.099,0.083,0.194-0.018,0.284l-1.296,1.156
		c-0.101,0.089-0.194,0.084-0.283-0.015L141.046,41.444z M142.776,43.384c-0.089-0.1-0.083-0.194,0.018-0.284l1.296-1.156
		c0.1-0.089,0.194-0.084,0.283,0.015l1.118,1.253c0.089,0.1,0.083,0.194-0.018,0.284l-1.295,1.156
		c-0.101,0.09-0.195,0.084-0.284-0.015L142.776,43.384z"/>
	<path class="st0" d="M145.124,49.827c0.108-0.077,0.201-0.063,0.277,0.045l1.069,1.502c0.076,0.107,0.061,0.2-0.048,0.277
		l-3.963,2.82c-0.325,0.231-0.487,0.531-0.486,0.898s0.147,0.758,0.441,1.171l0.197,0.277c0.154,0.217,0.21,0.423,0.167,0.618
		c-0.044,0.194-0.208,0.394-0.493,0.597c-0.318,0.227-0.574,0.331-0.769,0.313c-0.194-0.017-0.372-0.14-0.534-0.368
		c-0.264-0.369-0.457-0.71-0.58-1.023c-0.124-0.313-0.136-0.644-0.037-0.992l-0.31,0.221c-0.588,0.418-1.137,0.735-1.646,0.952
		c-0.509,0.216-0.989,0.318-1.44,0.307c-0.45-0.012-0.88-0.149-1.287-0.411c-0.408-0.262-0.806-0.665-1.192-1.208l-0.429-0.603
		c-0.077-0.109-0.062-0.202,0.047-0.279l1.304-0.928c0.108-0.077,0.201-0.062,0.279,0.047l0.255,0.358
		c0.224,0.315,0.452,0.521,0.685,0.617c0.232,0.096,0.483,0.11,0.753,0.041c0.271-0.069,0.561-0.202,0.871-0.398
		c0.31-0.196,0.66-0.434,1.052-0.712L145.124,49.827z"/>
	<path class="st0" d="M140.434,57.172c-0.138-0.229-0.187-0.433-0.146-0.613s0.229-0.371,0.563-0.573
		c0.323-0.194,0.584-0.277,0.781-0.249c0.198,0.029,0.37,0.163,0.515,0.402l0.506,0.839c0.172,0.285,0.363,0.454,0.573,0.506
		s0.486-0.024,0.829-0.231l8.856-5.34c0.113-0.069,0.205-0.047,0.273,0.066l0.951,1.579c0.068,0.113,0.046,0.204-0.068,0.273
		l-9.317,5.618c-0.742,0.448-1.38,0.624-1.912,0.528s-1.014-0.5-1.443-1.213L140.434,57.172z"/>
	<path class="st0" d="M144.637,64.168c-0.119,0.062-0.208,0.033-0.269-0.084l-0.847-1.638c-0.062-0.117-0.032-0.207,0.086-0.268
		l11.726-6.062c0.118-0.062,0.208-0.034,0.269,0.084l0.847,1.638c0.062,0.117,0.032,0.207-0.086,0.268L144.637,64.168z"/>
	<path class="st0" d="M148.859,76.313c-0.158-0.593-0.227-1.154-0.203-1.685s0.156-1.015,0.397-1.452
		c0.242-0.438,0.601-0.824,1.077-1.159c0.476-0.334,1.094-0.604,1.854-0.808c0.786-0.21,1.482-0.291,2.09-0.239
		s1.126,0.209,1.556,0.474c0.43,0.264,0.787,0.62,1.073,1.068c0.286,0.448,0.505,0.955,0.656,1.522
		c0.152,0.566,0.217,1.115,0.193,1.646s-0.155,1.018-0.396,1.462c-0.239,0.444-0.609,0.84-1.109,1.188
		c-0.501,0.348-1.144,0.627-1.929,0.838c-0.761,0.204-1.431,0.28-2.01,0.228c-0.58-0.051-1.085-0.209-1.515-0.474
		c-0.43-0.265-0.787-0.621-1.073-1.069C149.235,77.407,149.016,76.893,148.859,76.313z M155.431,74.562
		c-0.169-0.628-0.491-1.036-0.968-1.224s-1.094-0.181-1.85,0.022c-0.821,0.22-1.37,0.528-1.649,0.926
		c-0.278,0.397-0.335,0.903-0.17,1.519c0.165,0.615,0.47,1.021,0.914,1.217c0.444,0.197,1.071,0.187,1.879-0.03
		C155.139,76.576,155.753,75.766,155.431,74.562z M158.399,71.582c-0.034-0.129,0.014-0.21,0.144-0.246l1.677-0.45
		c0.13-0.035,0.213,0.012,0.247,0.141l0.436,1.623c0.034,0.129-0.014,0.211-0.144,0.246l-1.677,0.45
		c-0.131,0.035-0.213-0.013-0.247-0.141L158.399,71.582z M159.073,74.093c-0.034-0.129,0.013-0.21,0.144-0.246l1.677-0.45
		c0.13-0.035,0.212,0.012,0.246,0.141l0.436,1.623c0.034,0.129-0.014,0.211-0.144,0.246l-1.677,0.45
		c-0.13,0.035-0.212-0.012-0.247-0.141L159.073,74.093z"/>
	<path class="st0" d="M163.368,79.1c0.131-0.021,0.208,0.033,0.229,0.163l0.301,1.819c0.022,0.13-0.033,0.207-0.164,0.228
		L153.531,83c-0.394,0.065-0.654,0.186-0.78,0.362c-0.126,0.176-0.161,0.429-0.106,0.757l0.114,0.691
		c0.044,0.263,0,0.473-0.132,0.63c-0.131,0.157-0.382,0.266-0.754,0.328c-0.412,0.068-0.685,0.049-0.818-0.057
		s-0.224-0.297-0.27-0.574l-0.258-1.559c-0.136-0.822-0.033-1.442,0.31-1.861c0.343-0.418,0.942-0.698,1.797-0.84L163.368,79.1z"/>
	<path class="st0" d="M146.973,85.727c-0.012-0.133,0.05-0.205,0.184-0.217l1.729-0.155c0.135-0.012,0.207,0.048,0.22,0.181
		l0.149,1.673c0.012,0.133-0.049,0.205-0.183,0.217l-1.729,0.155c-0.134,0.012-0.207-0.048-0.219-0.181L146.973,85.727z
		 M147.205,88.317c-0.013-0.133,0.049-0.205,0.183-0.217l1.729-0.155c0.134-0.012,0.207,0.048,0.219,0.181l0.15,1.673
		c0.012,0.132-0.049,0.205-0.184,0.217l-1.729,0.155c-0.134,0.012-0.207-0.049-0.219-0.182L147.205,88.317z M152.101,88.383
		c-0.405-0.149-0.699-0.405-0.88-0.767c-0.182-0.362-0.301-0.86-0.357-1.494l-0.166-1.853c-0.023-0.266,0.022-0.47,0.138-0.615
		c0.115-0.144,0.361-0.233,0.736-0.267c0.39-0.035,0.666,0.004,0.832,0.116s0.261,0.308,0.286,0.586l0.116,1.295
		c0.021,0.239,0.074,0.418,0.158,0.538s0.205,0.203,0.362,0.249c0.157,0.046,0.359,0.065,0.605,0.056s0.548-0.029,0.905-0.061
		l4.131-0.37c0.079-0.007,0.135,0.024,0.168,0.095c0.033,0.07,0.053,0.144,0.061,0.223l0.152,1.698
		c0.012,0.131-0.049,0.203-0.182,0.215l-4.845,0.434c-0.397,0.036-0.688,0.212-0.873,0.53c-0.186,0.318-0.255,0.729-0.21,1.234
		l0.03,0.338c0.023,0.266-0.032,0.472-0.168,0.617c-0.136,0.146-0.378,0.234-0.727,0.266c-0.389,0.035-0.663-0.004-0.822-0.116
		c-0.158-0.113-0.25-0.31-0.275-0.588c-0.046-0.519-0.023-0.975,0.07-1.372C151.44,88.975,151.691,88.646,152.101,88.383z"/>
	<path class="st0" d="M158.374,90.479c0.457,0.423,0.833,0.925,1.127,1.505s0.432,1.283,0.413,2.11
		c-0.02,0.893-0.172,1.637-0.458,2.23s-0.662,1.065-1.129,1.415c-0.466,0.35-1.003,0.595-1.611,0.734s-1.251,0.202-1.929,0.188
		c-0.094-0.002-0.18-0.008-0.259-0.016c-0.08-0.009-0.16-0.014-0.239-0.016c-0.36,0.032-0.643,0.189-0.849,0.472
		c-0.205,0.282-0.313,0.67-0.324,1.163l-0.008,0.34c-0.006,0.267-0.084,0.465-0.235,0.595s-0.402,0.191-0.752,0.184
		c-0.391-0.009-0.658-0.078-0.804-0.208s-0.215-0.335-0.209-0.615c0.013-0.56,0.098-1.048,0.255-1.465
		c0.157-0.416,0.488-0.732,0.991-0.948c-0.452-0.263-0.758-0.62-0.916-1.07s-0.23-0.995-0.216-1.635l0.137-6.179
		c0.006-0.267,0.088-0.465,0.245-0.595c0.158-0.129,0.419-0.191,0.782-0.183c0.391,0.009,0.651,0.078,0.783,0.208
		s0.195,0.334,0.188,0.614l-0.117,5.319c-0.008,0.347,0.013,0.627,0.061,0.842c0.049,0.214,0.138,0.383,0.268,0.506
		s0.304,0.206,0.522,0.251c0.218,0.045,0.486,0.071,0.805,0.078c0.425,0.01,0.817-0.021,1.178-0.094s0.675-0.198,0.944-0.379
		c0.27-0.182,0.484-0.42,0.644-0.716c0.159-0.297,0.244-0.672,0.254-1.125c0.01-0.439-0.068-0.842-0.233-1.205
		c-0.165-0.364-0.392-0.689-0.679-0.976c-0.091-0.096-0.096-0.188-0.014-0.28l1.104-1.016
		C158.202,90.408,158.296,90.398,158.374,90.479z"/>
	<path class="st0" d="M151.063,99.134c0.034-0.265,0.122-0.455,0.267-0.571c0.144-0.115,0.409-0.148,0.797-0.1
		c0.374,0.048,0.63,0.145,0.768,0.29c0.137,0.146,0.188,0.356,0.152,0.635l-0.124,0.972c-0.042,0.331,0.003,0.582,0.135,0.754
		c0.133,0.171,0.397,0.282,0.793,0.333l10.259,1.312c0.132,0.018,0.189,0.091,0.173,0.223l-0.233,1.828
		c-0.018,0.131-0.092,0.188-0.224,0.172l-10.792-1.381c-0.86-0.11-1.469-0.367-1.827-0.773c-0.358-0.405-0.484-1.021-0.379-1.848
		L151.063,99.134z"/>
	<path class="st0" d="M150.007,107.26c-0.131-0.025-0.184-0.104-0.158-0.233l0.354-1.809c0.025-0.13,0.104-0.182,0.234-0.156
		l12.955,2.535c0.13,0.025,0.184,0.103,0.158,0.232l-0.354,1.81c-0.025,0.129-0.104,0.182-0.234,0.156L150.007,107.26z"/>
	<path d="M145.018,121.083c0.27-0.595,0.596-1.086,0.978-1.476s0.833-0.656,1.353-0.8c-0.112-0.172-0.178-0.343-0.194-0.516
		s-0.042-0.342-0.077-0.507c-0.034-0.166-0.104-0.325-0.211-0.479s-0.299-0.293-0.578-0.42l-3.022-1.373l0.927-2.039l3.405,1.547
		c0.388,0.177,0.687,0.374,0.895,0.594c0.208,0.219,0.359,0.448,0.455,0.689s0.158,0.482,0.188,0.723
		c0.03,0.24,0.065,0.469,0.106,0.686c0.041,0.216,0.102,0.42,0.184,0.61c0.081,0.191,0.232,0.351,0.452,0.48
		c0.127,0.043,0.255,0.09,0.386,0.142c0.13,0.052,0.268,0.111,0.413,0.178c0.741,0.336,1.329,0.717,1.766,1.143
		c0.437,0.425,0.736,0.876,0.9,1.354s0.215,0.979,0.15,1.508c-0.063,0.527-0.217,1.058-0.46,1.592s-0.542,0.999-0.897,1.394
		c-0.354,0.396-0.767,0.688-1.233,0.879c-0.468,0.189-1.005,0.261-1.612,0.212c-0.607-0.05-1.281-0.242-2.021-0.578
		c-0.109-0.05-0.215-0.102-0.314-0.154c-0.101-0.053-0.197-0.107-0.288-0.164c-0.521-0.207-0.939-0.247-1.253-0.119
		c-0.315,0.128-0.535,0.332-0.662,0.611l-0.24,0.527c-0.11,0.243-0.26,0.395-0.448,0.456c-0.189,0.061-0.441,0.019-0.757-0.124
		c-0.353-0.16-0.568-0.328-0.649-0.504c-0.081-0.177-0.064-0.392,0.052-0.646c0.094-0.207,0.198-0.42,0.313-0.639
		c0.113-0.219,0.251-0.424,0.411-0.614c0.159-0.191,0.349-0.358,0.567-0.5c0.219-0.143,0.484-0.238,0.8-0.285
		c-0.24-0.504-0.332-1.043-0.276-1.617S144.742,121.688,145.018,121.083z M151.206,123.9c0.264-0.58,0.271-1.097,0.024-1.552
		s-0.729-0.845-1.445-1.17c-0.777-0.354-1.4-0.465-1.869-0.336c-0.469,0.13-0.834,0.483-1.098,1.063s-0.285,1.087-0.065,1.521
		c0.22,0.436,0.712,0.826,1.477,1.174C149.698,125.27,150.69,125.035,151.206,123.9z"/>
	<path d="M144.201,127.427c0.402-0.058,0.823-0.048,1.263,0.03c0.44,0.078,0.906,0.276,1.397,0.594
		c0.391,0.253,0.75,0.572,1.078,0.959c0.328,0.386,0.563,0.829,0.709,1.327c0.145,0.498,0.173,1.049,0.084,1.65
		c-0.088,0.602-0.353,1.244-0.794,1.928c-0.478,0.738-1.009,1.284-1.594,1.637c-0.585,0.352-1.162,0.551-1.731,0.596
		c-0.126-0.002-0.193-0.069-0.202-0.202l-0.354-1.516c-0.027-0.129,0.028-0.204,0.169-0.224c0.855-0.146,1.508-0.565,1.957-1.26
		c0.369-0.571,0.485-1.119,0.351-1.643c-0.136-0.524-0.488-0.971-1.057-1.338c-0.334-0.216-0.655-0.349-0.964-0.397
		s-0.592-0.057-0.85-0.024c-0.258,0.031-0.482,0.093-0.675,0.183c-0.193,0.09-0.335,0.168-0.426,0.236l-2.356,3.646
		c-0.072,0.111-0.165,0.131-0.278,0.058l-1.34-0.866c-0.113-0.073-0.134-0.166-0.062-0.277l5.049-7.811
		c0.145-0.224,0.318-0.35,0.521-0.378c0.203-0.027,0.456,0.057,0.762,0.254c0.328,0.213,0.515,0.408,0.559,0.588
		s-0.009,0.387-0.161,0.622L144.201,127.427z"/>
	<path d="M135.888,140.966c-0.51-0.431-0.892-0.831-1.146-1.201c-0.255-0.37-0.407-0.732-0.457-1.086
		c-0.051-0.354,0.003-0.707,0.16-1.058c0.157-0.353,0.399-0.721,0.726-1.108l2.993-3.545c0.086-0.102,0.181-0.109,0.283-0.022
		l1.22,1.029c0.103,0.087,0.111,0.182,0.025,0.283l-2.399,2.843c-0.232,0.274-0.396,0.511-0.494,0.708
		c-0.097,0.197-0.134,0.38-0.11,0.548s0.1,0.329,0.23,0.483c0.131,0.153,0.308,0.324,0.531,0.513l1.02,0.861
		c0.893,0.754,1.777,0.611,2.654-0.429l1.549-1.833c0.086-0.103,0.18-0.11,0.281-0.024l1.223,1.032
		c0.103,0.086,0.11,0.18,0.024,0.282l-2.064,2.445c-0.687,0.813-1.454,1.272-2.303,1.378c-0.848,0.105-1.74-0.237-2.678-1.028
		L135.888,140.966z"/>
	<path d="M128.636,146.09c-0.2,0.134-0.338,0.27-0.413,0.408c-0.076,0.139-0.092,0.301-0.047,0.487
		c0.044,0.187,0.145,0.415,0.302,0.687s0.369,0.605,0.636,1.005l4.993,7.469c0.074,0.11,0.057,0.202-0.054,0.276l-1.533,1.024
		c-0.109,0.073-0.201,0.055-0.275-0.057l-3.273-4.86c-0.361,0.61-0.794,1.217-1.299,1.818c-0.504,0.602-1.094,1.129-1.77,1.58
		c-0.732,0.489-1.415,0.811-2.051,0.964c-0.636,0.152-1.231,0.167-1.787,0.043c-0.557-0.124-1.074-0.382-1.552-0.773
		c-0.479-0.392-0.917-0.887-1.316-1.482c-0.074-0.111-0.14-0.215-0.196-0.313c-0.058-0.098-0.108-0.18-0.152-0.246
		c-0.244-0.316-0.544-0.484-0.9-0.501c-0.356-0.018-0.746,0.114-1.167,0.396l-0.266,0.178c-0.222,0.148-0.43,0.198-0.623,0.149
		c-0.192-0.05-0.387-0.22-0.581-0.511c-0.218-0.324-0.314-0.584-0.291-0.777c0.022-0.193,0.15-0.368,0.383-0.523
		c0.478-0.319,0.937-0.525,1.38-0.618c0.442-0.094,0.895,0.013,1.356,0.32c-0.035-0.317-0.013-0.604,0.065-0.858
		s0.213-0.499,0.403-0.73c0.19-0.233,0.431-0.463,0.721-0.689c0.291-0.227,0.631-0.47,1.02-0.729l4.433-2.964
		c0.352-0.234,0.667-0.31,0.947-0.224c0.098-0.258,0.261-0.483,0.489-0.677c0.229-0.192,0.504-0.396,0.825-0.61l0.997-0.667
		c0.111-0.074,0.204-0.056,0.278,0.057l0.888,1.327c0.074,0.111,0.057,0.204-0.055,0.278L128.636,146.09z M125.063,154.083
		c0.622-0.416,1.171-0.919,1.646-1.508c0.476-0.589,0.872-1.149,1.191-1.683l-1.505-2.251c-0.089-0.133-0.168-0.264-0.238-0.393
		s-0.131-0.256-0.183-0.381l-3.635,2.43c-0.467,0.313-0.842,0.575-1.126,0.789c-0.283,0.213-0.471,0.426-0.562,0.639
		s-0.089,0.45,0.007,0.714s0.28,0.6,0.554,1.008c0.235,0.354,0.482,0.644,0.738,0.871c0.257,0.228,0.54,0.374,0.849,0.439
		c0.309,0.064,0.646,0.047,1.013-0.055C124.18,154.602,124.597,154.396,125.063,154.083z"/>
	<path d="M117.176,151.287c0.243-0.109,0.457-0.121,0.643-0.034c0.185,0.086,0.353,0.295,0.502,0.627
		c0.16,0.355,0.21,0.621,0.149,0.796c-0.06,0.175-0.218,0.32-0.473,0.435l-4.851,2.185c-0.316,0.143-0.561,0.281-0.733,0.418
		c-0.173,0.136-0.287,0.289-0.342,0.459s-0.056,0.363-0.002,0.58c0.054,0.216,0.146,0.47,0.276,0.76
		c0.175,0.388,0.373,0.731,0.596,1.031s0.474,0.532,0.753,0.698c0.279,0.165,0.586,0.253,0.92,0.264
		c0.333,0.01,0.707-0.078,1.12-0.265c0.401-0.181,0.73-0.424,0.987-0.729s0.453-0.65,0.588-1.032
		c0.047-0.124,0.129-0.168,0.247-0.134l1.392,0.558c0.142,0.054,0.191,0.134,0.151,0.239c-0.185,0.595-0.477,1.15-0.873,1.665
		c-0.396,0.516-0.972,0.942-1.726,1.282c-0.814,0.366-1.552,0.548-2.211,0.546c-0.659-0.003-1.248-0.141-1.765-0.412
		c-0.518-0.271-0.971-0.652-1.359-1.143s-0.723-1.046-1.002-1.665c-0.296-0.657-0.479-1.226-0.549-1.706
		c-0.069-0.48-0.043-0.898,0.082-1.254c0.125-0.356,0.346-0.664,0.66-0.922c0.314-0.26,0.709-0.495,1.184-0.709L117.176,151.287z
		 M117.885,162.264c0.122-0.055,0.21-0.021,0.266,0.102l0.713,1.584c0.056,0.122,0.022,0.211-0.1,0.266l-1.751,0.788
		c-0.121,0.055-0.21,0.021-0.265-0.102l-0.713-1.583c-0.056-0.123-0.022-0.212,0.1-0.267L117.885,162.264z"/>
	<path class="st1" d="M102.873,159.185c0.031,0.13-0.018,0.21-0.147,0.242l-1.942,0.475c-0.13,0.031-0.21-0.018-0.242-0.146
		l-0.484-1.982c-0.031-0.129,0.018-0.21,0.147-0.241l1.942-0.475c0.13-0.032,0.21,0.017,0.242,0.146L102.873,159.185z"/>
	<path class="st1" d="M98.647,160.154c0.023,0.131-0.031,0.208-0.162,0.231l-1.97,0.35c-0.131,0.023-0.208-0.031-0.231-0.162
		l-0.356-2.009c-0.023-0.131,0.031-0.209,0.162-0.231l1.969-0.35c0.132-0.023,0.209,0.03,0.232,0.162L98.647,160.154z"/>
	<path class="st1" d="M94.377,160.849c0.015,0.133-0.044,0.206-0.177,0.222l-1.987,0.223c-0.133,0.015-0.206-0.044-0.221-0.176
		l-0.229-2.027c-0.015-0.133,0.045-0.207,0.177-0.222l1.987-0.223c0.133-0.016,0.206,0.044,0.222,0.176L94.377,160.849z"/>
	<path class="st1" d="M90.068,161.272c0.006,0.133-0.057,0.203-0.19,0.209l-1.997,0.098c-0.134,0.007-0.203-0.057-0.21-0.19
		l-0.1-2.037c-0.007-0.134,0.058-0.203,0.19-0.21l1.998-0.097c0.133-0.007,0.202,0.057,0.209,0.189L90.068,161.272z"/>
	<path class="st1" d="M85.756,161.425c-0.003,0.133-0.07,0.198-0.204,0.196l-1.999-0.032c-0.134-0.002-0.199-0.07-0.197-0.203
		l0.033-2.04c0.002-0.134,0.07-0.199,0.203-0.196l2,0.032c0.133,0.002,0.199,0.069,0.196,0.203L85.756,161.425z"/>
	<path class="st1" d="M81.375,161.299c-0.01,0.133-0.081,0.194-0.215,0.184l-1.994-0.154c-0.132-0.01-0.193-0.082-0.184-0.215
		l0.158-2.033c0.01-0.134,0.082-0.194,0.214-0.185l1.994,0.154c0.134,0.011,0.194,0.082,0.185,0.215L81.375,161.299z"/>
	<path class="st1" d="M77.063,160.906c-0.019,0.132-0.094,0.188-0.226,0.17l-1.98-0.28c-0.132-0.019-0.189-0.095-0.17-0.227
		l0.285-2.02c0.02-0.132,0.095-0.188,0.227-0.17l1.98,0.28c0.132,0.019,0.188,0.094,0.17,0.226L77.063,160.906z"/>
	<path class="st1" d="M72.809,160.242c-0.026,0.13-0.105,0.183-0.236,0.155l-1.958-0.405c-0.13-0.027-0.183-0.106-0.155-0.236
		l0.414-1.998c0.027-0.131,0.105-0.183,0.236-0.155l1.959,0.405c0.13,0.027,0.182,0.106,0.154,0.236L72.809,160.242z"/>
	<path class="st1" d="M68.568,159.3c-0.035,0.128-0.117,0.175-0.245,0.14l-1.929-0.53c-0.128-0.036-0.175-0.118-0.14-0.246
		l0.542-1.967c0.035-0.129,0.117-0.176,0.245-0.14l1.929,0.53c0.129,0.035,0.175,0.117,0.14,0.246L68.568,159.3z"/>
	<path class="st1" d="M64.432,158.098c-0.043,0.126-0.127,0.167-0.254,0.124l-1.891-0.653c-0.125-0.043-0.167-0.128-0.123-0.254
		l0.666-1.929c0.043-0.126,0.128-0.167,0.254-0.123l1.891,0.652c0.126,0.044,0.167,0.128,0.123,0.254L64.432,158.098z"/>
	<path class="st1" d="M60.359,156.625c-0.052,0.123-0.139,0.159-0.262,0.107l-1.846-0.772c-0.122-0.052-0.158-0.139-0.106-0.262
		l0.788-1.882c0.051-0.123,0.139-0.158,0.262-0.107l1.845,0.773c0.123,0.051,0.159,0.139,0.106,0.262L60.359,156.625z"/>
	<path class="st1" d="M56.386,154.894c-0.06,0.12-0.149,0.15-0.269,0.091l-1.791-0.89c-0.119-0.06-0.149-0.148-0.09-0.268
		L55.143,152c0.061-0.12,0.149-0.149,0.269-0.091l1.792,0.89c0.119,0.06,0.148,0.148,0.09,0.268L56.386,154.894z"/>
	<path class="st1" d="M52.547,152.92c-0.067,0.115-0.158,0.14-0.273,0.072l-1.731-1.001c-0.115-0.067-0.14-0.158-0.073-0.273
		l1.021-1.766c0.066-0.116,0.158-0.14,0.273-0.073l1.73,1.002c0.116,0.066,0.141,0.157,0.074,0.272L52.547,152.92z"/>
	<path class="st1" d="M48.83,150.698c-0.074,0.111-0.166,0.13-0.277,0.056l-1.664-1.109c-0.11-0.074-0.129-0.167-0.055-0.277
		l1.131-1.697c0.074-0.111,0.168-0.129,0.277-0.056l1.664,1.109c0.111,0.074,0.13,0.167,0.057,0.277L48.83,150.698z"/>
	<path class="st1" d="M45.249,148.236c-0.081,0.106-0.175,0.119-0.28,0.038l-1.59-1.213c-0.105-0.081-0.119-0.175-0.038-0.281
		l1.237-1.621c0.082-0.106,0.175-0.118,0.281-0.038l1.59,1.214c0.105,0.081,0.118,0.174,0.037,0.28L45.249,148.236z"/>
	<path class="st1" d="M41.856,145.571c-0.087,0.101-0.181,0.107-0.282,0.02l-1.51-1.311c-0.102-0.088-0.107-0.182-0.02-0.282
		l1.337-1.541c0.087-0.101,0.181-0.106,0.282-0.02l1.51,1.312c0.102,0.087,0.107,0.181,0.02,0.282L41.856,145.571z"/>
	<path class="st1" d="M38.623,142.682c-0.094,0.096-0.188,0.096-0.283,0.002l-1.424-1.403c-0.096-0.094-0.096-0.188-0.002-0.283
		l1.432-1.453c0.094-0.095,0.188-0.095,0.283-0.002l1.424,1.404c0.096,0.094,0.096,0.188,0.002,0.283L38.623,142.682z"/>
	<path class="st1" d="M32.91,136.535c-0.104,0.083-0.197,0.072-0.28-0.032l-1.241-1.568c-0.083-0.104-0.072-0.198,0.032-0.28
		l1.599-1.267c0.105-0.083,0.199-0.072,0.281,0.032l1.242,1.568c0.082,0.104,0.072,0.198-0.033,0.28L32.91,136.535z"/>
	<path class="st1" d="M30.458,133.361c-0.109,0.076-0.202,0.061-0.278-0.049l-1.148-1.639c-0.076-0.108-0.06-0.202,0.05-0.278
		l1.671-1.17c0.109-0.077,0.202-0.061,0.278,0.049l1.147,1.638c0.076,0.109,0.061,0.202-0.049,0.278L30.458,133.361z"/>
	<path class="st1" d="M28.026,129.784c-0.114,0.069-0.206,0.047-0.274-0.066l-1.041-1.708c-0.07-0.113-0.048-0.205,0.066-0.274
		l1.741-1.063c0.114-0.069,0.206-0.047,0.274,0.066l1.042,1.708c0.069,0.114,0.047,0.205-0.067,0.275L28.026,129.784z"/>
	<path class="st1" d="M25.821,126.049c-0.118,0.062-0.208,0.034-0.271-0.084l-0.93-1.771c-0.063-0.118-0.033-0.209,0.084-0.271
		l1.807-0.948c0.117-0.063,0.207-0.034,0.27,0.084l0.93,1.771c0.063,0.118,0.034,0.208-0.084,0.271L25.821,126.049z"/>
	<path class="st1" d="M23.875,122.213c-0.122,0.055-0.211,0.021-0.265-0.101l-0.815-1.826c-0.055-0.122-0.021-0.21,0.101-0.265
		l1.862-0.832c0.123-0.054,0.211-0.021,0.265,0.102l0.815,1.826c0.055,0.122,0.021,0.21-0.101,0.264L23.875,122.213z"/>
	<path class="st1" d="M22.158,118.216c-0.124,0.047-0.21,0.008-0.256-0.117l-0.697-1.875c-0.046-0.125-0.007-0.211,0.118-0.257
		l1.913-0.711c0.125-0.046,0.21-0.007,0.256,0.118l0.697,1.875c0.046,0.125,0.007,0.211-0.118,0.257L22.158,118.216z"/>
	<path class="st1" d="M20.711,114.143c-0.127,0.039-0.21-0.006-0.248-0.134l-0.575-1.915c-0.038-0.128,0.007-0.211,0.134-0.249
		l1.954-0.587c0.128-0.038,0.211,0.007,0.249,0.135l0.574,1.915c0.039,0.128-0.006,0.211-0.133,0.249L20.711,114.143z"/>
	<path class="st1" d="M19.533,110.004c-0.129,0.03-0.209-0.02-0.24-0.149l-0.451-1.949c-0.029-0.129,0.021-0.21,0.15-0.239
		l1.987-0.461c0.13-0.03,0.21,0.021,0.239,0.15l0.451,1.948c0.031,0.13-0.02,0.21-0.148,0.239L19.533,110.004z"/>
	<path class="st1" d="M18.006,101.765c-0.133,0.014-0.207-0.046-0.221-0.179l-0.207-1.989c-0.014-0.132,0.045-0.205,0.178-0.22
		l2.029-0.211c0.133-0.015,0.205,0.045,0.22,0.178l0.208,1.989c0.014,0.133-0.046,0.206-0.179,0.22L18.006,101.765z"/>
	<path class="st1" d="M17.637,97.771c-0.133,0.006-0.203-0.058-0.209-0.19l-0.092-1.998c-0.006-0.133,0.059-0.203,0.191-0.209
		l2.037-0.093c0.134-0.006,0.203,0.058,0.209,0.19l0.092,1.998c0.006,0.134-0.058,0.203-0.191,0.209L17.637,97.771z"/>
	<path class="st1" d="M17.5,93.439c-0.133-0.003-0.199-0.07-0.197-0.204l0.034-1.999c0.003-0.134,0.07-0.199,0.204-0.197
		l2.039,0.035c0.133,0.002,0.199,0.07,0.197,0.203l-0.035,2c-0.002,0.133-0.069,0.199-0.203,0.196L17.5,93.439z"/>
	<path class="st1" d="M17.636,89.082c-0.133-0.01-0.194-0.082-0.183-0.215l0.16-1.993c0.01-0.133,0.082-0.194,0.215-0.184
		l2.033,0.164c0.133,0.011,0.194,0.083,0.184,0.215l-0.16,1.994c-0.011,0.133-0.082,0.194-0.215,0.183L17.636,89.082z"/>
	<path class="st1" d="M18.043,84.774c-0.132-0.019-0.188-0.094-0.17-0.227l0.287-1.979c0.02-0.131,0.096-0.188,0.227-0.169
		l2.02,0.292c0.132,0.02,0.188,0.095,0.169,0.227l-0.286,1.979c-0.02,0.132-0.096,0.188-0.227,0.169L18.043,84.774z"/>
	<path class="st1" d="M18.725,80.497c-0.13-0.028-0.182-0.106-0.154-0.237l0.412-1.957c0.027-0.13,0.107-0.182,0.237-0.154
		l1.996,0.421c0.131,0.027,0.183,0.106,0.155,0.237l-0.413,1.957c-0.027,0.13-0.106,0.182-0.237,0.154L18.725,80.497z"/>
	<path class="st1" d="M19.674,76.289c-0.128-0.036-0.174-0.118-0.139-0.247l0.537-1.926c0.035-0.128,0.117-0.175,0.246-0.139
		l1.965,0.547c0.129,0.036,0.176,0.118,0.139,0.246l-0.536,1.927c-0.036,0.128-0.118,0.175-0.246,0.139L19.674,76.289z"/>
	<path class="st1" d="M22.276,68.329c-0.123-0.051-0.159-0.138-0.107-0.261l0.771-1.846c0.052-0.123,0.139-0.159,0.262-0.107
		l1.882,0.787c0.123,0.051,0.158,0.139,0.107,0.262l-0.771,1.845c-0.051,0.123-0.139,0.159-0.262,0.107L22.276,68.329z"/>
	<path class="st1" d="M23.863,64.656c-0.12-0.059-0.15-0.147-0.092-0.268l0.879-1.796c0.059-0.12,0.147-0.15,0.268-0.092
		l1.832,0.897c0.119,0.059,0.15,0.148,0.092,0.268l-0.879,1.796c-0.059,0.12-0.148,0.15-0.268,0.092L23.863,64.656z"/>
	<path class="st1" d="M25.816,60.806c-0.115-0.066-0.141-0.157-0.074-0.273l0.991-1.737c0.065-0.116,0.157-0.141,0.272-0.075
		l1.771,1.012c0.116,0.066,0.141,0.157,0.075,0.273l-0.991,1.737c-0.066,0.116-0.158,0.141-0.273,0.074L25.816,60.806z"/>
	<path class="st1" d="M28.017,57.076c-0.11-0.073-0.13-0.166-0.057-0.277l1.101-1.67c0.072-0.111,0.166-0.13,0.276-0.057
		l1.704,1.123c0.111,0.073,0.13,0.166,0.057,0.277l-1.1,1.67c-0.074,0.112-0.166,0.13-0.277,0.057L28.017,57.076z"/>
	<path class="st1" d="M30.445,53.501c-0.107-0.08-0.12-0.173-0.04-0.28l1.204-1.597c0.08-0.106,0.174-0.119,0.279-0.039l1.629,1.228
		c0.107,0.081,0.12,0.174,0.04,0.28l-1.204,1.597c-0.08,0.106-0.174,0.12-0.279,0.04L30.445,53.501z"/>
	<path class="st1" d="M33.105,50.073c-0.102-0.087-0.108-0.181-0.021-0.282l1.303-1.518c0.087-0.101,0.182-0.108,0.282-0.021
		l1.548,1.329c0.102,0.087,0.107,0.181,0.021,0.282l-1.303,1.518c-0.087,0.101-0.182,0.108-0.282,0.021L33.105,50.073z"/>
</g>
</svg>
