<?xml version="1.0" encoding="utf-8"?>
<!-- Generator: Adobe Illustrator 24.0.2, SVG Export Plug-In . SVG Version: 6.00 Build 0)  -->
<svg version="1.1" baseProfile="tiny" id="Layer_1" xmlns="http://www.w3.org/2000/svg" xmlns:xlink="http://www.w3.org/1999/xlink"
	 x="0px" y="0px" viewBox="0 0 180 180" xml:space="preserve">
<g>
	<path fill="#13C0D7" d="M104.13,11.959c-0.073,0.664-0.311,1.233-0.712,1.708s-0.919,0.824-1.553,1.046
		c0.697,0.382,1.23,0.878,1.599,1.489c0.368,0.61,0.512,1.278,0.432,2.003c-0.138,1.242-0.676,2.16-1.616,2.756
		c-0.94,0.596-2.084,0.819-3.43,0.67c-1.408-0.156-2.525-0.63-3.353-1.421s-1.172-1.808-1.034-3.05
		c0.08-0.725,0.374-1.345,0.882-1.857c0.508-0.513,1.16-0.878,1.956-1.095c-0.602-0.359-1.054-0.815-1.356-1.368
		s-0.417-1.162-0.344-1.826c0.131-1.18,0.634-2.044,1.51-2.591c0.876-0.547,1.959-0.749,3.25-0.606
		c1.235,0.137,2.205,0.566,2.909,1.289C103.974,9.827,104.261,10.778,104.13,11.959z M101.218,17.778
		c0.065-0.596-0.066-1.107-0.396-1.533c-0.329-0.425-0.768-0.668-1.314-0.729c-0.603-0.067-1.125,0.07-1.566,0.41
		c-0.442,0.34-0.696,0.809-0.763,1.405c-0.067,0.608,0.077,1.116,0.434,1.522c0.356,0.407,0.845,0.645,1.466,0.713
		c0.553,0.061,1.031-0.069,1.434-0.392C100.915,18.852,101.15,18.387,101.218,17.778z M101.434,11.782
		c0.059-0.529-0.033-0.964-0.275-1.305c-0.242-0.341-0.585-0.536-1.027-0.585c-0.505-0.056-0.924,0.052-1.259,0.323
		s-0.532,0.677-0.592,1.218c-0.061,0.547,0.044,1.005,0.314,1.375c0.27,0.369,0.657,0.582,1.161,0.637
		c0.442,0.049,0.817-0.078,1.125-0.379C101.188,12.762,101.372,12.335,101.434,11.782z"/>
	<path fill="#13C0D7" d="M114.418,19.761c-0.409,1.53-1.132,2.624-2.169,3.281c-1.037,0.658-2.218,0.809-3.545,0.455
		c-1.338-0.358-2.294-1.081-2.867-2.168c-0.574-1.088-0.656-2.397-0.247-3.926l0.96-3.594c0.407-1.523,1.13-2.617,2.169-3.281
		c1.038-0.664,2.224-0.817,3.557-0.461c1.326,0.354,2.276,1.079,2.852,2.174s0.658,2.404,0.251,3.928L114.418,19.761z
		 M112.842,15.201c0.224-0.836,0.237-1.527,0.041-2.073c-0.197-0.546-0.579-0.895-1.146-1.046c-0.574-0.153-1.079-0.042-1.516,0.334
		c-0.437,0.376-0.767,0.983-0.99,1.819l-1.1,4.114c-0.229,0.854-0.246,1.553-0.051,2.094c0.194,0.542,0.581,0.89,1.161,1.045
		c0.567,0.152,1.069,0.041,1.505-0.332c0.436-0.374,0.768-0.987,0.996-1.842L112.842,15.201z"/>
	<path fill="#13C0D7" d="M124.556,24.05c-0.636,1.45-1.516,2.422-2.641,2.915c-1.124,0.493-2.315,0.464-3.572-0.087
		c-1.27-0.556-2.104-1.415-2.507-2.578c-0.402-1.162-0.285-2.468,0.351-3.918l1.493-3.407c0.633-1.444,1.514-2.416,2.641-2.915
		c1.126-0.499,2.321-0.471,3.585,0.083c1.257,0.551,2.087,1.411,2.49,2.581c0.402,1.169,0.287,2.476-0.347,3.92L124.556,24.05z
		 M123.688,19.304c0.348-0.793,0.465-1.474,0.354-2.043c-0.112-0.569-0.437-0.972-0.975-1.208c-0.544-0.238-1.061-0.205-1.549,0.101
		c-0.488,0.306-0.907,0.855-1.255,1.648l-1.709,3.9c-0.355,0.81-0.478,1.498-0.367,2.063s0.439,0.968,0.989,1.209
		c0.538,0.236,1.051,0.202,1.538-0.101c0.487-0.303,0.908-0.86,1.264-1.67L123.688,19.304z"/>
	<path fill="#13C0D7" d="M135.004,30.927l-4.476-3.135l1.197-1.71l4.476,3.135L135.004,30.927z"/>
	<path fill="#13C0D7" d="M141.297,40.348c0.461,0.483,1.021,0.705,1.681,0.665s1.315-0.372,1.969-0.995l0.63-0.603
		c-0.491,0.05-0.951-0.006-1.38-0.169c-0.43-0.163-0.809-0.417-1.138-0.761c-0.868-0.908-1.253-1.902-1.156-2.982
		s0.652-2.105,1.668-3.076c0.979-0.936,2.083-1.405,3.313-1.408c1.229-0.002,2.299,0.472,3.209,1.425
		c0.94,0.984,1.376,2.103,1.309,3.356c-0.068,1.254-0.688,2.441-1.859,3.56l-2.629,2.513c-1.127,1.077-2.346,1.593-3.654,1.547
		c-1.31-0.045-2.464-0.59-3.464-1.637c-0.324-0.34-0.622-0.725-0.892-1.156c-0.271-0.43-0.49-0.869-0.659-1.314l1.729-1.024
		c0.153,0.393,0.331,0.749,0.534,1.069C140.708,39.679,140.972,40.009,141.297,40.348z M144.808,37.443
		c0.304,0.317,0.636,0.535,0.996,0.653c0.36,0.117,0.718,0.143,1.074,0.077l1.14-1.089c0.613-0.585,0.962-1.158,1.047-1.719
		c0.085-0.56-0.073-1.05-0.476-1.471c-0.376-0.394-0.861-0.537-1.456-0.43c-0.596,0.107-1.159,0.415-1.691,0.923
		c-0.559,0.534-0.903,1.073-1.034,1.617S144.41,37.027,144.808,37.443z"/>
	<path fill="#13C0D7" d="M147.89,51.499l-1.553-2.208l9.121-6.415l-1.606-2.284l1.692-1.19l3.555,4.215L147.89,51.499z"/>
	<path fill="#141923" d="M159.104,70.024c0.022,0.058,0.01,0.096-0.036,0.113l-1.979,0.749c-0.058,0.022-0.098,0.004-0.119-0.054
		l-2.039-5.388c-0.622-1.643-0.722-3.063-0.299-4.262s1.32-2.057,2.691-2.575c0.873-0.331,1.727-0.416,2.562-0.255
		c0.834,0.161,1.582,0.56,2.244,1.199c0.661,0.639,1.195,1.494,1.6,2.564l0.188,0.495l0.867-0.329l1.012,2.672l-7.531,2.85
		L159.104,70.024z M157.263,65.156l4.529-1.714l-0.177-0.469c-0.307-0.81-0.742-1.357-1.307-1.643s-1.223-0.286-1.975-0.002
		c-0.706,0.267-1.168,0.687-1.389,1.26c-0.22,0.572-0.177,1.261,0.127,2.064L157.263,65.156z M165.287,60.225
		c-0.139-0.364-0.134-0.697,0.014-0.998c0.147-0.3,0.418-0.525,0.812-0.674c0.399-0.151,0.753-0.165,1.062-0.04
		c0.309,0.125,0.532,0.372,0.673,0.742c0.138,0.365,0.133,0.693-0.014,0.987c-0.146,0.293-0.423,0.517-0.827,0.67
		c-0.405,0.153-0.76,0.165-1.063,0.035C165.639,60.82,165.42,60.578,165.287,60.225z M166.43,63.245
		c-0.139-0.364-0.134-0.697,0.014-0.998c0.147-0.3,0.418-0.525,0.812-0.674c0.399-0.151,0.753-0.165,1.062-0.04
		c0.309,0.125,0.532,0.372,0.673,0.742c0.14,0.37,0.135,0.703-0.015,0.998s-0.424,0.518-0.823,0.668
		c-0.394,0.149-0.745,0.158-1.056,0.028S166.563,63.598,166.43,63.245z"/>
	<path fill="#141923" d="M152.508,73.607c-0.084-0.38-0.031-0.709,0.158-0.985s0.49-0.459,0.9-0.549
		c0.417-0.091,0.769-0.053,1.056,0.115s0.474,0.445,0.559,0.832c0.083,0.38,0.031,0.706-0.156,0.975
		c-0.188,0.27-0.493,0.45-0.916,0.543c-0.423,0.093-0.775,0.053-1.057-0.119C152.77,74.246,152.588,73.975,152.508,73.607z
		 M153.2,76.761c-0.084-0.381-0.03-0.709,0.159-0.985s0.489-0.459,0.9-0.549c0.417-0.091,0.769-0.053,1.056,0.115
		s0.473,0.445,0.558,0.832c0.085,0.386,0.032,0.715-0.158,0.985c-0.191,0.27-0.495,0.451-0.912,0.542
		c-0.41,0.09-0.76,0.048-1.049-0.125C153.466,77.4,153.281,77.129,153.2,76.761z M156.602,70.105c-0.014-0.06,0.01-0.097,0.07-0.11
		l2.066-0.454c0.048-0.01,0.079,0.015,0.092,0.075l0.631,2.873l6.959-1.529l0.607,2.764l-6.959,1.529l0.613,2.791
		c0.014,0.06-0.004,0.096-0.053,0.106l-2.065,0.454c-0.061,0.014-0.098-0.01-0.11-0.07L156.602,70.105z"/>
	<path fill="#141923" d="M160.906,79.677c0.752-0.396,1.61-0.628,2.572-0.698c0.549-0.04,1.147,0.01,1.797,0.149
		c0.648,0.139,1.211,0.327,1.688,0.566c0.396,0.585,0.711,1.215,0.946,1.889c0.234,0.674,0.371,1.271,0.408,1.789
		c0.063,0.863-0.065,1.662-0.384,2.395c-0.319,0.733-0.803,1.318-1.449,1.756c-0.647,0.438-1.419,0.688-2.313,0.753
		c-0.691,0.05-1.351-0.02-1.979-0.21c-0.23,0.246-0.386,0.52-0.466,0.82c-0.081,0.3-0.104,0.673-0.072,1.117l0.007,0.102
		c0.005,0.062-0.018,0.094-0.067,0.098l-2.109,0.153c-0.062,0.004-0.095-0.024-0.1-0.086l-0.007-0.102
		c-0.049-0.666,0.004-1.251,0.156-1.755c0.152-0.504,0.447-0.992,0.885-1.464c-0.455-0.451-0.811-0.98-1.069-1.587
		c-0.258-0.608-0.41-1.242-0.458-1.901l-0.418-5.756c-0.004-0.062,0.024-0.095,0.086-0.099l2.109-0.153
		c0.05-0.003,0.076,0.025,0.081,0.087L160.906,79.677z M163.271,81.626c-0.642,0.046-1.368,0.245-2.18,0.595l0.052,0.712
		c0.055,0.765,0.357,1.387,0.907,1.864c0.549,0.478,1.188,0.691,1.916,0.638c0.672-0.049,1.195-0.251,1.569-0.607
		c0.374-0.356,0.542-0.805,0.502-1.348c-0.041-0.567-0.26-1.144-0.655-1.729C164.702,81.615,163.998,81.573,163.271,81.626z"/>
	<path fill="#141923" d="M161.401,92.302c0.779-0.54,1.64-0.766,2.582-0.675c1.409,0.137,2.481,0.73,3.216,1.783
		c0.734,1.052,1.018,2.446,0.851,4.183l-0.325,3.371l-9.363-0.902l1.029-10.685c0.006-0.062,0.04-0.089,0.102-0.083l2.105,0.203
		c0.049,0.004,0.07,0.038,0.064,0.099L161.401,92.302z M160.904,97.464l4.82,0.465l0.048-0.499c0.082-0.85-0.065-1.529-0.442-2.037
		c-0.376-0.509-0.968-0.802-1.774-0.88c-0.751-0.072-1.352,0.099-1.801,0.512c-0.45,0.413-0.717,1.048-0.799,1.904L160.904,97.464z
		 M169.542,99.126c0.038-0.389,0.188-0.684,0.454-0.889s0.607-0.287,1.025-0.246c0.425,0.041,0.748,0.186,0.97,0.434
		s0.313,0.57,0.275,0.963c-0.038,0.395-0.189,0.691-0.454,0.889c-0.265,0.199-0.608,0.277-1.033,0.236
		c-0.419-0.041-0.739-0.188-0.96-0.441C169.599,99.816,169.506,99.501,169.542,99.126z M169.853,95.912
		c0.037-0.388,0.188-0.685,0.453-0.889c0.266-0.204,0.607-0.286,1.025-0.246c0.425,0.041,0.748,0.186,0.97,0.434
		s0.313,0.569,0.275,0.964c-0.037,0.388-0.187,0.681-0.448,0.879c-0.262,0.199-0.607,0.277-1.038,0.236
		c-0.432-0.042-0.755-0.188-0.97-0.439C169.905,96.601,169.815,96.287,169.853,95.912z"/>
	<path fill="#141923" d="M158.202,110.466c-0.015,0.06-0.046,0.084-0.094,0.072l-2.053-0.511c-0.061-0.015-0.083-0.053-0.068-0.112
		l0.596-2.395l-0.297-0.074c-1.267-0.314-2.185-0.914-2.756-1.799c-0.57-0.884-0.71-1.911-0.419-3.082
		c0.156-0.63,0.375-1.189,0.656-1.677c0.28-0.488,0.688-0.975,1.223-1.46l1.517,1.553c-0.284,0.273-0.497,0.525-0.637,0.755
		s-0.253,0.519-0.34,0.866c-0.122,0.492-0.033,0.936,0.268,1.329c0.3,0.393,0.735,0.66,1.306,0.802l9.292,2.311l-0.683,2.745
		l-6.915-1.719L158.202,110.466z"/>
	<path fill="#141923" d="M156.132,109.254c0.021-0.058,0.062-0.076,0.119-0.055l1.983,0.736c0.046,0.018,0.059,0.055,0.037,0.113
		l-0.827,2.226l11.393,4.231l-0.984,2.653l-13.532-5.026L156.132,109.254z"/>
	<path fill="#141923" d="M165.975,123.537l-1.232,2.548l-12.995-6.287l1.232-2.547L165.975,123.537z"/>
	<path fill="#141923" d="M144.392,130.911c0.958-1.214,1.975-1.908,3.051-2.083s2.18,0.184,3.311,1.077
		c0.771,0.609,1.361,1.332,1.768,2.17c0.407,0.837,0.571,1.687,0.495,2.547c-0.077,0.861-0.405,1.658-0.984,2.392
		c-0.532,0.675-1.197,1.147-1.993,1.417s-1.667,0.313-2.613,0.129s-1.804-0.578-2.57-1.184c-1.18-0.932-1.797-1.932-1.853-2.999
		C142.947,133.309,143.41,132.154,144.392,130.911z M146.216,132.328c-0.414,0.523-0.58,1.021-0.498,1.491
		c0.082,0.471,0.406,0.93,0.975,1.379c0.641,0.506,1.317,0.794,2.03,0.864c0.713,0.069,1.238-0.108,1.575-0.536
		c0.337-0.427,0.393-0.972,0.168-1.635c-0.226-0.662-0.671-1.256-1.336-1.781c-0.573-0.452-1.099-0.66-1.576-0.624
		C147.076,131.524,146.63,131.804,146.216,132.328z M152.346,138.952c0.241-0.307,0.528-0.474,0.862-0.502
		c0.333-0.027,0.665,0.089,0.995,0.349c0.335,0.265,0.528,0.562,0.58,0.89c0.053,0.329-0.044,0.648-0.29,0.959
		c-0.245,0.311-0.532,0.478-0.862,0.501s-0.662-0.097-0.997-0.361c-0.33-0.261-0.519-0.558-0.567-0.891
		C152.019,139.563,152.111,139.248,152.346,138.952z M154.346,136.418c0.242-0.306,0.529-0.474,0.862-0.501
		c0.334-0.028,0.666,0.088,0.996,0.349c0.335,0.264,0.528,0.561,0.58,0.89c0.052,0.328-0.045,0.647-0.29,0.958
		c-0.241,0.307-0.526,0.472-0.854,0.497s-0.66-0.097-1-0.364c-0.34-0.269-0.532-0.566-0.578-0.894
		C154.018,137.026,154.112,136.714,154.346,136.418z"/>
	<path fill="#141923" d="M137.564,141.817c-0.044,0.043-0.084,0.047-0.118,0.012l-1.476-1.516c-0.043-0.045-0.042-0.089,0.002-0.132
		l3.729-3.63l10.069,10.343l-2.027,1.974l-8.478-8.708L137.564,141.817z"/>
	<path fill="#141923" d="M129.003,139.618c0.307-0.24,0.626-0.335,0.956-0.284c0.331,0.051,0.626,0.241,0.886,0.572
		c0.264,0.335,0.383,0.669,0.355,1.001c-0.026,0.331-0.195,0.619-0.507,0.863c-0.312,0.245-0.63,0.34-0.956,0.285
		s-0.62-0.25-0.884-0.585c-0.26-0.331-0.374-0.664-0.343-1C128.542,140.135,128.707,139.851,129.003,139.618z M136.476,139.789
		c0.048-0.038,0.092-0.032,0.13,0.016l1.307,1.664c0.03,0.039,0.021,0.077-0.027,0.115l-2.313,1.816l4.4,5.604l-2.226,1.748
		l-4.4-5.604l-2.248,1.765c-0.048,0.038-0.088,0.038-0.118-0.001l-1.307-1.664c-0.038-0.049-0.033-0.092,0.016-0.13L136.476,139.789
		z M131.542,137.623c0.307-0.24,0.626-0.335,0.956-0.284c0.331,0.051,0.627,0.241,0.887,0.572c0.263,0.336,0.382,0.669,0.354,1.001
		c-0.026,0.331-0.195,0.619-0.507,0.864c-0.307,0.24-0.621,0.335-0.945,0.282c-0.324-0.052-0.62-0.248-0.888-0.589
		c-0.267-0.341-0.384-0.675-0.352-1.004C131.081,138.138,131.246,137.857,131.542,137.623z"/>
	<path fill="#141923" d="M130.4,144.766c0.054-0.031,0.096-0.02,0.127,0.033l1.065,1.828c0.025,0.042,0.011,0.079-0.043,0.11
		l-6.628,3.864c0.67,0.154,1.46,0.742,2.371,1.765c0.58,0.65,1.102,1.038,1.565,1.165c0.465,0.127,0.987,0.021,1.57-0.319
		c0.385-0.225,0.717-0.482,0.997-0.775c0.281-0.292,0.555-0.663,0.822-1.112l1.789,1.373c-0.673,1.094-1.663,2.022-2.972,2.785
		c-1.096,0.639-2.091,0.89-2.987,0.754c-0.896-0.137-1.769-0.713-2.618-1.728c-1.233-1.465-2.228-2.292-2.982-2.481l-1.065,0.621
		c-0.059,0.034-0.101,0.03-0.126-0.013l-1.065-1.827c-0.031-0.053-0.018-0.097,0.042-0.131L130.4,144.766z"/>
	<path fill="#141923" d="M120.848,150.223c0.057-0.023,0.097-0.008,0.121,0.05l0.821,1.949c0.02,0.045,0.001,0.08-0.057,0.104
		l-2.188,0.922l4.722,11.199l-2.607,1.099l-5.607-13.301L120.848,150.223z"/>
	<path fill="#141923" d="M117.205,167.17l-2.699,0.848l-4.324-13.773l2.699-0.848L117.205,167.17z"/>
	<path fill="#141923" d="M97.034,156.494c1.54-0.132,2.742,0.134,3.606,0.799c0.863,0.665,1.357,1.715,1.48,3.151
		c0.083,0.979-0.041,1.904-0.373,2.773c-0.332,0.87-0.838,1.571-1.519,2.104s-1.486,0.84-2.417,0.919
		c-0.856,0.073-1.656-0.088-2.397-0.483c-0.741-0.396-1.369-1.002-1.883-1.817c-0.514-0.816-0.813-1.711-0.896-2.685
		c-0.128-1.497,0.179-2.632,0.919-3.402C94.297,157.081,95.456,156.628,97.034,156.494z M96.614,167.796
		c0.388-0.033,0.706,0.062,0.955,0.285c0.249,0.225,0.392,0.546,0.428,0.965c0.036,0.425-0.048,0.769-0.252,1.032
		c-0.204,0.262-0.503,0.41-0.897,0.444c-0.395,0.033-0.713-0.062-0.956-0.286c-0.242-0.225-0.382-0.549-0.418-0.975
		c-0.036-0.419,0.051-0.76,0.261-1.023C95.945,167.976,96.238,167.828,96.614,167.796z M97.249,158.793
		c-0.665,0.057-1.142,0.276-1.429,0.657c-0.287,0.382-0.399,0.934-0.338,1.654c0.069,0.813,0.323,1.504,0.76,2.072
		c0.437,0.567,0.926,0.828,1.468,0.782c0.542-0.047,0.978-0.379,1.307-0.997s0.457-1.349,0.385-2.193
		c-0.062-0.727-0.27-1.252-0.623-1.576C98.425,158.869,97.915,158.737,97.249,158.793z M99.831,167.521
		c0.388-0.033,0.706,0.062,0.955,0.285c0.249,0.225,0.392,0.546,0.428,0.965c0.036,0.425-0.048,0.769-0.252,1.032
		c-0.204,0.262-0.503,0.41-0.897,0.444c-0.389,0.033-0.704-0.061-0.946-0.282s-0.382-0.548-0.419-0.979
		c-0.037-0.431,0.049-0.775,0.256-1.032C99.163,167.697,99.455,167.553,99.831,167.521z"/>
	<path fill="#141923" d="M90.7,159.374l-6.329-0.466c0.173,1.185,0.42,2.15,0.74,2.896s0.75,1.4,1.288,1.965
		c0.539,0.563,1.211,1.049,2.019,1.455l-1.26,2.577c-1.64-0.803-2.918-1.95-3.835-3.44c-0.917-1.491-1.518-3.404-1.805-5.738
		l0.163-2.202l9.187,0.678L90.7,159.374z"/>
	<path fill="#141923" d="M68.288,155.718c-0.06-0.015-0.084-0.046-0.073-0.094l0.5-2.056c0.015-0.06,0.052-0.083,0.112-0.068
		l2.308,0.562c0.342-1.406,1.033-2.394,2.072-2.962c1.039-0.568,2.333-0.664,3.884-0.287c0.835,0.203,1.542,0.443,2.121,0.721
		c0.579,0.278,1.109,0.653,1.592,1.128l-1.562,1.749c-0.436-0.38-0.863-0.676-1.283-0.89c-0.419-0.213-0.869-0.378-1.35-0.495
		c-0.697-0.17-1.282-0.109-1.753,0.18c-0.472,0.29-0.789,0.768-0.951,1.435l-0.022,0.091l1.83,0.445
		c1.316,0.319,2.238,0.938,2.766,1.856c0.528,0.917,0.625,2.064,0.29,3.44c-0.237,0.974-0.688,1.77-1.354,2.387
		c-0.666,0.618-1.491,1.015-2.476,1.188c-0.984,0.175-2.06,0.12-3.226-0.164l-2.804-0.682l1.684-6.923L68.288,155.718z
		 M73.345,156.949l-1.145,4.705l0.595,0.145c0.788,0.191,1.456,0.119,2.006-0.219c0.55-0.337,0.923-0.911,1.121-1.723
		c0.18-0.739,0.162-1.319-0.054-1.741s-0.633-0.708-1.252-0.858L73.345,156.949z"/>
	<path fill="#141923" d="M69.695,153.749c0.057,0.024,0.073,0.064,0.049,0.121l-0.837,1.942c-0.02,0.046-0.058,0.057-0.115,0.032
		l-7.028-3.03l-0.007,0.017c0.278,0.605,0.271,1.582-0.021,2.931c-0.179,0.853-0.182,1.503-0.008,1.952
		c0.174,0.448,0.57,0.807,1.189,1.073c0.409,0.176,0.814,0.29,1.216,0.343c0.402,0.052,0.863,0.052,1.384,0l-0.042,2.255
		c-1.279,0.108-2.615-0.137-4.006-0.737c-1.164-0.502-1.958-1.153-2.38-1.955c-0.422-0.802-0.477-1.846-0.165-3.133
		c0.446-1.861,0.521-3.152,0.225-3.873l0.904-2.096L69.695,153.749z M67.333,147.558c0.363,0.157,0.602,0.393,0.715,0.707
		c0.113,0.315,0.087,0.666-0.08,1.052c-0.169,0.393-0.405,0.656-0.709,0.791s-0.641,0.123-1.01-0.036
		c-0.352-0.152-0.584-0.384-0.696-0.694s-0.082-0.665,0.089-1.063c0.167-0.387,0.404-0.646,0.714-0.778
		C66.667,147.404,66.992,147.411,67.333,147.558z"/>
	<path fill="#141923" d="M39.692,134.379c0.517,0.443,0.895,0.894,1.134,1.351c0.239,0.458,0.376,1.061,0.412,1.808
		c0.011,0.196-0.023,0.729-0.101,1.6c-0.088,1.024-0.094,1.754-0.019,2.189c0.075,0.435,0.228,0.751,0.458,0.948
		c0.155,0.133,0.418,0.22,0.79,0.262c0.372,0.042,0.728,0.025,1.069-0.049c0.341-0.075,0.576-0.188,0.704-0.338
		c0.169-0.197,0.233-0.439,0.191-0.729c-0.042-0.288-0.191-0.648-0.448-1.08c-0.438-0.734-0.723-1.321-0.856-1.761
		c-0.132-0.439-0.158-0.855-0.077-1.25s0.277-0.772,0.587-1.135c0.729-0.85,1.628-1.203,2.698-1.06s2.298,0.81,3.684,1.997
		l3.402,2.916c0.55,0.471,0.928,1.037,1.134,1.699c0.207,0.661,0.218,1.35,0.034,2.063c-0.184,0.713-0.546,1.385-1.085,2.014
		c-0.805,0.939-1.757,1.736-2.855,2.392l-1.916-1.643c0.464-0.294,0.869-0.604,1.215-0.926c0.346-0.322,0.749-0.752,1.207-1.287
		c0.282-0.328,0.468-0.709,0.557-1.142s0.072-0.847-0.053-1.242c-0.125-0.396-0.331-0.718-0.617-0.963l-2.494-2.138
		c-0.78-0.668-1.362-1.064-1.747-1.191c-0.385-0.126-0.696-0.05-0.933,0.227c-0.141,0.165-0.182,0.372-0.124,0.621
		c0.059,0.251,0.222,0.571,0.489,0.963c0.63,0.899,0.957,1.654,0.977,2.268c0.021,0.612-0.218,1.209-0.717,1.792
		c-0.431,0.502-1.064,0.873-1.901,1.113s-1.706,0.301-2.608,0.185c-0.901-0.117-1.618-0.403-2.148-0.858
		c-0.31-0.266-0.545-0.571-0.706-0.916c-0.16-0.345-0.26-0.744-0.299-1.197c-0.039-0.453,0.004-1.318,0.129-2.596
		c0.102-1.013,0.098-1.728-0.014-2.145c-0.111-0.417-0.324-0.76-0.638-1.029l-0.071-0.061c-0.051-0.044-0.061-0.085-0.029-0.123
		l1.376-1.605c0.04-0.047,0.086-0.049,0.138-0.004L39.692,134.379z"/>
	<path fill="#141923" d="M40.662,134.629c0.039,0.048,0.035,0.092-0.014,0.13l-1.646,1.33c-0.039,0.03-0.077,0.022-0.116-0.026
		l-1.493-1.847l-9.454,7.637l-1.778-2.201l9.454-7.637l-1.551-1.92c-0.039-0.048-0.039-0.088,0-0.119l1.646-1.329
		c0.048-0.039,0.092-0.034,0.13,0.014L40.662,134.629z"/>
	<path fill="#141923" d="M36.17,129.307c0.032,0.053,0.022,0.095-0.03,0.128l-1.799,1.111c-0.042,0.026-0.08,0.013-0.112-0.04
		l-1.536-2.485c0.068,0.51-0.038,1.016-0.318,1.516c-0.28,0.5-0.68,0.911-1.201,1.233c-1.21,0.747-2.408,0.937-3.592,0.567
		c-1.185-0.37-2.205-1.246-3.06-2.63c-0.292-0.474-0.546-1.002-0.762-1.586c-0.215-0.583-0.344-1.068-0.387-1.456l2.313-0.492
		c0.078,0.526,0.182,0.975,0.313,1.345c0.13,0.37,0.3,0.724,0.508,1.061c0.41,0.663,0.903,1.066,1.48,1.212
		c0.577,0.146,1.196,0.013,1.859-0.396c0.652-0.403,1.071-0.92,1.256-1.551c0.185-0.63,0.082-1.261-0.308-1.893l-1.829-2.959
		l1.941-1.2L36.17,129.307z"/>
	<path fill="#141923" d="M14.487,110.234c0.116,0.372,0.092,0.703-0.073,0.994c-0.165,0.292-0.448,0.5-0.85,0.625
		c-0.407,0.128-0.761,0.12-1.062-0.022c-0.301-0.143-0.51-0.403-0.628-0.781c-0.118-0.378-0.093-0.709,0.073-0.995
		c0.167-0.285,0.454-0.491,0.861-0.618c0.401-0.126,0.753-0.114,1.056,0.034S14.375,109.873,14.487,110.234z M15.449,113.315
		c0.116,0.372,0.092,0.704-0.073,0.995c-0.165,0.291-0.448,0.5-0.85,0.625c-0.407,0.127-0.761,0.119-1.062-0.023
		c-0.3-0.143-0.51-0.402-0.628-0.78c-0.116-0.372-0.092-0.7,0.072-0.984c0.164-0.285,0.453-0.491,0.866-0.62
		c0.413-0.13,0.768-0.12,1.063,0.027S15.337,112.955,15.449,113.315z M22.199,103.899c-0.019-0.06-0.004-0.097,0.043-0.111
		l2.019-0.63c0.059-0.019,0.098,0.002,0.116,0.061l1.718,5.499c0.523,1.677,0.539,3.101,0.046,4.272
		c-0.493,1.171-1.438,1.975-2.838,2.412c-0.891,0.278-1.749,0.313-2.572,0.104c-0.823-0.21-1.546-0.652-2.169-1.33
		c-0.623-0.677-1.105-1.562-1.446-2.653l-0.158-0.505l-0.886,0.276l-0.852-2.728l7.687-2.4L22.199,103.899z M23.75,108.867
		l-4.623,1.443l0.149,0.479c0.258,0.826,0.661,1.399,1.207,1.718s1.204,0.357,1.971,0.118c0.72-0.226,1.207-0.617,1.46-1.176
		c0.253-0.559,0.252-1.248-0.004-2.068L23.75,108.867z"/>
	<path fill="#141923" d="M24.352,104.306c0.006,0.061-0.021,0.095-0.083,0.101l-2.105,0.206c-0.049,0.005-0.077-0.024-0.083-0.086
		l-0.217-2.225l-12.096,1.18l-0.276-2.825l8.319-0.812c-2.445-0.924-3.778-2.518-4-4.783c-0.151-1.545,0.144-2.752,0.882-3.619
		c0.739-0.867,1.961-1.384,3.666-1.551l2.271-0.222l-0.241-2.465c-0.006-0.061,0.016-0.095,0.065-0.099l2.105-0.206
		c0.062-0.006,0.095,0.022,0.101,0.083L24.352,104.306z M12.473,96.245c0.038,0.395-0.053,0.717-0.274,0.969
		c-0.221,0.251-0.541,0.397-0.959,0.438c-0.425,0.041-0.77-0.038-1.035-0.239s-0.417-0.502-0.456-0.902
		c-0.037-0.382,0.053-0.696,0.271-0.944s0.542-0.394,0.974-0.436c0.418-0.041,0.761,0.043,1.026,0.25S12.437,95.876,12.473,96.245z
		 M20.906,92.487l-2.327,0.227c-0.917,0.09-1.572,0.366-1.965,0.83c-0.393,0.465-0.546,1.137-0.46,2.017
		c0.166,1.699,1.485,3.053,3.957,4.061l1.477-0.144L20.906,92.487z"/>
	<path fill="#141923" d="M12.672,79.737c-0.041,0.394-0.195,0.692-0.462,0.894c-0.267,0.203-0.609,0.282-1.028,0.238
		c-0.424-0.044-0.746-0.191-0.966-0.442c-0.219-0.25-0.308-0.575-0.266-0.975c0.04-0.381,0.191-0.671,0.455-0.871
		c0.263-0.199,0.61-0.276,1.041-0.231c0.418,0.044,0.737,0.194,0.956,0.45C12.621,79.056,12.711,79.368,12.672,79.737z
		 M20.922,85.051c-0.784,0.534-1.646,0.751-2.587,0.653c-1.409-0.148-2.476-0.75-3.202-1.81c-0.725-1.058-0.997-2.455-0.815-4.189
		l0.353-3.368l9.356,0.98l-1.118,10.675c-0.006,0.062-0.04,0.089-0.102,0.083l-2.104-0.22c-0.049-0.005-0.071-0.039-0.064-0.1
		L20.922,85.051z M21.462,79.893l-4.816-0.504l-0.052,0.498c-0.089,0.849,0.053,1.529,0.425,2.041
		c0.373,0.512,0.961,0.81,1.767,0.894c0.751,0.079,1.353-0.087,1.806-0.497c0.454-0.41,0.725-1.042,0.814-1.897L21.462,79.893z"/>
	<path fill="#141923" d="M23.723,68.866c0.015-0.06,0.046-0.084,0.094-0.073l2.056,0.498c0.061,0.015,0.083,0.052,0.068,0.112
		l-1.226,5.058l-14.03-3.401l0.667-2.75l11.811,2.863L23.723,68.866z"/>
	<path fill="#141923" d="M25.577,70.081c-0.022,0.058-0.062,0.076-0.12,0.054l-1.975-0.759c-0.046-0.018-0.058-0.056-0.036-0.113
		l2.751-7.162c-0.618,0.299-1.603,0.335-2.953,0.108c-0.859-0.145-1.509-0.121-1.95,0.071s-0.783,0.602-1.024,1.231
		c-0.16,0.416-0.258,0.825-0.293,1.229c-0.036,0.403-0.018,0.864,0.055,1.383l-2.254,0.048c-0.16-1.274,0.032-2.618,0.575-4.033
		c0.455-1.183,1.074-2.002,1.858-2.457s1.825-0.551,3.123-0.291c1.878,0.371,3.171,0.394,3.879,0.069l0.442-1.152
		c0.024-0.063,0.06-0.086,0.106-0.069l1.974,0.759c0.058,0.022,0.075,0.065,0.05,0.128L25.577,70.081z"/>
	<path fill="#141923" d="M28.499,56.89c-0.844-0.103-1.682-0.4-2.512-0.89c-0.474-0.28-0.938-0.662-1.393-1.145
		c-0.455-0.484-0.81-0.959-1.065-1.426c0.008-0.707,0.107-1.404,0.297-2.092c0.191-0.688,0.418-1.256,0.682-1.704
		c0.44-0.746,1-1.329,1.68-1.75c0.68-0.421,1.41-0.628,2.191-0.619s1.558,0.241,2.33,0.697c0.597,0.352,1.099,0.785,1.507,1.298
		c0.329-0.071,0.613-0.208,0.85-0.409c0.237-0.201,0.469-0.493,0.695-0.877l0.052-0.088c0.031-0.053,0.068-0.067,0.111-0.042
		l1.822,1.075c0.053,0.031,0.064,0.074,0.033,0.127l-0.052,0.088c-0.34,0.575-0.715,1.027-1.128,1.354
		c-0.413,0.327-0.933,0.561-1.561,0.7c0.117,0.629,0.108,1.267-0.025,1.913c-0.134,0.646-0.369,1.255-0.705,1.825l-2.933,4.97
		c-0.031,0.053-0.074,0.064-0.127,0.033l-1.821-1.075c-0.043-0.025-0.048-0.064-0.017-0.118L28.499,56.89z M27.665,53.941
		c0.554,0.327,1.264,0.578,2.131,0.751l0.363-0.615c0.39-0.66,0.495-1.343,0.315-2.049s-0.583-1.244-1.212-1.615
		c-0.581-0.342-1.126-0.474-1.636-0.395s-0.904,0.354-1.18,0.822c-0.29,0.49-0.438,1.088-0.445,1.795
		C26.481,53.135,27.036,53.57,27.665,53.941z"/>
	<path fill="#141923" d="M35.484,49.797c-0.038,0.049-0.082,0.054-0.13,0.016l-1.662-1.308c-0.039-0.031-0.04-0.07-0.001-0.119
		l1.469-1.867l-9.55-7.516l1.75-2.224l11.344,8.928L35.484,49.797z"/>
	<path fill="#141923" d="M30.484,33.186l1.951-2.049L42.89,41.09l-1.951,2.049L30.484,33.186z"/>
	<path fill="#141923" d="M47.063,33.66l1.496-0.932l-6.428-10.314l2.41-1.501l4.421,7.094c-0.258-2.601,0.578-4.503,2.51-5.708
		c1.317-0.821,2.529-1.093,3.634-0.816c1.105,0.277,2.111,1.142,3.017,2.596l1.207,1.937l2.102-1.31
		c0.052-0.033,0.092-0.028,0.118,0.014l1.119,1.795c0.033,0.052,0.023,0.095-0.03,0.127l-14.369,8.955L47.063,33.66z M56.929,27.512
		l-1.237-1.984c-0.487-0.782-1.026-1.246-1.616-1.392c-0.59-0.146-1.261,0.015-2.011,0.483c-1.449,0.903-2.076,2.686-1.881,5.348
		l0.785,1.26L56.929,27.512z"/>
	<path fill="#141923" d="M61.847,27.34c-0.058,0.022-0.098,0.004-0.119-0.054l-0.74-1.982c-0.017-0.046,0.003-0.08,0.061-0.102
		l7.171-2.676l-0.006-0.017c-0.62-0.244-1.291-0.955-2.013-2.13c-0.46-0.739-0.909-1.211-1.345-1.415s-0.97-0.188-1.601,0.048
		c-0.417,0.156-0.789,0.354-1.115,0.594c-0.326,0.241-0.659,0.56-0.999,0.958l-1.53-1.657c0.849-0.964,1.982-1.71,3.402-2.24
		c1.188-0.443,2.212-0.521,3.071-0.235s1.622,1.002,2.287,2.147c0.966,1.653,1.806,2.637,2.518,2.952l0.798,2.138L61.847,27.34z
		 M62.69,15.243c-0.371,0.138-0.707,0.133-1.006-0.016c-0.3-0.148-0.523-0.42-0.67-0.814c-0.149-0.4-0.161-0.754-0.035-1.062
		c0.126-0.308,0.377-0.532,0.754-0.673c0.359-0.134,0.687-0.127,0.983,0.02c0.295,0.147,0.52,0.424,0.67,0.829
		c0.147,0.394,0.155,0.746,0.023,1.056S63.038,15.113,62.69,15.243z"/>
</g>
</svg>
