<?xml version="1.0" encoding="utf-8"?>
<!-- Generator: Adobe Illustrator 22.0.1, SVG Export Plug-In . SVG Version: 6.00 Build 0)  -->
<svg version="1.0" id="Layer_1" xmlns="http://www.w3.org/2000/svg" xmlns:xlink="http://www.w3.org/1999/xlink" x="0px" y="0px"
	 viewBox="0 0 180 180" enable-background="new 0 0 180 180" xml:space="preserve">
<g>
	<path d="M175.221,100.339l0.607-4.09l2.411,0.358l-1.631,10.976l-2.411-0.358l0.607-4.09l-10.821-1.607l0.415-2.797
		L175.221,100.339z"/>
	<path d="M163.419,109.355c1.08-0.502,2.491-0.47,4.234,0.1c1.742,0.567,2.902,1.373,3.479,2.416s0.608,2.349,0.097,3.919
		c-0.472,1.446-1.241,2.392-2.31,2.836s-2.468,0.385-4.198-0.18l-0.594-0.193l2.093-6.415c-0.874-0.257-1.569-0.293-2.089-0.106
		c-0.519,0.188-0.9,0.656-1.146,1.411c-0.173,0.531-0.165,1.01,0.024,1.433c0.189,0.424,0.557,0.726,1.101,0.902l-0.815,2.503
		c-1.225-0.398-2.013-1.093-2.367-2.083c-0.354-0.991-0.319-2.135,0.104-3.433C161.543,110.895,162.339,109.857,163.419,109.355z
		 M166.673,116.171c1.348,0.439,2.204,0.097,2.572-1.028c0.209-0.643,0.2-1.183-0.026-1.619c-0.228-0.436-0.668-0.803-1.324-1.099
		L166.673,116.171z"/>
	<path d="M170.438,127.451l-1.188,2.395l-12.63-6.268l1.188-2.394L170.438,127.451z"/>
	<path d="M154.574,129.455c1.179-0.172,2.521,0.265,4.028,1.308c1.507,1.045,2.387,2.148,2.64,3.312
		c0.254,1.164-0.09,2.424-1.03,3.782c-0.866,1.25-1.875,1.936-3.026,2.056c-1.15,0.12-2.474-0.339-3.97-1.376l-0.513-0.354
		l3.843-5.546c-0.764-0.497-1.42-0.73-1.971-0.702c-0.551,0.03-1.052,0.372-1.503,1.023c-0.318,0.46-0.447,0.92-0.388,1.382
		c0.062,0.46,0.326,0.853,0.796,1.18l-1.499,2.163c-1.058-0.732-1.614-1.625-1.67-2.675c-0.055-1.051,0.307-2.137,1.084-3.259
		C152.336,130.392,153.396,129.627,154.574,129.455z M155.738,136.917c1.165,0.807,2.085,0.725,2.758-0.249
		c0.386-0.555,0.532-1.074,0.439-1.558c-0.093-0.482-0.41-0.96-0.954-1.432L155.738,136.917z"/>
	<path d="M153.209,146.462l-1.622,1.605l-1.071-0.834l-0.098,0.096c0.135,0.599,0.102,1.185-0.099,1.758
		c-0.201,0.573-0.537,1.094-1.009,1.56c-0.925,0.914-1.954,1.305-3.089,1.175c-1.135-0.131-2.338-0.838-3.608-2.124
		c-1.243-1.256-1.923-2.457-2.041-3.603s0.249-2.14,1.1-2.979c0.49-0.485,1.01-0.825,1.557-1.019
		c0.549-0.194,1.089-0.235,1.621-0.121l0.084-0.083l-3.209-3.245l1.899-1.878L153.209,146.462z M143.305,145.765
		c0.093,0.576,0.479,1.205,1.154,1.889l0.247,0.251c0.677,0.684,1.302,1.075,1.876,1.176c0.573,0.1,1.143-0.13,1.707-0.688
		c1.035-1.023,0.881-2.216-0.463-3.573l-0.22-0.223c-1.361-1.377-2.561-1.555-3.596-0.53
		C143.447,144.624,143.212,145.19,143.305,145.765z"/>
	<path d="M143.144,160.728l-2.224,1.481l-2.789-4.188l-0.114,0.076c-0.122,1.223-0.692,2.172-1.71,2.85
		c-0.876,0.584-1.725,0.807-2.545,0.665s-1.58-0.735-2.279-1.785l-3.817-5.729l2.225-1.482l3.503,5.26
		c0.353,0.529,0.733,0.831,1.142,0.903c0.407,0.071,0.854-0.054,1.341-0.379c0.498-0.331,0.795-0.782,0.891-1.354
		c0.096-0.572-0.03-1.117-0.376-1.637l-3.286-4.934l2.223-1.482L143.144,160.728z"/>
	<path d="M122.811,157.831c1.127,0.475,2.044,1.558,2.749,3.25c0.705,1.691,0.829,3.105,0.372,4.238
		c-0.457,1.134-1.495,2.039-3.115,2.715c-1.62,0.674-2.996,0.776-4.13,0.306c-1.133-0.472-2.053-1.553-2.757-3.245
		c-0.706-1.692-0.826-3.106-0.364-4.243c0.463-1.136,1.504-2.043,3.124-2.718C120.31,157.458,121.684,157.358,122.811,157.831z
		 M118.073,161.571c-0.168,0.611-0.056,1.385,0.334,2.322l0.119,0.287c0.391,0.937,0.862,1.56,1.415,1.872s1.23,0.301,2.035-0.034
		c0.804-0.336,1.287-0.809,1.448-1.418c0.161-0.608,0.046-1.382-0.344-2.318l-0.12-0.287c-0.39-0.937-0.858-1.562-1.404-1.877
		c-0.547-0.314-1.223-0.304-2.026,0.032C118.727,160.484,118.24,160.959,118.073,161.571z"/>
	<path d="M111.516,171.728l-2.235,0.456l-0.46-1.28l-0.135,0.028c-0.604,1.197-1.543,1.927-2.817,2.187
		c-1.032,0.211-1.901,0.096-2.607-0.344c-0.707-0.44-1.187-1.278-1.438-2.513l-1.376-6.746l2.618-0.533l1.263,6.19
		c0.127,0.624,0.366,1.047,0.716,1.268c0.351,0.22,0.812,0.271,1.386,0.155c0.586-0.119,1.03-0.426,1.335-0.919
		c0.304-0.493,0.394-1.046,0.269-1.657l-1.185-5.81l2.618-0.533L111.516,171.728z"/>
	<path d="M95.528,174.188l-2.669,0.131l-0.502-10.246l2.669-0.131L95.528,174.188z M95.716,178.026l-2.668,0.131l-0.119-2.416
		l2.669-0.131L95.716,178.026z"/>
	<path d="M86.22,165.153c0.728,0.943,1.005,2.327,0.833,4.153c-0.17,1.812-0.701,3.116-1.592,3.914
		c-0.891,0.797-2.152,1.12-3.783,0.967c-1.359-0.128-2.411-0.576-3.155-1.345s-1.054-1.819-0.928-3.153l2.679,0.252
		c-0.058,0.622,0.059,1.116,0.351,1.482c0.292,0.367,0.729,0.578,1.312,0.634c0.725,0.067,1.283-0.139,1.674-0.616
		c0.391-0.48,0.634-1.225,0.729-2.233l0.029-0.311c0.095-1.01-0.011-1.787-0.319-2.332c-0.308-0.546-0.856-0.854-1.646-0.928
		c-0.557-0.054-1.016,0.077-1.378,0.389c-0.362,0.312-0.572,0.772-0.629,1.381l-2.563-0.241c0.125-1.333,0.622-2.309,1.489-2.925
		c0.868-0.618,1.988-0.861,3.359-0.732C84.313,163.662,85.493,164.211,86.22,165.153z"/>
	<path d="M63.472,159.618c0.663,0.623,1.107,1.319,1.333,2.091c0.226,0.772,0.169,1.565-0.173,2.381l-0.184,0.388l-2.644-1.107
		l0.139-0.28c0.221-0.527,0.163-1.046-0.174-1.553c-0.337-0.509-0.925-0.938-1.765-1.289c-0.887-0.372-1.578-0.524-2.072-0.456
		c-0.494,0.068-0.823,0.3-0.989,0.696c-0.146,0.348-0.138,0.691,0.021,1.034c0.16,0.342,0.406,0.664,0.738,0.965
		s0.799,0.69,1.403,1.169c0.855,0.682,1.531,1.275,2.024,1.779c0.494,0.502,0.853,1.093,1.076,1.771
		c0.223,0.68,0.164,1.426-0.178,2.241c-0.472,1.128-1.287,1.794-2.445,2c-1.158,0.205-2.492-0.007-4.002-0.641
		c-1.427-0.599-2.466-1.39-3.118-2.374c-0.651-0.985-0.724-2.084-0.216-3.294l0.09-0.216l2.59,1.085l-0.068,0.161
		c-0.191,0.456-0.135,0.902,0.168,1.34s0.809,0.804,1.516,1.101c0.755,0.315,1.377,0.456,1.864,0.421
		c0.488-0.034,0.807-0.233,0.957-0.593c0.116-0.276,0.095-0.562-0.062-0.861c-0.157-0.298-0.389-0.586-0.696-0.862
		c-0.307-0.276-0.752-0.644-1.336-1.1c-0.873-0.676-1.57-1.274-2.091-1.796c-0.522-0.521-0.905-1.128-1.15-1.824
		c-0.244-0.694-0.196-1.449,0.146-2.266c0.552-1.318,1.431-2.093,2.633-2.322c1.203-0.229,2.619-0.001,4.25,0.682
		C62.005,158.485,62.811,158.995,63.472,159.618z"/>
	<path d="M50.465,153.743c0.177,0.812-0.088,1.74-0.798,2.782l-3.874,5.691l-2.208-1.503l3.556-5.225
		c0.358-0.525,0.494-0.991,0.408-1.396c-0.086-0.404-0.372-0.771-0.854-1.101c-0.495-0.336-1.024-0.441-1.59-0.314
		c-0.565,0.125-1.024,0.446-1.375,0.962l-3.335,4.901l-2.209-1.503l5.771-8.48l1.887,1.283l-0.596,1.224l0.113,0.077
		c1.28-0.403,2.458-0.238,3.533,0.492C49.763,152.228,50.287,152.93,50.465,153.743z"/>
	<path d="M32.555,152.354l-1.606-1.622l0.832-1.071l-0.096-0.098c-0.598,0.136-1.184,0.103-1.758-0.098
		c-0.574-0.199-1.094-0.536-1.56-1.006c-0.915-0.924-1.308-1.953-1.179-3.087c0.129-1.136,0.836-2.339,2.12-3.61
		c1.255-1.246,2.457-1.928,3.602-2.046c1.145-0.119,2.139,0.246,2.98,1.097c0.485,0.488,0.825,1.007,1.021,1.556
		c0.195,0.547,0.236,1.088,0.124,1.62l0.083,0.083l3.241-3.212l1.88,1.898L32.555,152.354z M33.241,142.449
		c-0.575,0.093-1.204,0.479-1.887,1.156l-0.25,0.246c-0.683,0.679-1.075,1.304-1.173,1.877c-0.099,0.575,0.13,1.144,0.688,1.707
		c1.025,1.034,2.216,0.879,3.574-0.466l0.222-0.221c1.376-1.363,1.552-2.562,0.527-3.597
		C34.382,142.589,33.816,142.354,33.241,142.449z"/>
	<path d="M21.493,140.197l-1.269-1.897l1.021-0.894l-0.075-0.114c-0.613,0.02-1.182-0.125-1.708-0.43
		c-0.524-0.307-0.972-0.734-1.34-1.286c-0.722-1.08-0.912-2.166-0.569-3.255c0.343-1.09,1.265-2.136,2.768-3.141
		c1.47-0.982,2.778-1.423,3.925-1.322c1.147,0.102,2.053,0.65,2.718,1.644c0.383,0.574,0.618,1.147,0.705,1.723
		c0.088,0.574,0.025,1.113-0.187,1.613l0.065,0.099l3.794-2.536l1.485,2.222L21.493,140.197z M24.053,130.604
		c-0.583-0.019-1.273,0.241-2.073,0.775l-0.292,0.195c-0.8,0.535-1.303,1.073-1.51,1.619c-0.207,0.545-0.09,1.146,0.351,1.806
		c0.809,1.211,2.008,1.285,3.597,0.223l0.259-0.173c1.61-1.076,2.011-2.221,1.202-3.431
		C25.147,130.96,24.635,130.621,24.053,130.604z"/>
	<path d="M21.164,121.993c-0.472,1.128-1.554,2.046-3.245,2.754c-1.691,0.708-3.104,0.834-4.238,0.379
		c-1.135-0.455-2.042-1.492-2.719-3.11c-0.677-1.62-0.781-2.996-0.312-4.13s1.55-2.055,3.24-2.763
		c1.691-0.708,3.105-0.831,4.243-0.37c1.138,0.462,2.044,1.501,2.723,3.12C21.534,119.492,21.636,120.866,21.164,121.993z
		 M17.418,117.262c-0.612-0.167-1.387-0.055-2.322,0.338l-0.288,0.12c-0.935,0.392-1.559,0.864-1.87,1.417s-0.298,1.232,0.038,2.035
		c0.337,0.804,0.81,1.285,1.42,1.445c0.609,0.161,1.382,0.045,2.317-0.347l0.288-0.12c0.935-0.392,1.56-0.861,1.874-1.408
		c0.313-0.548,0.301-1.223-0.035-2.025C18.504,117.913,18.03,117.429,17.418,117.262z"/>
	<path d="M7.383,110.869l-0.521-2.222l1.565-0.587l-0.031-0.133c-0.621-0.083-1.134-0.255-1.544-0.52
		c-0.409-0.265-0.679-0.676-0.81-1.233c-0.057-0.239-0.084-0.456-0.083-0.65c0.001-0.193,0.009-0.319,0.022-0.376l2.43-0.57
		l0.169,0.722c0.199,0.849,0.574,1.408,1.125,1.679c0.551,0.272,1.295,0.298,2.232,0.078l4.822-1.131l0.61,2.602L7.383,110.869z"/>
	<path d="M14.788,97.743c-0.476,0.466-1.109,0.737-1.898,0.815l-5.531,0.55l0.121,1.222l-2.173,0.216l-0.127-1.28l-2.916-0.161
		l-0.214-2.155l2.873-0.284l-0.176-1.766l2.174-0.217l0.175,1.767l5.259-0.521c0.556-0.056,0.807-0.362,0.751-0.918l-0.092-0.931
		l1.863-0.186c0.099,0.213,0.198,0.48,0.295,0.804c0.098,0.323,0.16,0.627,0.189,0.912C15.455,96.566,15.264,97.278,14.788,97.743z"
		/>
	<path d="M2.479,75.565l0.606-3.497l14.074-2.865l-0.526,3.035l-2.68,0.506l-1.039,5.995l2.354,1.378l-0.5,2.882L2.479,75.565z
		 M11.475,73.225l-3.561,0.67c-0.286,0.056-0.761,0.126-1.421,0.208c-0.661,0.084-1.1,0.141-1.315,0.169l-0.017,0.095
		c0.194,0.101,0.588,0.301,1.182,0.602c0.594,0.301,1.018,0.526,1.268,0.675l3.127,1.829L11.475,73.225z"/>
	<path d="M8.944,61.665l0.844-2.12l1.322,0.316l0.05-0.126c-0.67-1.163-0.766-2.348-0.285-3.557c0.39-0.979,0.962-1.643,1.718-1.992
		c0.755-0.35,1.718-0.292,2.89,0.174l6.396,2.547l-0.988,2.483l-5.871-2.337c-0.592-0.236-1.076-0.269-1.452-0.096
		c-0.376,0.171-0.673,0.528-0.889,1.073c-0.221,0.555-0.208,1.095,0.037,1.619c0.246,0.525,0.659,0.903,1.239,1.134l5.508,2.193
		l-0.988,2.482L8.944,61.665z"/>
	<path d="M27.646,53.521c-0.179,0.209-0.326,0.366-0.438,0.471c-0.114,0.105-0.187,0.172-0.218,0.197l-1.58-1.004l0.68-1.069
		c0.244-0.384,0.349-0.757,0.316-1.116c-0.033-0.359-0.214-0.753-0.545-1.18l-10.812-2.11l1.496-2.354l5.102,0.954
		c0.355,0.073,0.835,0.207,1.439,0.407c0.605,0.199,1.006,0.339,1.202,0.418l0.052-0.083c-0.137-0.148-0.388-0.42-0.753-0.814
		c-0.366-0.394-0.732-0.8-1.098-1.217l-3.266-3.878l1.454-2.288l6.36,8.133c0.557,0.724,0.989,1.384,1.296,1.979
		c0.306,0.595,0.463,1.216,0.471,1.858c0.006,0.644-0.199,1.294-0.618,1.954C28.006,53.064,27.826,53.311,27.646,53.521z"/>
	<path d="M32.116,40.238c-0.666-0.027-1.297-0.303-1.896-0.823l-4.188-3.653l-0.808,0.926l-1.646-1.436l0.845-0.971l-1.88-2.234
		l1.423-1.631l2.175,1.896l1.166-1.337l1.647,1.436l-1.167,1.337l3.983,3.474c0.422,0.367,0.816,0.34,1.184-0.081l0.615-0.705
		l1.411,1.23c-0.086,0.218-0.214,0.473-0.383,0.766c-0.168,0.292-0.347,0.547-0.535,0.762C33.429,39.918,32.78,40.267,32.116,40.238
		z"/>
	<path d="M28.965,23.912l1.977-1.798l1.627,1.791l-1.977,1.797L28.965,23.912z M31.549,26.755l1.977-1.797l6.899,7.592l-1.978,1.797
		L31.549,26.755z"/>
	<path d="M38.993,20.156l1.941-1.196l0.873,1.042l0.116-0.072c0.089-1.291,0.643-2.251,1.662-2.879
		c1.106-0.683,2.146-0.705,3.119-0.067l0.133-0.083c0.111-1.305,0.698-2.286,1.761-2.941c0.83-0.511,1.641-0.675,2.434-0.492
		c0.792,0.184,1.52,0.812,2.182,1.886l3.613,5.859l-2.274,1.401l-3.316-5.377c-0.635-1.03-1.378-1.282-2.229-0.756
		c-0.443,0.272-0.698,0.678-0.764,1.214c-0.066,0.538,0.065,1.073,0.393,1.604l3.111,5.045l-2.274,1.403l-3.317-5.379
		c-0.634-1.029-1.378-1.28-2.229-0.755c-0.443,0.272-0.7,0.68-0.771,1.22c-0.071,0.541,0.057,1.076,0.384,1.607l3.112,5.047
		l-2.274,1.403L38.993,20.156z"/>
	<path d="M61.856,18.118c-1.052-0.56-1.876-1.706-2.473-3.438c-0.597-1.734-0.653-3.144-0.168-4.232
		c0.485-1.089,1.508-1.901,3.069-2.439c1.438-0.494,2.657-0.45,3.656,0.134c0.999,0.585,1.794,1.736,2.387,3.459l0.203,0.59
		l-6.38,2.196c0.321,0.853,0.712,1.429,1.173,1.73c0.462,0.303,1.067,0.324,1.817,0.066c0.529-0.183,0.905-0.478,1.129-0.886
		c0.224-0.406,0.243-0.88,0.057-1.421l2.489-0.857c0.419,1.218,0.339,2.265-0.237,3.145c-0.578,0.88-1.511,1.541-2.802,1.986
		C64.215,18.688,62.908,18.677,61.856,18.118z M65.333,11.413c-0.461-1.34-1.251-1.817-2.37-1.432
		c-0.639,0.22-1.065,0.552-1.276,0.996c-0.211,0.444-0.237,1.017-0.078,1.718L65.333,11.413z"/>
	<path d="M82.615,11.579l2.683-0.203L85.5,14.04l-2.684,0.204L82.615,11.579z"/>
	<path d="M91.146,11.256l2.689,0.09l-0.09,2.671l-2.689-0.091L91.146,11.256z"/>
	<path fill="#54c8e8" d="M108.001,15.163c-0.551-0.915-0.662-1.927-0.336-3.037c0.21-0.71,0.56-1.278,1.051-1.702
		c0.491-0.425,1.121-0.68,1.892-0.766c-0.474-0.464-0.782-0.993-0.926-1.584c-0.145-0.591-0.125-1.198,0.059-1.822
		c0.198-0.673,0.538-1.23,1.021-1.671s1.091-0.726,1.827-0.855c0.736-0.129,1.56-0.059,2.47,0.209
		c0.91,0.269,1.64,0.656,2.189,1.162c0.548,0.508,0.905,1.078,1.072,1.709c0.165,0.632,0.15,1.284-0.049,1.958
		c-0.183,0.624-0.496,1.146-0.938,1.563c-0.441,0.419-0.994,0.693-1.655,0.824c1.21,0.953,1.595,2.177,1.154,3.674
		c-0.327,1.109-0.969,1.899-1.928,2.37c-0.959,0.47-2.211,0.478-3.758,0.022C109.601,16.762,108.552,16.077,108.001,15.163z
		 M113.337,15.098c0.432-0.225,0.734-0.631,0.907-1.219c0.172-0.585,0.138-1.09-0.104-1.514c-0.241-0.422-0.674-0.727-1.297-0.909
		c-0.624-0.185-1.152-0.163-1.584,0.061c-0.433,0.227-0.735,0.631-0.907,1.218c-0.172,0.586-0.139,1.091,0.103,1.516
		c0.241,0.423,0.674,0.726,1.298,0.908C112.376,15.343,112.904,15.322,113.337,15.098z M114.817,9.343
		c0.379-0.207,0.649-0.585,0.812-1.134c0.161-0.549,0.14-1.016-0.065-1.4c-0.204-0.386-0.575-0.658-1.111-0.816
		c-0.537-0.157-0.992-0.128-1.367,0.086s-0.644,0.597-0.805,1.146c-0.162,0.549-0.143,1.012,0.059,1.389
		c0.2,0.378,0.569,0.646,1.105,0.803C113.98,9.574,114.438,9.549,114.817,9.343z"/>
	<path fill="#54c8e8" d="M121.617,20.454c-0.414-0.667-0.553-1.534-0.415-2.601c0.137-1.066,0.604-2.389,1.398-3.969
		c0.796-1.578,1.581-2.739,2.357-3.484c0.775-0.745,1.554-1.15,2.337-1.215c0.781-0.064,1.626,0.132,2.532,0.588
		c0.905,0.456,1.563,1.021,1.975,1.694c0.41,0.674,0.548,1.54,0.414,2.6c-0.134,1.062-0.599,2.382-1.395,3.961
		c-0.796,1.578-1.58,2.738-2.353,3.477c-0.773,0.738-1.552,1.143-2.337,1.213c-0.785,0.071-1.631-0.123-2.536-0.579
		S122.03,21.122,121.617,20.454z M125.804,20.336c0.363-0.129,0.718-0.428,1.062-0.895c0.345-0.468,0.742-1.147,1.192-2.042
		l0.614-1.219c0.45-0.893,0.761-1.617,0.931-2.174c0.171-0.554,0.199-1.016,0.088-1.386c-0.112-0.369-0.396-0.669-0.848-0.896
		c-0.453-0.228-0.861-0.276-1.225-0.147c-0.364,0.129-0.718,0.428-1.063,0.896c-0.344,0.466-0.741,1.146-1.191,2.041l-0.614,1.219
		c-0.451,0.894-0.762,1.618-0.932,2.173c-0.171,0.555-0.2,1.018-0.087,1.387c0.111,0.37,0.395,0.669,0.848,0.896
		C125.031,20.417,125.439,20.466,125.804,20.336z"/>
	<path fill="#54c8e8" d="M133.33,27.212c-0.287-0.73-0.269-1.606,0.057-2.633c0.326-1.024,1.021-2.241,2.087-3.652
		s2.046-2.414,2.942-3.009c0.896-0.594,1.735-0.854,2.516-0.776c0.782,0.077,1.577,0.42,2.387,1.032
		c0.81,0.61,1.355,1.283,1.64,2.019c0.283,0.736,0.265,1.613-0.057,2.633c-0.322,1.021-1.016,2.235-2.081,3.646
		s-2.044,2.411-2.937,3s-1.731,0.848-2.517,0.775c-0.785-0.071-1.582-0.412-2.392-1.023
		C134.166,28.613,133.617,27.942,133.33,27.212z M137.471,27.846c0.381-0.062,0.782-0.294,1.205-0.69
		c0.423-0.398,0.936-0.997,1.538-1.796l0.823-1.09c0.603-0.798,1.038-1.455,1.305-1.972c0.267-0.515,0.377-0.964,0.334-1.348
		c-0.045-0.384-0.27-0.729-0.674-1.034s-0.798-0.427-1.179-0.365c-0.381,0.064-0.783,0.293-1.206,0.691
		c-0.422,0.398-0.935,0.996-1.537,1.795l-0.823,1.09c-0.603,0.8-1.038,1.456-1.305,1.972c-0.268,0.515-0.379,0.966-0.334,1.349
		c0.044,0.384,0.27,0.729,0.674,1.033C136.696,27.787,137.089,27.907,137.471,27.846z"/>
	<path fill="#54c8e8" d="M146.587,30.379l3.284,3.361l-1.647,1.608l-3.283-3.363L146.587,30.379z"/>
	<path fill="#54c8e8" d="M149.706,41.956c0.217-1.012,0.837-1.887,1.861-2.622l1.582,2.2c-0.539,0.387-0.876,0.782-1.011,1.184
		c-0.137,0.401-0.041,0.828,0.286,1.283c0.326,0.453,0.694,0.705,1.105,0.754c0.411,0.048,0.865-0.049,1.361-0.294
		c0.497-0.245,1.124-0.632,1.882-1.16c-0.021,0.017-0.18-0.026-0.477-0.127c-0.295-0.099-0.624-0.267-0.986-0.503
		c-0.361-0.236-0.69-0.56-0.986-0.972c-0.774-1.077-1.031-2.114-0.77-3.109c0.261-0.996,0.934-1.885,2.021-2.667
		c0.718-0.515,1.463-0.811,2.234-0.885c0.771-0.073,1.501,0.062,2.189,0.408c0.689,0.345,1.284,0.865,1.785,1.563
		c0.948,1.318,1.261,2.607,0.939,3.863c-0.322,1.256-1.444,2.574-3.365,3.955c-1.468,1.056-2.749,1.744-3.846,2.067
		c-1.097,0.324-2.034,0.334-2.813,0.029s-1.476-0.884-2.091-1.739C149.79,44.046,149.489,42.969,149.706,41.956z M157.759,41.8
		c0.517,0.028,1.061-0.162,1.631-0.572c0.539-0.387,0.879-0.831,1.021-1.334c0.144-0.504,0.032-1.008-0.332-1.515
		s-0.804-0.767-1.318-0.78c-0.515-0.016-1.041,0.17-1.579,0.558c-0.57,0.41-0.928,0.858-1.073,1.348
		c-0.145,0.489-0.036,0.985,0.328,1.493C156.802,41.504,157.242,41.771,157.759,41.8z"/>
	<path fill="#54c8e8" d="M158.126,52.467l1.349,2.835l7.185-3.419l-1.357-2.853l1.497-0.713c0.31,0.501,0.782,1.071,1.419,1.711
		c0.636,0.642,1.275,1.183,1.918,1.626l0.595,1.25l-10.107,4.811l1.231,2.587l-1.972,0.94l-3.729-7.836L158.126,52.467z"/>
	<path d="M166.067,73.076l0.504,2.644l-2.625,0.5l-0.504-2.643L166.067,73.076z"/>
	<path d="M167.348,81.514l0.21,2.683l-2.664,0.209l-0.21-2.684L167.348,81.514z"/>
</g>
</svg>
