<?xml version="1.0" encoding="utf-8"?>
<!-- Generator: Adobe Illustrator 22.0.0, SVG Export Plug-In . SVG Version: 6.00 Build 0)  -->
<svg version="1.1" id="Layer_1" xmlns="http://www.w3.org/2000/svg" xmlns:xlink="http://www.w3.org/1999/xlink" x="0px" y="0px"
	 viewBox="0 0 180 180" style="enable-background:new 0 0 180 180;" xml:space="preserve">
<style type="text/css">
	.st0{fill:#13C0D7;}
	.st1{fill:#A0A0A0;}
</style>
<g>
	<path class="st0" d="M43.479,22.812c1.036-0.176,2.025-0.072,2.968,0.312c0.943,0.383,1.758,1.022,2.445,1.916
		c0.687,0.894,1.09,1.849,1.209,2.866s-0.044,2.006-0.489,2.968c-0.445,0.962-1.146,1.811-2.1,2.544l-3.825,2.939l-7.071-9.201
		l3.904-3C41.457,23.436,42.443,22.988,43.479,22.812z M47.395,30.152c0.222-0.554,0.282-1.133,0.18-1.738
		c-0.102-0.604-0.366-1.183-0.79-1.734c-0.424-0.552-0.925-0.955-1.503-1.208c-0.578-0.252-1.167-0.339-1.769-0.261
		c-0.601,0.079-1.165,0.32-1.691,0.724l-1.788,1.374l4.384,5.705l1.879-1.444C46.807,31.178,47.172,30.706,47.395,30.152z"/>
	<path class="st0" d="M50.75,16.467c0.355,0.106,0.635,0.343,0.839,0.71c0.204,0.368,0.256,0.73,0.157,1.088
		s-0.327,0.636-0.684,0.834c-0.348,0.193-0.702,0.234-1.06,0.123s-0.636-0.345-0.834-0.703c-0.204-0.367-0.256-0.73-0.158-1.088
		s0.322-0.633,0.67-0.826C50.038,16.407,50.395,16.361,50.75,16.467z M50.499,20.681l2.233-1.237l4.323,7.801l-2.233,1.237
		L50.499,20.681z"/>
	<path class="st0" d="M64.8,14.22l2.916,7.546c0.303,0.784,0.381,1.538,0.235,2.264c-0.146,0.726-0.494,1.375-1.042,1.949
		c-0.549,0.573-1.261,1.029-2.137,1.368c-0.681,0.263-1.365,0.415-2.054,0.456c-0.689,0.041-1.352-0.011-1.988-0.156l0.236-2.011
		c0.999,0.254,1.967,0.2,2.905-0.163c0.68-0.263,1.157-0.64,1.429-1.13c0.273-0.49,0.3-1.019,0.081-1.586l-0.365-0.943
		c-0.126,0.5-0.362,0.934-0.705,1.303c-0.343,0.37-0.788,0.66-1.334,0.871c-0.711,0.275-1.407,0.352-2.088,0.229
		c-0.681-0.122-1.291-0.428-1.83-0.919s-0.962-1.133-1.269-1.927c-0.303-0.784-0.417-1.53-0.341-2.241
		c0.075-0.71,0.325-1.337,0.749-1.88s0.992-0.952,1.703-1.227c0.536-0.207,1.056-0.287,1.561-0.239
		c0.504,0.048,0.975,0.207,1.411,0.477l-0.436-1.129L64.8,14.22z M64.011,20.825c0.208-0.536,0.188-1.124-0.059-1.763
		c-0.247-0.639-0.629-1.09-1.145-1.353c-0.516-0.262-1.063-0.282-1.64-0.059s-0.969,0.605-1.174,1.146s-0.19,1.134,0.047,1.777
		c0.257,0.636,0.641,1.083,1.149,1.342c0.509,0.259,1.058,0.275,1.645,0.049C63.411,21.741,63.803,21.361,64.011,20.825z"/>
	<path class="st0" d="M70.719,9.042c0.313,0.199,0.519,0.502,0.615,0.911s0.048,0.772-0.144,1.09
		c-0.192,0.317-0.487,0.523-0.885,0.617c-0.387,0.091-0.738,0.035-1.053-0.169s-0.519-0.505-0.613-0.903
		c-0.096-0.409-0.048-0.772,0.144-1.09c0.192-0.317,0.481-0.522,0.869-0.613C70.049,8.791,70.405,8.844,70.719,9.042z M69.333,13.03
		l2.485-0.585l2.043,8.682l-2.485,0.584L69.333,13.03z"/>
	<path class="st0" d="M83.065,19.26c-0.306,0.236-0.653,0.431-1.042,0.583c-0.388,0.151-0.786,0.251-1.191,0.299
		c-0.823,0.097-1.521-0.059-2.092-0.47c-0.572-0.411-0.909-1.055-1.013-1.934l-0.485-4.099l-1.235,0.146l-0.207-1.745l1.235-0.146
		l-0.288-2.437l2.519-0.298l0.288,2.437l2.404-0.284l0.208,1.761l-2.404,0.285l0.433,3.654c0.081,0.681,0.389,0.989,0.927,0.925
		c0.373-0.044,0.771-0.202,1.196-0.475L83.065,19.26z"/>
	<path class="st0" d="M90.884,19.729l0.026-1.044c-0.309,0.369-0.702,0.646-1.182,0.833s-1.029,0.273-1.648,0.257
		c-0.939-0.023-1.679-0.299-2.218-0.826c-0.54-0.528-0.799-1.206-0.779-2.034c0.021-0.84,0.333-1.487,0.936-1.942
		c0.603-0.455,1.446-0.674,2.529-0.658L91,14.376l0.005-0.166c0.012-0.475-0.137-0.846-0.444-1.114
		c-0.309-0.268-0.767-0.409-1.375-0.424c-0.829-0.021-1.719,0.217-2.671,0.713l-0.752-1.776c0.716-0.336,1.385-0.579,2.008-0.729
		c0.623-0.15,1.304-0.216,2.044-0.198c1.194,0.03,2.112,0.334,2.754,0.915c0.645,0.58,0.959,1.373,0.945,2.378l-0.129,5.817
		L90.884,19.729z M90.223,17.624c0.394-0.245,0.633-0.559,0.721-0.944l0.02-0.795l-2.005-0.05c-0.498-0.012-0.867,0.059-1.108,0.213
		c-0.242,0.154-0.367,0.408-0.375,0.762c-0.008,0.343,0.109,0.619,0.353,0.83c0.244,0.211,0.581,0.321,1.012,0.332
		C89.369,17.983,89.83,17.868,90.223,17.624z"/>
	<path class="st0" d="M98.759,8.131l2.521,0.398l-1.92,12.15l-2.521-0.398L98.759,8.131z"/>
	<path class="st0" d="M131.361,21.209l2.351,1.332l-9.138,8.16l-2.352-1.332l2.007-8.485l-6.276,6.066l-2.336-1.324l2.315-12.025
		l2.452,1.389l-2.171,8.944l6.541-6.469l2.236,1.267l-2.157,8.953L131.361,21.209z"/>
	<path class="st0" d="M138.591,32.224c0.018,1.115-0.46,2.23-1.434,3.347c-0.174,0.2-0.313,0.35-0.416,0.451l-4.822-4.206
		c-0.262,0.519-0.343,1.032-0.241,1.538c0.101,0.506,0.368,0.948,0.801,1.326c0.316,0.276,0.674,0.48,1.07,0.614
		c0.396,0.134,0.813,0.186,1.25,0.156l0.119,1.907c-0.676,0.085-1.347,0.018-2.012-0.204c-0.665-0.221-1.298-0.593-1.897-1.116
		c-0.708-0.618-1.203-1.298-1.484-2.043c-0.282-0.744-0.342-1.5-0.179-2.267s0.539-1.488,1.127-2.163
		c0.596-0.683,1.267-1.158,2.012-1.424c0.746-0.266,1.506-0.314,2.281-0.144c0.775,0.17,1.501,0.549,2.176,1.138
		C138.023,30.079,138.574,31.109,138.591,32.224z M135.935,33.316c0.368-0.456,0.535-0.933,0.501-1.432s-0.271-0.941-0.713-1.326
		c-0.417-0.363-0.879-0.535-1.387-0.516c-0.508,0.019-0.995,0.221-1.463,0.605L135.935,33.316z"/>
	<path class="st0" d="M145.515,32.916l1.687,1.917l-9.234,8.126l-1.687-1.917L145.515,32.916z"/>
	<path class="st0" d="M150.585,39.097l1.482,2.078l-10.014,7.144l-1.482-2.079L150.585,39.097z"/>
	<path class="st0" d="M155.136,54.201c-0.047,0.74-0.299,1.424-0.757,2.054s-1.09,1.152-1.895,1.569
		c-0.795,0.412-1.572,0.622-2.334,0.63c-0.761,0.008-1.452-0.178-2.072-0.56c-0.621-0.382-1.122-0.94-1.504-1.677
		c-0.284-0.55-0.432-1.092-0.441-1.628c-0.011-0.536,0.109-1.056,0.359-1.559l-1.148,0.595l-1.174-2.267l10.922-5.658l1.175,2.267
		l-4.166,2.158c0.55,0.076,1.04,0.273,1.473,0.591c0.432,0.317,0.785,0.741,1.06,1.271
		C155.015,52.724,155.182,53.461,155.136,54.201z M149.504,55.765c0.596,0.152,1.217,0.061,1.865-0.275
		c0.638-0.331,1.065-0.783,1.285-1.357c0.219-0.574,0.179-1.15-0.121-1.729s-0.749-0.947-1.347-1.104s-1.216-0.07-1.854,0.26
		c-0.657,0.34-1.092,0.799-1.304,1.375c-0.212,0.577-0.168,1.154,0.132,1.733C148.461,55.247,148.909,55.612,149.504,55.765z"/>
	<path class="st0" d="M158.888,66.517c-0.566,0.961-1.556,1.664-2.968,2.109c-0.253,0.08-0.45,0.136-0.591,0.169l-1.924-6.103
		c-0.494,0.307-0.83,0.702-1.008,1.187c-0.177,0.484-0.18,1.001-0.007,1.549c0.126,0.401,0.324,0.761,0.594,1.082
		c0.269,0.321,0.598,0.582,0.985,0.784l-0.893,1.689c-0.621-0.279-1.158-0.687-1.61-1.222c-0.453-0.535-0.799-1.182-1.038-1.941
		c-0.282-0.896-0.35-1.735-0.202-2.518c0.146-0.782,0.49-1.458,1.029-2.028c0.538-0.57,1.234-0.989,2.089-1.258
		c0.863-0.272,1.684-0.328,2.459-0.167c0.774,0.161,1.449,0.517,2.021,1.066c0.573,0.549,0.994,1.251,1.264,2.105
		C159.521,64.391,159.454,65.557,158.888,66.517z M156.051,66.064c0.552-0.197,0.943-0.518,1.174-0.961
		c0.231-0.443,0.259-0.945,0.083-1.503c-0.167-0.527-0.472-0.915-0.915-1.164s-0.964-0.33-1.563-0.246L156.051,66.064z"/>
	<path class="st0" d="M161.084,71.234l0.438,2.515l-8.785,1.534l-0.439-2.515L161.084,71.234z M164.984,72.85
		c-0.217,0.302-0.532,0.489-0.946,0.561c-0.413,0.072-0.773,0.003-1.079-0.207c-0.306-0.21-0.494-0.517-0.564-0.92
		c-0.068-0.392,0.008-0.739,0.23-1.042c0.222-0.302,0.534-0.489,0.938-0.559c0.413-0.072,0.773-0.003,1.079,0.207
		c0.306,0.21,0.493,0.511,0.562,0.903C165.273,72.196,165.2,72.548,164.984,72.85z"/>
	<path class="st0" d="M161.673,86.519c-0.599,0.612-1.417,0.937-2.455,0.972l-5.6,0.193l-0.088-2.552l4.854-0.167
		c0.563-0.02,1.002-0.192,1.317-0.518c0.314-0.326,0.463-0.76,0.444-1.301c-0.033-0.629-0.269-1.119-0.706-1.469
		c-0.438-0.35-0.987-0.513-1.65-0.49l-4.391,0.151l-0.088-2.551l8.914-0.307l0.088,2.552l-1.558,0.053
		c1.104,0.582,1.691,1.589,1.763,3.025C162.553,85.104,162.271,85.906,161.673,86.519z"/>
	<path class="st0" d="M161.107,100.063l-8.012-1.121c-0.832-0.116-1.529-0.415-2.093-0.896s-0.962-1.101-1.196-1.858
		s-0.286-1.603-0.156-2.532c0.102-0.723,0.302-1.396,0.601-2.017c0.299-0.623,0.667-1.177,1.103-1.662l1.643,1.184
		c-0.708,0.749-1.131,1.622-1.271,2.618c-0.101,0.722-0.003,1.321,0.292,1.798c0.297,0.477,0.745,0.758,1.348,0.842l1.001,0.14
		c-0.375-0.354-0.64-0.771-0.796-1.249c-0.156-0.479-0.193-1.01-0.112-1.59c0.105-0.755,0.377-1.4,0.815-1.937
		c0.438-0.535,1.001-0.92,1.692-1.152s1.458-0.29,2.301-0.172c0.831,0.116,1.539,0.38,2.124,0.791
		c0.584,0.411,1.01,0.934,1.278,1.568s0.35,1.33,0.244,2.085c-0.08,0.568-0.264,1.063-0.55,1.479
		c-0.288,0.417-0.655,0.751-1.103,1.001l1.198,0.168L161.107,100.063z M155.719,96.161c0.368,0.442,0.892,0.711,1.57,0.806
		c0.678,0.095,1.258-0.02,1.738-0.343s0.764-0.791,0.85-1.404s-0.059-1.141-0.432-1.583c-0.373-0.443-0.898-0.718-1.575-0.823
		c-0.681-0.085-1.258,0.033-1.731,0.352c-0.475,0.318-0.755,0.79-0.843,1.414C155.21,95.191,155.352,95.719,155.719,96.161z"/>
	<path d="M153.35,121.832c0.502-0.492,0.863-0.947,1.085-1.368c0.211-0.401,0.305-0.758,0.281-1.069s-0.177-0.543-0.46-0.691
		c-0.362-0.19-0.727-0.167-1.096,0.069c-0.368,0.237-0.84,0.654-1.416,1.25c-0.575,0.597-1.086,1.067-1.53,1.414
		c-0.445,0.347-0.958,0.574-1.538,0.681c-0.581,0.106-1.209-0.018-1.884-0.373c-0.655-0.345-1.128-0.815-1.42-1.412
		s-0.4-1.263-0.326-1.998c0.075-0.735,0.315-1.489,0.722-2.262c0.438-0.831,1.015-1.57,1.729-2.218
		c0.716-0.648,1.481-1.132,2.299-1.45l1.406,1.92c-0.742,0.271-1.433,0.67-2.071,1.195s-1.104,1.067-1.397,1.624
		c-0.253,0.479-0.361,0.9-0.327,1.262c0.035,0.361,0.219,0.63,0.551,0.805c0.265,0.139,0.529,0.163,0.796,0.072
		s0.526-0.247,0.781-0.47c0.254-0.222,0.578-0.542,0.973-0.958c0.565-0.602,1.063-1.073,1.493-1.416
		c0.43-0.342,0.93-0.568,1.501-0.681c0.571-0.111,1.188,0.008,1.854,0.357c0.616,0.324,1.069,0.774,1.359,1.352
		c0.289,0.577,0.402,1.229,0.337,1.958c-0.063,0.728-0.305,1.487-0.722,2.279c-0.37,0.704-0.838,1.345-1.404,1.922
		c-0.565,0.576-1.158,1.038-1.778,1.387l-1.451-1.906C152.296,122.748,152.848,122.323,153.35,121.832z"/>
	<path d="M144.287,134.379l-7.058-5.453l1.551-2.007l1.246,0.963c-0.512-1.164-0.345-2.292,0.5-3.385
		c0.602-0.778,1.322-1.21,2.162-1.294s1.676,0.194,2.507,0.837l4.434,3.426l-1.562,2.021l-3.856-2.98
		c-0.445-0.345-0.887-0.497-1.323-0.456c-0.436,0.04-0.813,0.266-1.13,0.677c-0.363,0.487-0.486,0.999-0.37,1.536
		c0.116,0.536,0.437,1.008,0.961,1.413l3.489,2.696L144.287,134.379z"/>
	<path d="M135.145,142.578c-0.727,0.144-1.453,0.074-2.179-0.208c-0.725-0.282-1.392-0.76-2-1.431
		c-0.601-0.664-1.002-1.363-1.205-2.097c-0.202-0.733-0.197-1.449,0.013-2.146c0.211-0.698,0.624-1.325,1.238-1.882
		c0.459-0.415,0.945-0.696,1.462-0.843c0.516-0.146,1.049-0.163,1.599-0.05l-3.026-3.342l1.893-1.714l8.145,8.995l-1.893,1.714
		l-0.879-0.971c0.066,0.551,0.001,1.075-0.195,1.574c-0.197,0.499-0.517,0.948-0.959,1.35
		C136.543,142.084,135.872,142.435,135.145,142.578z M132.197,137.532c0.005,0.614,0.252,1.191,0.741,1.732
		c0.482,0.532,1.028,0.831,1.64,0.897c0.611,0.065,1.158-0.121,1.642-0.559s0.725-0.966,0.724-1.584
		c0-0.618-0.242-1.193-0.724-1.726c-0.497-0.549-1.052-0.853-1.663-0.91s-1.158,0.132-1.642,0.57
		C132.432,136.392,132.192,136.917,132.197,137.532z"/>
	<path d="M124.083,150.188c-0.741,0.011-1.443-0.188-2.106-0.596c-0.662-0.408-1.233-0.997-1.711-1.767
		c-0.472-0.761-0.741-1.521-0.809-2.278c-0.067-0.759,0.065-1.462,0.397-2.11s0.851-1.191,1.555-1.628
		c0.526-0.327,1.056-0.516,1.59-0.567c0.533-0.052,1.061,0.027,1.582,0.238l-2.378-3.832l2.169-1.346l6.398,10.311l-2.169,1.347
		l-0.69-1.113c-0.033,0.554-0.191,1.059-0.475,1.514c-0.283,0.456-0.679,0.841-1.186,1.155
		C125.547,149.953,124.824,150.177,124.083,150.188z M122.088,144.695c-0.105,0.604,0.034,1.218,0.419,1.837
		c0.379,0.61,0.863,1.003,1.452,1.177s1.161,0.09,1.715-0.254c0.555-0.345,0.886-0.82,0.997-1.429
		c0.109-0.608-0.024-1.218-0.403-1.828c-0.391-0.629-0.881-1.026-1.473-1.193c-0.591-0.166-1.163-0.077-1.717,0.267
		C122.523,143.615,122.194,144.09,122.088,144.695z"/>
	<path d="M112.891,155.286c-0.812-0.081-1.529-0.365-2.152-0.854c-0.624-0.489-1.104-1.155-1.438-1.996
		c-0.332-0.832-0.44-1.643-0.327-2.432s0.437-1.494,0.968-2.116s1.232-1.107,2.105-1.455c0.883-0.353,1.731-0.485,2.545-0.399
		s1.532,0.376,2.158,0.87c0.625,0.494,1.104,1.157,1.436,1.989c0.335,0.841,0.445,1.654,0.33,2.438
		c-0.116,0.783-0.44,1.483-0.974,2.102c-0.533,0.616-1.241,1.102-2.124,1.453C114.544,155.233,113.702,155.367,112.891,155.286z
		 M115.88,151.685c0.218-0.574,0.191-1.2-0.079-1.878c-0.271-0.677-0.682-1.149-1.234-1.417s-1.138-0.278-1.753-0.032
		c-0.605,0.241-1.018,0.648-1.234,1.224c-0.217,0.574-0.19,1.2,0.079,1.878c0.271,0.678,0.682,1.149,1.234,1.417
		s1.133,0.28,1.738,0.039C115.247,152.669,115.663,152.259,115.88,151.685z"/>
	<path d="M103.344,158.121c-0.418,0.394-0.949,0.672-1.592,0.835l-0.551-2.34c0.089-0.01,0.219-0.034,0.392-0.075
		c0.764-0.18,1.32-0.529,1.669-1.049c0.349-0.519,0.442-1.123,0.28-1.812l-0.983-4.179l2.484-0.585l2.044,8.682l-2.485,0.585
		l-0.368-1.565C104.059,157.227,103.762,157.728,103.344,158.121z"/>
	<path d="M91.624,151.635c0.31-0.232,0.658-0.423,1.049-0.569c0.39-0.146,0.788-0.242,1.194-0.285
		c0.824-0.087,1.521,0.078,2.087,0.496s0.896,1.066,0.989,1.945l0.435,4.105l1.236-0.131l0.186,1.747l-1.236,0.131l0.258,2.439
		l-2.521,0.268l-0.259-2.439l-2.407,0.255l-0.187-1.765l2.407-0.255l-0.388-3.659c-0.072-0.682-0.378-0.994-0.916-0.937
		c-0.374,0.039-0.774,0.192-1.202,0.461L91.624,151.635z"/>
	<path d="M75.245,161.842l-2.565-0.53l1.885-9.123l-4.87-1.007l0.463-2.24l7.436,1.536L75.245,161.842z"/>
	<path d="M61.357,159.098c-0.159-0.335-0.17-0.702-0.034-1.099c0.137-0.397,0.371-0.679,0.703-0.846
		c0.332-0.166,0.691-0.183,1.078-0.05c0.376,0.13,0.643,0.364,0.8,0.705c0.158,0.341,0.17,0.704,0.037,1.091
		c-0.137,0.397-0.371,0.679-0.703,0.846c-0.332,0.166-0.686,0.185-1.063,0.055C61.79,159.667,61.517,159.433,61.357,159.098z
		 M64.657,156.463l-2.414-0.83l2.901-8.434l2.414,0.83L64.657,156.463z"/>
	<path d="M50.998,149.587c-0.246-0.82-0.133-1.693,0.338-2.618l2.543-4.993l2.275,1.158l-2.204,4.328
		c-0.256,0.503-0.317,0.971-0.185,1.404c0.133,0.433,0.44,0.772,0.923,1.019c0.566,0.275,1.108,0.307,1.626,0.094
		c0.518-0.214,0.928-0.616,1.229-1.207l1.994-3.915l2.275,1.159l-4.047,7.947l-2.275-1.159l0.707-1.388
		c-1.043,0.684-2.209,0.71-3.5,0.077C51.81,151.042,51.244,150.406,50.998,149.587z"/>
	<path d="M41.104,142.337c-0.102-1.11,0.29-2.259,1.176-3.445c0.159-0.213,0.286-0.373,0.38-0.481l5.127,3.828
		c0.222-0.537,0.264-1.055,0.125-1.552s-0.439-0.918-0.899-1.262c-0.336-0.251-0.708-0.428-1.114-0.531
		c-0.405-0.103-0.825-0.123-1.258-0.061l-0.263-1.893c0.667-0.136,1.341-0.119,2.021,0.051s1.339,0.493,1.977,0.969
		c0.753,0.563,1.298,1.203,1.635,1.925c0.338,0.721,0.454,1.47,0.35,2.247s-0.424,1.524-0.96,2.241
		c-0.542,0.727-1.175,1.251-1.898,1.572c-0.723,0.322-1.478,0.428-2.264,0.316c-0.786-0.11-1.538-0.434-2.255-0.97
		C41.833,144.433,41.206,143.447,41.104,142.337z M43.671,141.047c-0.333,0.482-0.463,0.972-0.392,1.466
		c0.072,0.495,0.342,0.918,0.812,1.269c0.443,0.331,0.917,0.467,1.422,0.41c0.505-0.058,0.976-0.296,1.412-0.715L43.671,141.047z"/>
	<path d="M32.528,124.903c0.055-0.336,0.238-0.618,0.549-0.848c0.312-0.229,0.638-0.322,0.979-0.278s0.623,0.217,0.846,0.519
		c0.216,0.294,0.294,0.614,0.234,0.961c-0.061,0.347-0.242,0.631-0.544,0.854c-0.312,0.229-0.637,0.318-0.977,0.268
		c-0.34-0.052-0.618-0.225-0.834-0.518C32.558,125.558,32.474,125.238,32.528,124.903z"/>
	<path d="M29.33,120.007c0.083-0.329,0.29-0.596,0.62-0.797c0.33-0.202,0.663-0.267,0.999-0.193s0.602,0.27,0.798,0.59
		c0.19,0.312,0.24,0.637,0.15,0.977s-0.295,0.608-0.616,0.805c-0.33,0.201-0.662,0.263-0.997,0.182
		c-0.334-0.08-0.596-0.276-0.787-0.587C29.302,120.661,29.246,120.337,29.33,120.007z"/>
	<path class="st0" d="M16.612,114.108c0.216-0.883,0.758-1.52,1.626-1.907c0.464-0.207,0.946-0.274,1.444-0.201
		c0.5,0.074,0.959,0.271,1.381,0.591c-0.034-0.699,0.109-1.326,0.43-1.881c0.321-0.556,0.784-0.968,1.389-1.238
		c0.626-0.28,1.248-0.353,1.865-0.217c0.618,0.136,1.193,0.463,1.727,0.98c0.535,0.518,0.991,1.2,1.37,2.048
		c0.375,0.838,0.579,1.627,0.614,2.367c0.035,0.741-0.101,1.387-0.406,1.935s-0.767,0.96-1.382,1.235
		c-0.605,0.271-1.234,0.333-1.886,0.188c-0.651-0.144-1.233-0.477-1.745-0.999c-0.044,0.577-0.209,1.09-0.493,1.537
		c-0.284,0.448-0.663,0.777-1.137,0.989c-0.837,0.375-1.65,0.345-2.438-0.09c-0.788-0.436-1.43-1.207-1.926-2.317
		C16.54,115.999,16.396,114.992,16.612,114.108z M19.573,117.442c0.355,0.187,0.74,0.187,1.154,0.002
		c0.403-0.181,0.654-0.465,0.753-0.854c0.098-0.389,0.03-0.846-0.204-1.37s-0.527-0.882-0.878-1.069
		c-0.35-0.188-0.732-0.19-1.146-0.006c-0.414,0.186-0.67,0.473-0.768,0.861c-0.099,0.389-0.03,0.846,0.204,1.37
		C18.922,116.901,19.217,117.257,19.573,117.442z M24.094,115.676c0.404,0.225,0.842,0.231,1.316,0.02
		c0.475-0.212,0.767-0.546,0.878-1.001s0.029-0.99-0.246-1.606c-0.275-0.615-0.618-1.037-1.029-1.265
		c-0.411-0.229-0.853-0.236-1.327-0.024c-0.474,0.212-0.763,0.547-0.867,1.005c-0.104,0.459-0.018,0.995,0.257,1.61
		C23.352,115.03,23.691,115.45,24.094,115.676z"/>
	<path class="st0" d="M13.123,99.995c0.778-1.091,2.09-1.864,3.936-2.319c1.834-0.452,3.353-0.376,4.554,0.227
		c1.202,0.603,1.997,1.693,2.386,3.271c0.392,1.588,0.196,2.931-0.586,4.028c-0.782,1.099-2.091,1.873-3.926,2.325
		c-1.846,0.455-3.367,0.378-4.565-0.231c-1.197-0.61-1.992-1.709-2.383-3.297C12.149,102.421,12.344,101.086,13.123,99.995z
		 M15.824,105.066c0.694,0.228,1.7,0.179,3.02-0.147c1.31-0.322,2.221-0.746,2.734-1.271c0.514-0.524,0.671-1.189,0.473-1.994
		c-0.193-0.783-0.639-1.288-1.338-1.515c-0.698-0.226-1.703-0.178-3.012,0.146c-1.32,0.325-2.234,0.749-2.742,1.273
		c-0.508,0.523-0.666,1.177-0.473,1.96C14.685,104.322,15.13,104.839,15.824,105.066z"/>
	<path class="st0" d="M11.731,85.987c0.966-0.929,2.398-1.446,4.296-1.553c1.887-0.106,3.365,0.248,4.435,1.062
		c1.07,0.814,1.65,2.033,1.742,3.654c0.092,1.634-0.348,2.917-1.319,3.852c-0.971,0.936-2.4,1.455-4.288,1.562
		c-1.897,0.106-3.379-0.25-4.443-1.07s-1.643-2.046-1.734-3.68C10.328,88.191,10.765,86.916,11.731,85.987z M13.451,91.47
		c0.64,0.352,1.638,0.489,2.996,0.412c1.346-0.075,2.32-0.323,2.921-0.745c0.602-0.421,0.879-1.046,0.833-1.873
		c-0.045-0.806-0.391-1.384-1.036-1.735c-0.645-0.351-1.641-0.488-2.987-0.413c-1.357,0.076-2.333,0.325-2.93,0.746
		s-0.872,1.034-0.827,1.84C12.468,90.528,12.811,91.118,13.451,91.47z"/>
	<path class="st0" d="M16.19,80.897l0.392-4.259l1.684,0.155l-0.392,4.259L16.19,80.897z"/>
	<path class="st0" d="M21.197,71.8c0.223-0.384,0.385-0.792,0.488-1.222c0.223-0.935,0.093-1.71-0.391-2.326
		c-0.484-0.615-1.261-1.039-2.33-1.271c0.773,0.809,1.006,1.854,0.701,3.133c-0.262,1.096-0.803,1.888-1.623,2.374
		s-1.784,0.597-2.892,0.333c-0.774-0.185-1.412-0.513-1.913-0.985s-0.834-1.051-1-1.738s-0.151-1.439,0.044-2.256
		c0.231-0.967,0.654-1.752,1.27-2.355s1.385-0.993,2.308-1.171c0.923-0.177,1.954-0.13,3.093,0.142
		c1.193,0.285,2.192,0.739,2.998,1.363c0.806,0.625,1.362,1.376,1.669,2.256c0.307,0.88,0.339,1.825,0.099,2.835
		c-0.141,0.591-0.371,1.184-0.689,1.778c-0.318,0.595-0.671,1.09-1.062,1.485l-1.579-1.382C20.706,72.515,20.975,72.184,21.197,71.8
		z M14.514,69.702c0.232,0.408,0.633,0.68,1.203,0.815c0.538,0.128,1.001,0.068,1.389-0.18c0.389-0.248,0.65-0.651,0.783-1.21
		c0.146-0.613,0.092-1.134-0.163-1.564c-0.255-0.43-0.641-0.707-1.157-0.83c-0.483-0.115-0.933-0.052-1.349,0.189
		s-0.698,0.674-0.847,1.298C14.235,68.8,14.282,69.294,14.514,69.702z"/>
	<path class="st0" d="M14.63,59.889l1.838-4.604l10.777,4.303l-0.971,2.433l-8.714-3.479l-0.867,2.171L14.63,59.889z"/>
	<path d="M28.03,53.128c0.326-0.097,0.66-0.056,1.002,0.124s0.568,0.433,0.678,0.758c0.11,0.326,0.078,0.655-0.097,0.988
		c-0.169,0.323-0.423,0.533-0.761,0.63c-0.338,0.098-0.673,0.059-1.006-0.116c-0.342-0.18-0.564-0.434-0.667-0.762
		s-0.069-0.654,0.101-0.977C27.454,53.44,27.704,53.226,28.03,53.128z"/>
	<path d="M31.029,48.121c0.333-0.069,0.662,0,0.988,0.209c0.326,0.208,0.529,0.48,0.611,0.814c0.082,0.334,0.021,0.66-0.182,0.976
		c-0.197,0.307-0.468,0.495-0.813,0.563c-0.345,0.068-0.676,0-0.992-0.202c-0.326-0.208-0.525-0.481-0.599-0.817
		c-0.074-0.335-0.013-0.657,0.184-0.964C30.429,48.382,30.696,48.19,31.029,48.121z"/>
</g>
</svg>
