<?xml version="1.0" encoding="utf-8"?>
<!-- Generator: Adobe Illustrator 16.0.0, SVG Export Plug-In . SVG Version: 6.00 Build 0)  -->
<!DOCTYPE svg PUBLIC "-//W3C//DTD SVG 1.1//EN" "http://www.w3.org/Graphics/SVG/1.1/DTD/svg11.dtd">
<svg version="1.1" id="Layer_1" xmlns="http://www.w3.org/2000/svg" xmlns:xlink="http://www.w3.org/1999/xlink" x="0px" y="0px"
	 width="321.145px" height="210.925px" viewBox="0 0 321.145 210.925" enable-background="new 0 0 321.145 210.925"
	 xml:space="preserve">
<g>
	<defs>
		<rect id="SVGID_1_" width="321.145" height="210.925"/>
	</defs>
	<clipPath id="SVGID_2_">
		<use xlink:href="#SVGID_1_"  overflow="visible"/>
	</clipPath>
	<path clip-path="url(#SVGID_2_)" fill="#FFFFFF" d="M24.973,209.871c7.6,2,16.4,1.199,25.6-2.801c15.6-6.399,33.6-20,51.2-36.399
		c12.4-12,35.6-18,58.8-18c23.2,0,46.4,6,58.8,18c17.601,16.399,35.601,30,51.2,36.399c9.2,3.601,18,4.801,25.601,2.801
		c8-2.4,14.8-8,19.199-18.4c4.4-10,6.4-24.8,5.601-45.6c-0.8-18.4-4-38.801-8.8-58c-4.801-18.4-10.801-35.6-18-48.8
		c-28-49.2-58.4-41.6-94.801-32c-11.6,2.8-24,6-36.8,7.2h-4c-12.8-1.2-25.2-4.4-36.8-7.2c-36.4-9.2-66.8-17.2-94.8,32.4
		c-7.2,13.2-13.6,30.4-18,48.8c-4.8,19.2-8,39.6-8.8,58c-0.8,20.399,1.2,35.199,5.6,45.6
		C10.172,201.471,16.572,207.471,24.973,209.871 M14.973,146.671c0.8-17.2,3.6-36.8,8.4-55.2c4.4-17.2,10-33.2,16.8-45.2
		c22-39.6,47.6-33.2,78-25.2c12.4,3.2,25.2,6.4,39.2,7.6h0.8h4.4h0.8c14.4-1.2,27.2-4.4,39.601-7.6c30.399-7.6,56.001-14.4,78,25.2
		c6.8,12,12.399,27.6,16.8,45.2c4.4,18.4,7.6,37.599,8.4,55.2c0.8,18.399-0.801,30.8-4.4,39.2c-2.4,5.6-5.6,8.8-9.6,10
		c-4.4,1.199-10,0.4-16.4-2c-14-5.6-30.4-18-46.4-33.2c-15.199-15.2-42-22.8-68.8-22.8s-53.6,7.6-69.2,22
		c-16.4,15.199-32.8,28-46.4,33.199c-6.4,2.4-12,3.601-16.4,2c-4-1.199-7.2-4.399-9.6-10
		C15.772,177.471,14.172,165.07,14.973,146.671"/>
	<path clip-path="url(#SVGID_2_)" fill="#FFFFFF" d="M62.973,107.471c0.4,5.6,2.8,10.8,6.8,14.401c4.4,4.398,10,6.799,16.4,6.799
		c6.4,0,12.4-2.799,16.4-6.799c3.6-4,6.4-8.802,6.8-14.401c5.6-0.4,10.8-2.8,14.4-6.8c4.4-4.4,6.8-10,6.8-16.4
		c0-6.4-2.8-12.4-6.8-16.4c-4-3.6-8.8-6.4-14.4-6.8c-0.4-5.2-2.8-10.4-6.4-14l-0.4-0.4c-4.4-4.4-10-6.8-16.4-6.8
		c-6.4,0-12.4,2.8-16.4,6.8c-3.6,3.6-6.4,8.8-6.8,14.4c-5.6,0.4-10.4,2.8-14.4,6.4l-0.4,0.4c-4.4,4.4-6.8,10-6.8,16.4
		c0,6.4,2.8,12.4,6.8,16.4S56.973,107.07,62.973,107.471 M56.173,84.271c0-2.4,0.8-4.4,2.4-6l0.4-0.4c1.6-1.2,3.6-2,5.6-2h5.6
		c4,0,7.6-3.2,7.6-7.6v-5.6c0-2.4,0.8-4.4,2.4-6c1.6-1.6,3.6-2.4,6-2.4c2.4,0,4.4,0.8,6,2.4l0.4,0.4c1.2,1.6,2,3.6,2,5.6v5.6
		c0,4,3.2,7.6,7.6,7.6h5.6c2.4,0,4.4,0.8,6,2.4c1.6,1.6,2.4,3.6,2.4,6c0,2.4-0.8,4.4-2.4,6c-1.6,1.6-3.6,2.4-6,2.4h-5.6
		c-4,0-7.6,3.2-7.6,7.6v5.2c0,2.401-0.8,4.401-2.4,6c-1.6,1.6-3.6,2.401-6,2.401c-2.4,0-4.4-0.802-6-2.401
		c-1.6-1.599-2.4-3.599-2.4-6v-5.6c0-4-3.2-7.6-7.6-7.6h-5.6c-2.4,0-4.4-0.8-6-2.4C57.373,88.671,56.173,86.671,56.173,84.271"/>
	<path clip-path="url(#SVGID_2_)" fill="#FFFFFF" d="M230.172,41.871c7.732,0,14,6.268,14,14c0,7.732-6.268,14-14,14
		c-7.73,0-14-6.268-14-14C216.172,48.139,222.441,41.871,230.172,41.871"/>
	<path clip-path="url(#SVGID_2_)" fill="#FFFFFF" d="M230.172,98.671c7.732,0,14,6.268,14,14c0,7.731-6.268,14-14,14
		c-7.73,0-14-6.269-14-14C216.172,104.939,222.441,98.671,230.172,98.671"/>
	<path clip-path="url(#SVGID_2_)" fill="#FFFFFF" d="M201.772,70.271c7.731,0,14,6.268,14,14c0,7.732-6.269,14-14,14
		s-14-6.268-14-14C187.772,76.539,194.041,70.271,201.772,70.271"/>
	<path clip-path="url(#SVGID_2_)" fill="#FFFFFF" d="M258.572,70.271c7.732,0,14,6.268,14,14c0,7.732-6.268,14-14,14
		c-7.731,0-14-6.268-14-14C244.572,76.539,250.841,70.271,258.572,70.271"/>
</g>
</svg>
