<?xml version="1.0" encoding="utf-8"?>
<!-- Generator: Adobe Illustrator 16.0.0, SVG Export Plug-In . SVG Version: 6.00 Build 0)  -->
<!DOCTYPE svg PUBLIC "-//W3C//DTD SVG 1.1//EN" "http://www.w3.org/Graphics/SVG/1.1/DTD/svg11.dtd">
<svg version="1.1" id="Layer_1" xmlns="http://www.w3.org/2000/svg" xmlns:xlink="http://www.w3.org/1999/xlink" x="0px" y="0px"
	 width="46.398px" height="36.801px" viewBox="0 0 46.398 36.801" enable-background="new 0 0 46.398 36.801" xml:space="preserve">
<g>
	<path fill="#FFFFFF" d="M29.23,17.727l-8.801-5.602c-0.246-0.156-0.559-0.168-0.817-0.027c-0.254,0.14-0.414,0.41-0.414,0.703V24
		c0,0.293,0.16,0.563,0.414,0.703c0.121,0.063,0.254,0.098,0.387,0.098c0.148,0,0.301-0.043,0.43-0.125l8.801-5.602
		c0.23-0.145,0.371-0.402,0.371-0.676C29.602,18.125,29.461,17.871,29.23,17.727 M20.801,22.543v-8.285l6.508,4.14L20.801,22.543z"
		/>
	<path fill="#FFFFFF" d="M45.602,0H0.801C0.359,0,0,0.359,0,0.801V36c0,0.44,0.359,0.801,0.801,0.801h44.801
		c0.441,0,0.797-0.36,0.797-0.801V0.801C46.398,0.359,46.043,0,45.602,0 M8,17.602H1.602v-7.204H8V17.602z M1.602,19.199H8v7.198
		H1.602V19.199z M9.602,27.199V1.602h27.199v33.598H9.602V27.199z M44.801,17.602h-6.401v-7.204h6.401V17.602z M38.398,19.199H44.8
		v7.198h-6.401V19.199z M44.801,8.801h-6.401V1.602h6.401V8.801z M1.602,1.602H8v7.199H1.602V1.602z M1.602,28H8v7.199H1.602V28z
		 M44.801,35.199h-6.401V28h6.401V35.199z"/>
</g>
</svg>
