<?xml version="1.0" encoding="utf-8"?>
<!-- Generator: Adobe Illustrator 16.0.0, SVG Export Plug-In . SVG Version: 6.00 Build 0)  -->
<!DOCTYPE svg PUBLIC "-//W3C//DTD SVG 1.1//EN" "http://www.w3.org/Graphics/SVG/1.1/DTD/svg11.dtd">
<svg version="1.1" id="Layer_1" xmlns="http://www.w3.org/2000/svg" xmlns:xlink="http://www.w3.org/1999/xlink" x="0px" y="0px"
	 width="384px" height="371.204px" viewBox="0 0 384 371.204" enable-background="new 0 0 384 371.204" xml:space="preserve">
<g>
	<path fill="#FDFDFE" d="M192,166.403c-0.934,0-1.863-0.207-2.727-0.61l-108.8-51.199c-2.239-1.054-3.672-3.316-3.672-5.793
		c0-2.476,1.433-4.734,3.672-5.793l108.8-51.199c1.727-0.812,3.727-0.812,5.454,0l108.801,51.199
		c2.238,1.059,3.672,3.317,3.672,5.793c0,2.477-1.434,4.739-3.672,5.793l-108.801,51.199
		C193.863,166.196,192.934,166.403,192,166.403 M98.234,108.801L192,152.93l93.766-44.129L192,64.672L98.234,108.801z"/>
	<path fill="#FDFDFE" d="M192,217.602c-0.98,0-1.965-0.223-2.859-0.671l-76.801-38.398c-2.172-1.09-3.539-3.305-3.539-5.731V123.86
		c0-2.188,1.121-4.231,2.969-5.399c1.851-1.179,4.171-1.312,6.152-0.39L192,152.93l74.074-34.859c1.984-0.93,4.305-0.789,6.148,0.39
		c1.855,1.168,2.977,3.211,2.977,5.399v48.941c0,2.426-1.367,4.641-3.539,5.731l-76.801,38.398
		C193.965,217.379,192.98,217.602,192,217.602 M121.602,168.848L192,204.047l70.398-35.199v-34.902l-67.671,31.847
		c-1.728,0.813-3.728,0.813-5.455,0l-67.671-31.847V168.848z"/>
	<path fill="#FDFDFE" d="M300.801,115.204H192c-3.531,0-6.398-2.868-6.398-6.403c0-3.531,2.867-6.398,6.398-6.398h108.801
		c3.531,0,6.398,2.867,6.398,6.398C307.199,112.336,304.332,115.204,300.801,115.204"/>
	<path fill="#FDFDFE" d="M300.801,172.801c-3.535,0-6.402-2.867-6.402-6.398v-57.602c0-3.531,2.867-6.398,6.402-6.398
		c3.531,0,6.398,2.867,6.398,6.398v57.602C307.199,169.934,304.332,172.801,300.801,172.801"/>
	<path fill="#FDFDFE" d="M192,128c-3.531,0-6.398-2.867-6.398-6.398V96c0-3.531,2.867-6.398,6.398-6.398s6.398,2.867,6.398,6.398
		v25.602C198.398,125.133,195.531,128,192,128"/>
	<path fill="#FDFDFE" d="M287.992,192c-1.215,0-2.449-0.343-3.543-1.074c-2.938-1.957-3.73-5.933-1.773-8.875l12.801-19.203
		c1.957-2.941,5.926-3.742,8.875-1.769c2.938,1.957,3.73,5.929,1.773,8.875l-12.801,19.199C292.09,191.004,290.063,192,287.992,192"
		/>
	<path fill="#FDFDFE" d="M313.605,192c-2.066,0-4.094-0.996-5.332-2.847l-12.797-19.199c-1.961-2.938-1.168-6.918,1.77-8.875
		c2.941-1.973,6.914-1.172,8.879,1.769l12.801,19.203c1.957,2.938,1.164,6.917-1.773,8.875C316.059,191.657,314.824,192,313.605,192
		"/>
	<path fill="#FDFDFE" d="M192,185.602c-3.531,0-6.398-2.867-6.398-6.397V160c0-3.531,2.867-6.398,6.398-6.398
		s6.398,2.867,6.398,6.398v19.205C198.398,182.735,195.531,185.602,192,185.602"/>
	<path fill="#FDFDFE" d="M377.602,243.204H6.398c-3.531,0-6.398-2.868-6.398-6.403V25.61C0,11.488,11.488,0,25.605,0h332.79
		C372.512,0,384,11.488,384,25.61v211.19C384,240.336,381.133,243.204,377.602,243.204 M12.801,230.403h358.398V25.61
		c0-7.067-5.738-12.81-12.805-12.81H25.605c-7.066,0-12.804,5.743-12.804,12.81V230.403z"/>
	<path fill="#FDFDFE" d="M358.395,294.403H25.605C11.488,294.403,0,282.914,0,268.797v-31.996c0-3.531,2.867-6.397,6.398-6.397
		h371.204c3.531,0,6.398,2.866,6.398,6.397v31.996C384,282.914,372.512,294.403,358.395,294.403 M12.801,243.204v25.593
		c0,7.063,5.738,12.805,12.804,12.805h332.79c7.066,0,12.805-5.741,12.805-12.805v-25.593H12.801z"/>
	<path fill="#FDFDFE" d="M211.199,268.801h-38.398c-3.535,0-6.403-2.867-6.403-6.396c0-3.536,2.868-6.404,6.403-6.404h38.398
		c3.535,0,6.402,2.868,6.402,6.404C217.602,265.934,214.734,268.801,211.199,268.801"/>
	<path fill="#FDFDFE" d="M352,243.204H32c-3.531,0-6.398-2.868-6.398-6.403V32c0-3.531,2.867-6.398,6.398-6.398h320
		c3.531,0,6.398,2.867,6.398,6.398v204.801C358.398,240.336,355.531,243.204,352,243.204 M38.398,230.403h307.204v-192H38.398
		V230.403z"/>
	<path fill="#FDFDFE" d="M275.199,371.205H108.801c-10.586,0-19.199-8.619-19.199-19.205c0-10.585,8.613-19.199,19.199-19.199
		h166.398c10.586,0,19.199,8.614,19.199,19.199C294.398,362.586,285.785,371.205,275.199,371.205 M108.801,345.602
		c-3.528,0-6.403,2.875-6.403,6.398c0,3.528,2.875,6.403,6.403,6.403h166.398c3.527,0,6.402-2.875,6.402-6.403
		c0-3.523-2.875-6.398-6.402-6.398H108.801z"/>
	<path fill="#FDFDFE" d="M262.397,345.602H121.602c-3.536,0-6.403-2.865-6.403-6.397c0-3.536,2.867-6.403,6.403-6.403
		c21.234,0,32-15.069,32-44.801c0-3.531,2.867-6.398,6.398-6.398h64c3.531,0,6.397,2.867,6.397,6.398
		c0,29.731,10.767,44.801,32,44.801c3.536,0,6.403,2.867,6.403,6.403C268.801,342.736,265.934,345.602,262.397,345.602
		 M152.773,332.801h78.458c-7.883-8.729-12.523-21.726-13.453-38.396h-51.55C165.293,311.075,160.66,324.072,152.773,332.801"/>
</g>
</svg>
