<?xml version="1.0" encoding="utf-8"?>
<!-- Generator: Adobe Illustrator 16.0.0, SVG Export Plug-In . SVG Version: 6.00 Build 0)  -->
<!DOCTYPE svg PUBLIC "-//W3C//DTD SVG 1.1//EN" "http://www.w3.org/Graphics/SVG/1.1/DTD/svg11.dtd">
<svg version="1.1" id="Layer_1" xmlns="http://www.w3.org/2000/svg" xmlns:xlink="http://www.w3.org/1999/xlink" x="0px" y="0px"
	 width="499.094px" height="512px" viewBox="0 0 499.094 512" enable-background="new 0 0 499.094 512" xml:space="preserve">
<g>
	<path fill="#FFFFFF" d="M116.418,189.762l16.609,41.871c2.102,5.301,7.145,8.722,12.844,8.722c5.703,0,10.746-3.421,12.848-8.722
		l16.609-41.871c5.18-3.172,8.656-8.867,8.656-15.375v-35.418c0-4.145-3.355-7.5-7.5-7.5c-4.144,0-7.5,3.355-7.5,7.5v35.418
		c0,1.672-1.359,3.035-3.035,3.035h-40.152c-1.676,0-3.035-1.363-3.035-3.035V46.445c0-1.672,1.359-3.031,3.035-3.031h40.152
		c1.676,0,3.035,1.359,3.035,3.031v59.86c0,4.144,3.356,7.5,7.5,7.5c4.145,0,7.5-3.356,7.5-7.5v-59.86
		c0-5.019-2.066-9.562-5.386-12.832V18.16c0-9.941-8.09-18.031-18.032-18.031H131.18c-9.942,0-18.032,8.086-18.032,18.031v15.453
		c-3.32,3.274-5.386,7.817-5.386,12.836v127.938C107.762,180.895,111.238,186.59,116.418,189.762 M145.871,223.336l-12.262-30.918
		h24.528L145.871,223.336z M131.18,15.129h29.386c1.672,0,3.032,1.359,3.032,3.031v10.254h-35.45V18.16
		C128.148,16.488,129.508,15.129,131.18,15.129"/>
	<path fill="#FFFFFF" d="M25.57,395.363h43.25c10.504,0,19.051-8.543,19.051-19.047v-302.5c0-6.246-3.035-11.785-7.699-15.261
		L60.609,9.238c-2.195-5.535-7.461-9.109-13.414-9.109S35.98,3.703,33.785,9.238L14.223,58.555c-4.661,3.476-7.7,9.015-7.7,15.261
		v302.5C6.523,386.82,15.066,395.363,25.57,395.363 M68.82,69.77c2.235,0,4.051,1.816,4.051,4.046v262.45
		c-0.562-0.133-1.144-0.211-1.746-0.211h-16.43V69.77H68.82z M39.695,336.055H23.266c-0.602,0-1.184,0.078-1.743,0.211V73.816
		c0-2.23,1.817-4.046,4.047-4.046h14.125V336.055z M68.82,380.363H25.57c-2.23,0-4.047-1.813-4.047-4.047V350.84
		c0.563,0.137,1.141,0.215,1.743,0.215h47.859c0.602,0,1.184-0.082,1.746-0.215v25.477C72.871,378.551,71.055,380.363,68.82,380.363
		 M47.195,16.105L62.531,54.77H31.859L47.195,16.105z"/>
	<path fill="#FFFFFF" d="M122.254,395.372h47.238c10.504,0,19.047-8.548,19.047-19.052v-63.59c0-6.043-2.836-11.426-7.234-14.919
		v-12.163c0-10.5-8.547-19.047-19.051-19.047h-32.762c-10.504,0-19.051,8.543-19.051,19.047v12.163
		c-4.402,3.493-7.238,8.876-7.238,14.919v63.59C103.203,386.824,111.75,395.372,122.254,395.372 M173.539,376.32
		c0,2.234-1.812,4.052-4.047,4.052h-47.238c-2.231,0-4.051-1.817-4.051-4.052v-63.59c0-2.233,1.817-4.051,4.051-4.051h47.238
		c2.231,0,4.047,1.817,4.047,4.051V376.32z M129.492,281.602h32.762c2.234,0,4.051,1.816,4.051,4.047v8.035h-40.864v-8.035
		C125.441,283.418,127.258,281.602,129.492,281.602"/>
	<path fill="#FFFFFF" d="M224.566,389.25h22.489c2.359,4.762,7.256,8.047,12.921,8.047h12.133c5.664,0,10.563-3.285,12.922-8.047
		h176.938c16.875,0,30.598-13.727,30.598-30.598V38.645c0-16.872-13.723-30.598-30.598-30.598H285.031
		C282.672,3.289,277.773,0,272.109,0h-12.133c-5.665,0-10.563,3.289-12.921,8.047h-22.489c-10.504,0-19.05,8.547-19.05,19.051
		v79.211c0,4.14,3.359,7.5,7.5,7.5c4.144,0,7.5-3.36,7.5-7.5V27.098c0-2.235,1.816-4.051,4.05-4.051h20.981V374.25h-20.981
		c-2.23,0-4.05-1.816-4.05-4.051v-231.23c0-4.145-3.356-7.5-7.5-7.5c-4.141,0-7.5,3.355-7.5,7.5v231.23
		C205.516,380.703,214.062,389.25,224.566,389.25 M477.566,38.645v320.007c0,8.602-6.996,15.598-15.598,15.598h-175.43V23.047
		h175.434C470.57,23.047,477.566,30.047,477.566,38.645 M260.547,15h10.992v367.297h-10.992V15z"/>
	<path fill="#FFFFFF" d="M414.129,350.32h25.895c4.141,0,7.5-3.359,7.5-7.5c0-4.145-3.359-7.5-7.5-7.5h-25.895
		c-4.145,0-7.5,3.355-7.5,7.5C406.629,346.961,409.984,350.32,414.129,350.32"/>
	<path fill="#FFFFFF" d="M439.207,330.953h0.043c4.141-0.02,7.48-3.395,7.461-7.539c-0.024-4.129-3.379-7.461-7.5-7.461h-0.043
		h-0.09c-4.142,0.023-7.438,3.398-7.414,7.543C431.687,327.625,435.086,330.953,439.207,330.953"/>
	<path fill="#FFFFFF" d="M480.043,409.805H19.051C8.547,409.805,0,418.352,0,428.855v64.094C0,503.453,8.547,512,19.051,512h361.723
		c4.145,0,7.5-3.359,7.5-7.5s-3.355-7.5-7.5-7.5H19.051c-2.235,0-4.051-1.816-4.051-4.051v-64.094c0-2.234,1.816-4.051,4.051-4.051
		h27.933v11.313c0,4.141,3.36,7.501,7.5,7.501c4.145,0,7.5-3.36,7.5-7.501v-11.313h20.469v11.313c0,4.141,3.356,7.501,7.5,7.501
		c4.141,0,7.5-3.36,7.5-7.501v-11.313h20.465v11.313c0,4.141,3.355,7.501,7.5,7.501c4.144,0,7.5-3.36,7.5-7.501v-11.313h20.465
		v11.313c0,4.141,3.355,7.501,7.5,7.501c4.144,0,7.5-3.36,7.5-7.501v-11.313h20.465v11.313c0,4.141,3.359,7.501,7.5,7.501
		c4.144,0,7.5-3.36,7.5-7.501v-11.313h20.468v11.313c0,4.141,3.356,7.501,7.5,7.501c4.141,0,7.5-3.36,7.5-7.501v-11.313h20.465
		v11.313c0,4.141,3.355,7.501,7.5,7.501c4.141,0,7.5-3.36,7.5-7.501v-11.313h20.465v11.313c0,4.141,3.355,7.501,7.5,7.501
		s7.5-3.36,7.5-7.501v-11.313h20.465v11.313c0,4.141,3.359,7.501,7.5,7.501c4.146,0,7.5-3.36,7.5-7.501v-11.313h20.465v11.313
		c0,4.141,3.359,7.501,7.5,7.501c4.145,0,7.5-3.36,7.5-7.501v-11.313h20.469v11.313c0,4.141,3.355,7.501,7.5,7.501
		c4.141,0,7.5-3.36,7.5-7.501v-11.313h20.465v11.313c0,4.141,3.355,7.501,7.5,7.501s7.5-3.36,7.5-7.501v-11.313h27.938
		c2.23,0,4.047,1.816,4.047,4.051v64.094c0,2.234-1.816,4.051-4.047,4.051h-66.609c-4.145,0-7.5,3.359-7.5,7.5s3.355,7.5,7.5,7.5
		h66.609c10.504,0,19.047-8.547,19.047-19.051v-64.094C499.094,418.352,490.547,409.805,480.043,409.805"/>
</g>
</svg>
