<?xml version="1.0" encoding="utf-8"?>
<!-- Generator: Adobe Illustrator 16.0.0, SVG Export Plug-In . SVG Version: 6.00 Build 0)  -->
<!DOCTYPE svg PUBLIC "-//W3C//DTD SVG 1.1//EN" "http://www.w3.org/Graphics/SVG/1.1/DTD/svg11.dtd">
<svg version="1.1" id="Layer_1" xmlns="http://www.w3.org/2000/svg" xmlns:xlink="http://www.w3.org/1999/xlink" x="0px" y="0px"
	 width="304.803px" height="330px" viewBox="0 0 304.803 330" enable-background="new 0 0 304.803 330" xml:space="preserve">
<g>
	<path fill="#FDFDFE" d="M304.699,54.188c-2.184-11.981-7.656-23.125-15.832-32.227c-0.016-0.019-0.031-0.035-0.048-0.054
		c-4.187-4.727-11.125-11.227-20.397-15.344l-0.211-0.094C259.262,2.176,249.656,0,239.664,0c-14.773,0-28.75,4.77-40.418,13.793
		c-0.008,0.012-0.063,0.051-0.078,0.063c-10.027,7.832-16.645,19.019-17.465,20.445c-0.035,0.063-0.074,0.129-0.105,0.192
		c-5.262,9.644-8.043,20.578-8.043,31.621c0,2.293,0.117,4.613,0.355,6.894c0.223,2.137,1.5,4.016,3.398,5.012
		c1.203,0.629,2.461,1.152,3.753,1.566c5.153,15.766,16.399,28.371,30.7,35.461c-6.129,3.133-11.633,7.274-16.398,12.336
		c-2.422,2.574-2.297,6.625,0.277,9.047c2.578,2.422,6.625,2.297,9.047-0.277c2.289-2.434,4.793-4.594,7.496-6.473
		c3.875,10.981,13.859,19.02,25.218,19.02h0.954c11.379,0,21.355-8.618,25-20.278c13.516,8.469,22.16,23.567,22.16,39.711v66.481
		l-58.211,37.769c-2.965,1.926-3.809,5.887-1.883,8.853c1.223,1.89,3.277,2.917,5.371,2.917c1.195,0,2.401-0.332,3.48-1.031
		l61.125-39.664c1.82-1.18,2.918-3.199,2.918-5.367v-69.957c0-22.664-12.652-42.98-32.648-53.117
		c18.934-9.449,32.328-28.527,33.637-50.742c1.809-1.637,3.379-3.563,4.633-5.727C304.703,57.231,304.973,55.688,304.699,54.188
		 M238.359,135.903h-0.958c-7.659,0-14.128-7.426-14.128-16.215c0-0.109-0.004-0.219-0.008-0.324
		c4.961,1.304,10.152,1.992,15.473,1.992c4.551,0,8.988-0.508,13.258-1.465C251.496,128.543,245.336,135.903,238.359,135.903
		 M238.738,108.559c-19.297,0-36.41-11.496-43.906-28.73c8.887-2.512,15.684-10.051,17.117-19.336
		c3.82,0.488,7.688,0.734,11.57,0.734c13.02,0,25.559-2.727,36.789-7.953c2.895,9.941,12.09,17.226,22.953,17.226
		c0.793,0,1.578-0.043,2.359-0.121C281.105,92.125,261.742,108.559,238.738,108.559 M283.262,57.7
		c-6.121,0-11.098-4.977-11.098-11.094v-3.563c0-2.328-1.266-4.472-3.305-5.601c-2.04-1.129-4.527-1.059-6.5,0.179
		c-11.262,7.071-24.691,10.809-38.84,10.809c-5.531,0-11.027-0.586-16.336-1.734c-1.891-0.41-3.864,0.058-5.372,1.273
		c-1.507,1.215-2.382,3.047-2.382,4.981v3.882c0,6.118-4.977,11.094-11.098,11.094c-0.418,0-0.832-0.023-1.242-0.066
		c-0.094-0.016-0.191-0.028-0.285-0.035c-0.145-0.02-0.285-0.043-0.426-0.071c-0.02-0.547-0.027-1.093-0.027-1.64
		c0-8.879,2.227-17.672,6.445-25.426c0.015-0.031,0.035-0.063,0.047-0.086c0.055-0.098,5.836-10.121,14.191-16.648
		c0.02-0.016,0.039-0.032,0.043-0.036c9.402-7.273,20.672-11.117,32.586-11.117c8.063,0,15.805,1.754,23.012,5.207
		c0.125,0.063,0.313,0.145,0.551,0.254c7.117,3.16,12.582,8.277,15.938,12.047c0.035,0.043,0.074,0.086,0.109,0.129
		c6.043,6.699,10.262,14.773,12.301,23.48C289.48,56.289,286.453,57.7,283.262,57.7 M184.23,221.445
		c14.5-8.531,24.258-24.309,24.258-42.316c0-8.104-1.977-15.758-5.469-22.5c-0.129-0.285-0.27-0.554-0.43-0.808
		c-8.309-15.325-24.543-25.754-43.164-25.754c-18.625,0-34.864,10.433-43.168,25.765c-0.156,0.247-0.297,0.512-0.418,0.786
		c-3.5,6.746-5.477,14.402-5.477,22.511c0,18.004,9.75,33.778,24.25,42.313c-17.945,9.276-29.312,27.69-29.312,48.073v23.345
		c0,2.187,1.117,4.222,2.961,5.397l47.727,30.383c1.051,0.668,2.242,1,3.438,1c1.188,0,2.375-0.327,3.418-0.988l47.84-30.227
		c1.867-1.176,2.992-3.233,2.984-5.437l-0.113-23.504C213.457,249.055,202.102,230.7,184.23,221.445 M159.426,142.868
		c11.141,0,21.121,5.046,27.777,12.976c-8.625,2.473-18.082,3.762-27.777,3.762c-9.696,0-19.156-1.289-27.778-3.762
		C138.305,147.914,148.285,142.868,159.426,142.868 M123.164,179.129c0-4.156,0.703-8.156,1.996-11.879
		c10.563,3.383,22.281,5.157,34.266,5.157c11.984,0,23.703-1.774,34.266-5.157c1.293,3.723,1.996,7.723,1.996,11.879
		c0,19.996-16.266,36.262-36.262,36.262S123.164,199.125,123.164,179.129 M170.785,226.864c-0.801,6.054-6.109,10.147-10.914,10.147
		h-0.781c-5.086,0-10.738-4.305-11.469-10.258c3.781,0.938,7.735,1.438,11.805,1.438
		C163.332,228.192,167.137,227.731,170.785,226.864 M159.438,315.664l-41.341-26.32v-19.828c0-14.073,7.109-26.922,18.621-34.496
		c4,9.125,13.426,14.789,22.371,14.789h0.781c9.656,0,18.195-6.284,21.883-15.016c11.676,7.527,18.93,20.477,19,34.754l0.094,19.953
		L159.438,315.664z M113.469,143.875c1.867-3.004,0.945-6.949-2.059-8.816c-1.949-1.211-3.969-2.309-6.043-3.285
		c7.91-4.043,14.906-9.836,20.461-17.078c2.285,0.793,4.742,1.222,7.293,1.222c12.301,0,22.305-10.004,22.305-22.304V77.711
		c0-20.218-7.723-39.367-21.746-53.914C119.695,9.289,100.926,0.86,80.82,0.067h-0.008C79.066,0,77.441-0.019,75.84,0.024
		c-20.012,0.48-38.891,8.582-53.16,22.808C8.055,37.414,0,56.907,0,77.711v15.907c0,12.296,10.004,22.304,22.305,22.304
		c2.554,0,5.007-0.433,7.293-1.226c6.121,7.98,13.988,14.195,22.898,18.254c-19.746,10.386-31.961,30.492-31.961,52.754v52.386
		c0,2.168,1.098,4.188,2.918,5.367l58.059,37.676c1.074,0.696,2.281,1.031,3.476,1.031c2.098,0,4.149-1.031,5.375-2.918
		c1.926-2.964,1.078-6.929-1.886-8.852l-55.141-35.78v-48.91c0-14.81,6.894-28.407,18.445-37.18
		c3.961,11.496,14.133,20.137,25.383,20.137h0.953c12.219,0,21.969-11.06,25.403-23.416c0.378,0.223,0.757,0.454,1.132,0.684
		C107.656,147.797,111.602,146.875,113.469,143.875 M38.133,54.45c-4.137,7.027-6.324,15.07-6.324,23.261v15.907
		c0,3.031-1.426,5.734-3.645,7.476c-0.191,0.125-0.371,0.258-0.547,0.399c-1.515,1.027-3.347,1.628-5.312,1.628
		c-5.243,0-9.504-4.265-9.504-9.503V77.711c0-35.531,27.828-64.035,63.347-64.894c1.329-0.031,2.692-0.02,4.172,0.039
		c34.938,1.383,62.305,29.871,62.305,64.855v15.903c0,5.242-4.262,9.507-9.504,9.507c-1.969,0-3.797-0.601-5.316-1.628
		c-0.172-0.141-0.352-0.274-0.543-0.399c-2.219-1.742-3.645-4.445-3.645-7.48V77.711c0-22.59-16.828-42.113-39.148-45.41
		c-1.754-0.262-3.535,0.223-4.922,1.328c-1.387,1.106-2.254,2.735-2.391,4.504c-0.351,4.473-1.164,8.883-2.418,13.164h-31.09
		C41.383,51.297,39.281,52.496,38.133,54.45 M78.117,155.86h-0.953c-7.234,0-14.336-8.785-14.336-17.735
		c0-0.55-0.074-1.093-0.207-1.617c4.859,1.238,9.922,1.883,15.094,1.883c4.894,0,9.691-0.578,14.316-1.687
		C91.594,146.008,84.551,155.86,78.117,155.86 M77.715,125.59c-14.918,0-28.684-6.793-37.731-18.39
		c2.899-3.766,4.625-8.477,4.625-13.586V77.711c0-4.715,1-9.359,2.922-13.613h31.824c2.68,0,5.075-1.668,6.004-4.184
		c1.602-4.324,2.809-8.789,3.61-13.339c12.812,4.664,21.847,17.078,21.847,31.136v15.903c0,5.109,1.727,9.82,4.625,13.586
		C106.398,118.801,92.629,125.59,77.715,125.59"/>
</g>
</svg>
