<svg xmlns="http://www.w3.org/2000/svg" width="504.762" height="436.531" viewBox="0 0 504.762 436.531">
  <g id="Group_5" data-name="Group 5" transform="translate(52.416) rotate(8)">
    <path id="Path_10" data-name="Path 10" d="M320.579,515.738c-21.272,0-40.421-5.676-54.812-16.609-27.6-20.971-36.188-57.536-40.95-90.533a782.394,782.394,0,0,1-7.673-89.529c-.727-26.191.461-53.434,13.979-75.252,13.608-21.97,36.337-33.362,53.008-39.052,18.58-6.341,37.744-8.367,56.281-10.329,16.817-1.781,34.206-3.62,50.949-8.694,13.658-4.14,27.75-8.943,41.382-13.588,27.882-9.5,56.718-19.328,85.222-24.778,16.005-4.864,34.416-10.44,52.684-7.387,15.555,2.6,30.947,11.751,43.338,25.768,12.023,13.6,20.119,30.255,25.829,43.242a402.912,402.912,0,0,1,33.578,140.595c.981,17.85.692,38.386-8.9,55.326-8.893,15.716-25.923,28-47.948,34.576-15.158,4.528-31.09,6.19-46.5,7.8-4,.415-7.991.832-11.976,1.3a482.1,482.1,0,0,0-128.239,33.289c-6.663,2.753-13.4,5.711-19.909,8.572-19.345,8.5-39.347,17.287-60.371,21.984A133.2,133.2,0,0,1,320.579,515.738ZM285.6,209.055c-15.97,5.451-37.718,16.32-50.619,37.152-12.887,20.8-14.008,47.25-13.3,72.735a777.831,777.831,0,0,0,7.626,89.006c4.63,32.089,12.91,67.588,39.207,87.569,19.631,14.916,48.809,19.471,80.063,12.487,20.586-4.6,40.383-13.3,59.53-21.71,6.534-2.87,13.3-5.842,20-8.61a486.531,486.531,0,0,1,129.451-33.6c4-.467,8.014-.885,12.029-1.3,15.2-1.585,30.918-3.223,45.665-7.629,20.9-6.245,36.988-17.774,45.306-32.466,9.007-15.92,9.258-35.648,8.315-52.844a398.579,398.579,0,0,0-33.2-139.018c-5.579-12.686-13.471-28.93-25.079-42.059-11.7-13.246-26.153-21.873-40.687-24.3-17.228-2.879-35.093,2.534-50.853,7.314-28.422,5.445-57.1,15.22-84.843,24.67-13.667,4.66-27.8,9.474-41.528,13.634-17.155,5.2-34.76,7.062-51.787,8.867-18.288,1.936-37.2,3.936-55.294,10.11Z" transform="translate(-216.981 -139.115)"/>
  </g>
</svg>
